<svg id="svg" version="1.1" xmlns="http://www.w3.org/2000/svg" xmlns:xlink="http://www.w3.org/1999/xlink" width="400" height="744" viewBox="0, 0, 400,744"><g id="svgg"><path id="path0" d="M62.880 2.300 C 62.473 3.125,61.178 5.600,60.000 7.800 C 57.257 12.927,48.001 31.462,46.616 34.600 C 45.362 37.445,44.973 38.335,42.776 43.400 C 41.465 46.423,40.068 49.524,38.769 52.292 C 38.126 53.662,37.600 54.961,37.600 55.178 C 37.600 55.395,37.345 56.164,37.033 56.886 C 36.722 57.609,36.182 58.857,35.833 59.660 C 35.485 60.464,35.200 61.321,35.200 61.566 C 35.200 61.811,35.035 62.323,34.834 62.705 C 34.633 63.087,34.083 64.390,33.613 65.600 C 33.142 66.810,32.612 68.160,32.435 68.600 C 30.730 72.827,29.054 77.602,25.624 88.000 C 20.617 103.179,20.633 103.127,18.732 110.200 C 18.495 111.080,18.075 112.610,17.799 113.600 C 17.522 114.590,16.983 116.570,16.600 118.000 C 16.217 119.430,15.673 121.410,15.389 122.400 C 14.704 124.792,13.377 130.545,11.789 138.000 C 11.438 139.650,10.992 141.630,10.798 142.400 C 9.853 146.160,9.107 149.970,7.394 159.800 C 5.976 167.937,5.631 169.920,5.200 172.414 C 4.951 173.851,4.582 176.551,4.381 178.414 C 4.179 180.276,3.729 184.050,3.381 186.800 C 3.033 189.550,2.678 192.970,2.592 194.400 L 2.436 197.000 2.994 194.200 C 3.300 192.660,3.568 190.410,3.589 189.200 C 3.611 187.990,3.885 185.830,4.200 184.400 C 4.515 182.970,4.775 181.080,4.780 180.200 C 4.788 178.412,5.732 172.070,6.625 167.800 C 6.947 166.260,7.208 164.442,7.205 163.760 C 7.202 163.078,7.382 161.998,7.604 161.360 C 7.826 160.722,8.177 159.030,8.384 157.600 C 8.726 155.239,9.011 153.620,10.388 146.248 C 10.630 144.955,11.001 143.571,11.214 143.174 C 11.426 142.777,11.600 141.962,11.600 141.361 C 11.600 140.761,11.858 139.354,12.174 138.235 C 12.489 137.116,13.044 134.760,13.407 133.000 C 13.770 131.240,14.322 128.990,14.635 128.000 C 14.948 127.010,15.203 125.651,15.202 124.980 C 15.201 124.309,15.361 123.589,15.558 123.380 C 15.755 123.171,16.103 122.190,16.333 121.200 C 17.296 117.043,17.632 115.757,17.954 115.000 C 18.356 114.053,19.120 111.240,19.583 109.000 C 19.765 108.120,20.102 106.860,20.332 106.200 C 20.561 105.540,21.055 103.920,21.428 102.600 C 21.801 101.280,22.333 99.570,22.609 98.800 C 22.886 98.030,23.440 96.320,23.840 95.000 C 24.240 93.680,24.694 92.420,24.848 92.200 C 25.002 91.980,25.255 91.123,25.410 90.296 C 25.564 89.468,25.850 88.693,26.045 88.572 C 26.240 88.451,26.400 87.986,26.400 87.537 C 26.400 87.088,26.645 86.154,26.945 85.460 C 27.245 84.767,28.066 82.400,28.770 80.200 C 30.020 76.293,30.749 74.293,31.854 71.740 C 32.154 71.046,32.400 70.309,32.400 70.101 C 32.400 69.751,33.218 67.823,33.975 66.387 C 34.153 66.050,34.425 65.197,34.580 64.491 C 34.735 63.786,35.028 63.106,35.231 62.981 C 35.434 62.855,35.600 62.418,35.600 62.009 C 35.600 61.600,35.856 60.755,36.168 60.132 C 36.481 59.510,37.043 58.190,37.419 57.200 C 37.794 56.210,38.353 54.818,38.661 54.106 C 38.969 53.394,39.469 52.224,39.770 51.506 C 40.072 50.788,40.801 49.120,41.391 47.800 C 41.981 46.480,42.714 44.812,43.021 44.094 C 43.634 42.658,44.228 41.318,45.720 38.000 C 46.265 36.790,47.125 34.827,47.631 33.637 C 48.404 31.822,57.717 13.118,59.102 10.600 C 59.344 10.160,59.646 9.530,59.774 9.200 C 59.902 8.870,60.383 7.970,60.843 7.200 C 61.302 6.430,62.060 5.080,62.527 4.200 C 62.993 3.320,63.633 2.285,63.949 1.900 C 64.569 1.146,192.722 0.782,193.902 1.531 C 194.252 1.753,193.462 2.692,191.302 4.621 C 180.317 14.434,155.836 40.527,148.400 50.348 C 147.850 51.075,147.212 51.879,146.981 52.135 C 145.722 53.534,135.327 67.288,133.434 70.060 C 132.630 71.237,130.639 74.090,129.009 76.400 C 126.545 79.894,123.257 84.873,121.394 87.933 C 121.170 88.300,120.519 89.320,119.946 90.200 C 115.890 96.429,114.337 98.889,113.601 100.246 C 113.138 101.101,112.592 102.070,112.388 102.400 C 110.601 105.298,107.600 110.475,107.600 110.662 C 107.600 110.790,106.988 111.909,106.241 113.148 C 105.493 114.386,104.477 116.120,103.982 117.000 C 102.521 119.597,93.484 137.616,92.444 140.004 C 91.918 141.212,91.086 143.100,90.595 144.200 C 90.104 145.300,88.944 147.982,88.017 150.161 C 87.090 152.339,86.182 154.409,85.999 154.761 C 85.817 155.112,85.373 156.120,85.014 157.000 C 84.655 157.880,84.190 158.913,83.981 159.295 C 83.771 159.677,83.600 160.189,83.600 160.434 C 83.600 160.679,83.354 161.446,83.054 162.140 C 82.455 163.524,82.102 164.416,79.465 171.200 C 78.482 173.730,77.371 176.700,76.996 177.800 C 76.622 178.900,76.180 180.160,76.014 180.600 C 75.848 181.040,75.397 182.480,75.012 183.800 C 74.627 185.120,74.088 186.830,73.813 187.600 C 71.662 193.630,69.687 200.113,67.416 208.600 C 67.121 209.700,66.571 211.680,66.193 213.000 C 65.815 214.320,65.364 216.030,65.190 216.800 C 65.016 217.570,64.311 220.630,63.623 223.600 C 61.479 232.854,61.193 234.115,60.547 237.200 C 59.843 240.556,58.906 245.866,58.425 249.217 C 58.250 250.436,57.993 251.793,57.853 252.233 C 57.713 252.673,57.428 254.286,57.219 255.817 C 57.010 257.347,56.661 259.770,56.443 261.200 C 56.225 262.630,55.759 266.230,55.407 269.200 C 55.056 272.170,54.589 275.770,54.371 277.200 C 53.969 279.828,53.576 284.614,52.743 297.000 C 52.168 305.550,52.189 341.652,52.772 348.600 C 53.013 351.460,53.385 356.578,53.601 359.972 C 53.816 363.367,54.091 366.455,54.211 366.834 C 54.430 367.525,55.313 374.734,55.980 381.281 C 56.175 383.196,56.518 385.716,56.743 386.881 C 56.968 388.046,57.445 390.800,57.801 393.000 C 58.158 395.200,58.616 397.810,58.819 398.800 C 59.021 399.790,59.371 401.770,59.596 403.200 C 59.821 404.630,60.292 407.060,60.641 408.600 C 60.990 410.140,61.424 412.229,61.605 413.243 C 61.786 414.257,62.117 415.787,62.340 416.643 C 62.563 417.499,63.025 419.416,63.366 420.902 C 64.793 427.120,65.272 429.104,65.802 431.000 C 66.110 432.100,66.658 434.080,67.021 435.400 C 67.383 436.720,67.836 438.340,68.027 439.000 C 68.218 439.660,68.664 441.280,69.018 442.600 C 69.785 445.460,73.056 456.014,73.790 458.000 C 74.075 458.770,74.877 461.200,75.573 463.400 C 76.269 465.600,77.010 467.713,77.219 468.095 C 77.429 468.477,77.600 468.989,77.600 469.234 C 77.600 469.479,77.846 470.246,78.146 470.940 C 78.446 471.633,78.986 472.965,79.346 473.900 C 79.706 474.835,80.261 476.275,80.580 477.100 C 80.900 477.925,81.989 480.760,83.002 483.400 C 84.015 486.040,85.374 489.333,86.022 490.718 C 86.670 492.103,87.200 493.329,87.200 493.443 C 87.200 493.556,87.660 494.673,88.221 495.925 C 88.783 497.176,89.482 498.740,89.776 499.400 C 91.452 503.169,92.859 506.092,97.958 516.400 C 101.060 522.670,104.330 529.060,105.223 530.600 C 106.117 532.140,107.057 533.895,107.312 534.500 C 107.567 535.105,107.916 535.600,108.088 535.600 C 108.259 535.600,108.400 535.784,108.400 536.010 C 108.400 536.549,113.908 546.082,116.715 550.400 C 117.930 552.270,119.501 554.700,120.205 555.800 C 120.909 556.900,123.086 560.204,125.042 563.141 C 126.999 566.079,128.780 568.779,129.000 569.141 C 129.711 570.313,138.499 582.593,138.773 582.800 C 138.919 582.910,140.611 585.070,142.533 587.600 C 159.422 609.834,181.000 632.436,204.345 652.346 C 206.245 653.967,208.430 655.865,209.200 656.564 C 209.970 657.264,211.860 658.805,213.400 659.990 C 214.940 661.174,216.290 662.261,216.400 662.406 C 216.510 662.550,216.960 662.873,217.400 663.122 C 218.178 663.563,218.175 663.576,217.300 663.588 C 216.805 663.595,216.400 663.420,216.400 663.200 C 216.400 662.980,216.139 662.800,215.820 662.800 C 215.501 662.800,215.096 662.575,214.920 662.300 C 214.604 661.806,213.537 661.047,212.431 660.528 C 212.117 660.381,211.577 660.012,211.231 659.707 C 210.884 659.402,208.850 657.906,206.710 656.381 C 204.571 654.857,202.501 653.343,202.110 653.018 C 201.720 652.692,199.870 651.234,198.000 649.779 C 196.130 648.323,194.240 646.828,193.800 646.456 C 193.360 646.084,191.110 644.353,188.800 642.609 C 186.490 640.865,184.127 638.979,183.549 638.419 C 182.126 637.039,177.892 633.341,176.516 632.277 C 175.902 631.802,174.700 630.781,173.844 630.007 C 171.747 628.110,171.743 628.106,168.790 625.607 C 167.366 624.401,165.458 622.691,164.551 621.807 C 163.644 620.923,161.026 618.400,158.733 616.200 C 156.439 614.000,153.041 610.739,151.181 608.953 C 144.889 602.911,133.909 591.469,129.200 586.047 C 126.800 583.284,125.940 582.320,123.449 579.600 C 122.542 578.610,121.083 576.900,120.207 575.800 C 119.330 574.700,118.044 573.170,117.348 572.400 C 116.652 571.630,115.406 570.100,114.579 569.000 C 113.751 567.900,112.957 566.910,112.814 566.800 C 112.671 566.690,111.402 565.070,109.993 563.200 C 108.584 561.330,107.200 559.562,106.916 559.271 C 106.632 558.981,106.400 558.619,106.400 558.467 C 106.400 558.316,105.991 557.744,105.492 557.196 C 104.992 556.648,103.687 555.030,102.592 553.600 C 101.496 552.170,100.375 550.856,100.100 550.680 C 99.825 550.504,99.600 550.193,99.600 549.988 C 99.600 549.783,98.450 548.037,97.044 546.107 C 92.227 539.496,83.346 526.440,80.157 521.281 C 79.301 519.896,78.330 518.330,78.000 517.802 C 77.670 517.274,76.420 515.258,75.223 513.321 C 74.025 511.385,72.945 509.710,72.823 509.600 C 72.515 509.324,71.908 508.265,70.186 505.000 C 69.373 503.460,68.488 501.930,68.220 501.600 C 67.951 501.270,67.352 500.210,66.889 499.245 L 66.046 497.491 66.890 496.808 C 67.450 496.354,67.642 495.887,67.462 495.417 C 67.202 494.741,66.754 494.728,65.200 495.349 C 64.774 495.520,64.335 495.040,63.687 493.695 C 63.184 492.653,62.239 490.900,61.586 489.800 C 60.933 488.700,59.636 486.270,58.704 484.400 C 57.772 482.530,56.917 480.910,56.805 480.800 C 56.692 480.690,56.265 479.880,55.856 479.000 C 55.447 478.120,54.967 477.130,54.789 476.800 C 53.430 474.275,47.200 461.614,47.200 461.377 C 47.200 461.212,46.732 460.070,46.159 458.839 C 44.103 454.416,41.262 448.124,40.723 446.800 C 40.318 445.805,39.710 444.377,38.637 441.900 C 38.327 441.185,37.768 439.790,37.394 438.800 C 37.020 437.810,36.463 436.522,36.157 435.938 C 35.851 435.354,35.600 434.617,35.600 434.300 C 35.600 433.765,34.863 431.955,33.974 430.305 C 33.768 429.923,33.600 429.411,33.600 429.166 C 33.600 428.921,33.354 428.154,33.054 427.460 C 32.545 426.285,31.875 424.593,30.573 421.200 C 29.581 418.616,27.941 413.812,27.626 412.567 C 27.140 410.645,26.428 409.536,26.412 410.676 C 26.405 411.158,26.564 411.654,26.765 411.778 C 26.966 411.903,27.252 412.722,27.400 413.600 C 27.548 414.478,27.834 415.297,28.035 415.422 C 28.236 415.546,28.400 416.014,28.400 416.463 C 28.400 416.912,28.646 417.846,28.946 418.540 C 29.246 419.233,29.766 420.520,30.101 421.400 C 31.319 424.599,32.120 426.626,32.654 427.860 C 32.954 428.554,33.200 429.373,33.200 429.680 C 33.200 429.988,33.350 430.411,33.534 430.620 C 33.718 430.829,34.190 431.900,34.585 433.000 C 34.979 434.100,35.524 435.540,35.796 436.200 C 36.069 436.860,36.602 438.210,36.983 439.200 C 37.994 441.834,38.768 443.648,40.820 448.200 C 41.515 449.740,42.352 451.630,42.681 452.400 C 43.009 453.170,43.691 454.700,44.197 455.800 C 44.702 456.900,45.599 458.970,46.190 460.400 C 47.811 464.327,59.525 487.537,61.532 490.800 C 62.006 491.570,62.517 492.470,62.667 492.800 C 62.818 493.130,63.394 494.120,63.946 495.000 C 64.499 495.880,65.521 497.680,66.218 499.000 C 66.915 500.320,67.868 502.030,68.337 502.800 C 68.806 503.570,69.359 504.581,69.565 505.047 C 70.039 506.118,74.480 513.332,74.831 513.600 C 74.975 513.710,75.219 514.205,75.373 514.700 C 75.528 515.195,75.801 515.600,75.980 515.600 C 76.160 515.600,76.416 515.915,76.549 516.300 C 76.682 516.685,77.108 517.475,77.495 518.055 C 77.883 518.635,79.184 520.705,80.386 522.655 C 85.147 530.375,97.954 548.604,104.235 556.600 C 105.618 558.360,108.576 562.140,110.809 565.000 C 113.041 567.860,115.168 570.560,115.534 571.001 C 119.674 575.980,122.717 579.545,123.385 580.200 C 123.835 580.640,124.619 581.535,125.128 582.188 C 125.870 583.141,130.729 588.583,132.609 590.568 C 132.834 590.806,134.260 592.350,135.778 594.000 C 140.707 599.359,147.745 606.460,154.804 613.200 C 158.607 616.830,162.906 620.943,164.359 622.340 C 165.811 623.737,167.900 625.600,169.000 626.480 C 170.100 627.360,171.630 628.649,172.400 629.344 C 173.170 630.039,175.780 632.314,178.200 634.401 C 180.620 636.487,182.960 638.529,183.400 638.938 C 183.840 639.347,184.830 640.157,185.600 640.739 C 186.370 641.320,187.090 641.897,187.200 642.021 C 187.310 642.144,188.930 643.395,190.800 644.800 C 192.670 646.205,194.290 647.463,194.400 647.596 C 194.510 647.729,195.770 648.723,197.200 649.806 C 198.630 650.889,200.003 651.961,200.251 652.188 C 200.499 652.414,201.106 652.870,201.600 653.200 C 202.094 653.530,202.701 653.993,202.949 654.228 C 203.515 654.765,208.658 658.503,214.067 662.307 C 216.340 663.907,219.964 666.472,222.119 668.007 C 224.274 669.543,226.110 670.800,226.199 670.800 C 226.287 670.800,228.643 672.330,231.435 674.200 C 234.226 676.070,236.568 677.600,236.638 677.600 C 236.709 677.600,238.799 678.969,241.283 680.641 C 250.654 686.951,265.536 696.057,275.400 701.517 C 277.160 702.492,278.780 703.431,279.000 703.604 C 279.901 704.315,302.064 715.242,305.361 716.601 C 309.218 718.191,309.538 718.333,311.532 719.332 C 312.265 719.700,313.040 720.000,313.255 720.000 C 313.469 720.000,314.683 720.515,315.953 721.145 C 317.222 721.775,320.587 723.154,323.430 724.210 C 326.274 725.265,328.771 726.280,328.980 726.465 C 329.189 726.649,329.763 726.800,330.256 726.800 C 330.749 726.800,331.260 726.973,331.391 727.185 C 331.522 727.397,332.207 727.743,332.914 727.953 C 333.622 728.164,335.190 728.721,336.400 729.192 C 339.401 730.358,359.180 736.891,362.400 737.778 C 363.830 738.173,365.810 738.722,366.800 738.999 C 367.790 739.275,369.320 739.695,370.200 739.932 C 372.840 740.641,376.486 741.655,378.400 742.211 C 379.390 742.498,380.875 742.847,381.700 742.985 C 382.525 743.123,383.200 743.408,383.200 743.618 C 383.200 743.844,385.657 744.000,389.200 744.000 C 392.933 744.000,395.200 743.849,395.200 743.600 C 395.200 743.380,394.762 743.200,394.226 743.200 C 393.690 743.200,392.745 743.003,392.126 742.761 C 390.865 742.270,387.722 741.334,385.600 740.819 C 384.077 740.449,382.116 739.772,380.140 738.934 C 379.446 738.640,378.612 738.400,378.285 738.400 C 377.959 738.400,377.176 738.131,376.546 737.802 C 375.916 737.474,375.096 737.204,374.724 737.202 C 374.352 737.201,373.936 737.020,373.800 736.800 C 373.664 736.580,373.186 736.400,372.737 736.400 C 372.288 736.400,371.354 736.158,370.660 735.862 C 367.688 734.594,362.911 732.800,362.505 732.800 C 362.263 732.800,361.555 732.544,360.932 732.232 C 360.310 731.919,358.990 731.361,358.000 730.991 C 357.010 730.621,355.887 730.156,355.505 729.959 C 355.123 729.762,354.598 729.600,354.337 729.600 C 354.076 729.600,352.679 729.049,351.232 728.376 C 349.784 727.703,348.015 726.893,347.300 726.576 C 346.585 726.259,345.415 725.740,344.700 725.422 C 343.985 725.104,342.256 724.339,340.857 723.722 C 335.669 721.433,318.030 712.470,314.000 710.075 C 312.389 709.118,311.522 708.632,308.200 706.825 C 306.880 706.107,304.310 704.593,302.489 703.460 C 300.668 702.327,298.868 701.217,298.489 700.994 C 298.110 700.770,297.080 700.119,296.200 699.546 C 295.320 698.973,292.980 697.456,291.000 696.175 C 288.036 694.257,285.252 692.338,282.188 690.101 C 281.962 689.935,280.342 688.821,278.588 687.624 C 276.835 686.428,275.310 685.335,275.200 685.196 C 275.090 685.058,273.992 684.206,272.761 683.305 C 271.530 682.403,270.270 681.418,269.961 681.115 C 269.652 680.813,268.658 680.033,267.751 679.383 C 264.527 677.070,260.612 673.943,258.614 672.085 C 257.499 671.048,256.078 669.801,255.457 669.314 C 251.622 666.305,236.849 652.526,232.819 648.200 C 231.180 646.440,227.940 643.002,225.619 640.560 C 223.299 638.118,220.680 635.243,219.800 634.170 C 217.647 631.544,215.579 629.172,214.598 628.200 C 214.153 627.760,212.900 626.230,211.813 624.800 C 210.727 623.370,209.718 622.110,209.571 622.000 C 209.324 621.814,208.331 620.541,201.991 612.288 C 200.676 610.577,199.600 609.002,199.600 608.788 C 199.600 608.575,199.465 608.400,199.300 608.399 C 199.135 608.399,198.370 607.455,197.600 606.302 C 196.830 605.150,195.480 603.195,194.600 601.958 C 193.720 600.721,192.772 599.370,192.493 598.955 C 192.215 598.540,190.910 596.611,189.593 594.669 C 188.277 592.727,187.200 591.061,187.200 590.966 C 187.200 590.871,186.660 590.048,186.000 589.137 C 185.340 588.225,184.800 587.252,184.800 586.973 C 184.800 586.695,184.655 586.407,184.477 586.333 C 184.299 586.260,183.237 584.670,182.118 582.800 C 180.998 580.930,179.705 578.770,179.244 578.000 C 178.784 577.230,178.282 576.330,178.129 576.000 C 177.977 575.670,177.199 574.320,176.401 573.000 C 175.603 571.680,174.541 569.746,174.041 568.702 C 173.540 567.658,172.966 566.703,172.765 566.579 C 172.564 566.454,172.400 566.018,172.400 565.610 C 172.400 565.201,172.255 564.807,172.077 564.733 C 171.727 564.589,165.338 552.126,163.806 548.600 C 163.519 547.940,162.883 546.500,162.392 545.400 C 160.664 541.528,159.551 538.992,159.232 538.200 C 158.632 536.713,157.152 533.405,156.775 532.705 C 156.569 532.323,156.394 531.693,156.387 531.305 C 156.380 530.917,156.110 530.251,155.787 529.824 C 155.464 529.396,155.200 528.736,155.200 528.356 C 155.200 527.976,154.941 527.155,154.624 526.532 C 153.602 524.520,152.800 522.493,152.800 521.920 C 152.800 521.612,152.642 521.189,152.449 520.980 C 152.256 520.771,151.711 519.430,151.238 518.000 C 150.764 516.570,150.227 515.040,150.044 514.600 C 149.862 514.160,149.399 512.720,149.017 511.400 C 148.634 510.080,148.069 508.409,147.761 507.686 C 147.452 506.964,147.200 506.130,147.200 505.832 C 147.200 505.535,146.931 504.776,146.602 504.146 C 146.274 503.516,146.004 502.606,146.002 502.124 C 146.001 501.642,145.841 501.149,145.646 501.029 C 145.452 500.908,145.167 499.971,145.013 498.946 C 144.859 497.921,144.581 496.794,144.394 496.441 C 144.037 495.766,143.399 493.403,142.769 490.416 C 142.562 489.436,142.215 488.455,141.996 488.236 C 141.778 488.018,141.600 487.330,141.600 486.707 C 141.600 486.084,141.330 484.928,141.000 484.138 C 140.670 483.349,140.397 482.229,140.394 481.651 C 140.391 481.073,140.129 479.880,139.812 479.000 C 139.495 478.120,139.227 476.761,139.218 475.980 C 139.208 475.199,139.040 474.389,138.844 474.180 C 138.649 473.971,138.280 472.720,138.025 471.400 C 136.384 462.917,135.301 456.879,134.806 453.448 C 134.588 451.934,134.228 450.044,134.007 449.248 C 133.785 448.452,133.601 446.720,133.596 445.400 C 133.591 444.080,133.327 441.920,133.008 440.600 C 132.689 439.280,132.418 437.120,132.404 435.800 C 132.391 434.480,132.196 432.598,131.970 431.619 C 129.962 422.905,129.983 371.525,131.999 361.880 C 132.219 360.824,132.404 359.024,132.410 357.880 C 132.415 356.736,132.598 355.080,132.817 354.200 C 133.036 353.320,133.382 350.890,133.586 348.800 C 133.790 346.710,134.224 343.470,134.551 341.600 C 134.878 339.730,135.427 336.580,135.772 334.600 C 136.702 329.252,137.466 325.335,138.188 322.200 C 138.543 320.660,139.012 318.432,139.230 317.248 C 139.449 316.065,139.801 314.771,140.014 314.374 C 140.226 313.977,140.399 313.146,140.398 312.526 C 140.397 311.907,140.654 310.590,140.970 309.600 C 141.285 308.610,141.816 306.810,142.149 305.600 C 142.482 304.390,143.035 302.434,143.378 301.254 C 143.720 300.074,144.000 298.779,144.000 298.378 C 144.000 297.976,144.163 297.546,144.363 297.423 C 144.562 297.300,144.849 296.300,145.000 295.200 C 145.151 294.100,145.438 293.100,145.637 292.977 C 145.837 292.854,146.001 292.358,146.002 291.876 C 146.004 291.394,146.274 290.484,146.602 289.854 C 146.931 289.224,147.200 288.319,147.200 287.843 C 147.200 287.367,147.445 286.623,147.745 286.189 C 148.045 285.755,148.384 284.860,148.499 284.200 C 148.694 283.081,149.273 281.287,150.048 279.400 C 150.229 278.960,150.764 277.430,151.238 276.000 C 151.711 274.570,152.256 273.229,152.449 273.020 C 152.642 272.811,152.801 272.361,152.802 272.020 C 152.804 271.679,153.074 270.884,153.402 270.254 C 153.731 269.624,154.000 268.931,154.000 268.715 C 154.000 268.286,154.911 266.064,155.824 264.268 C 156.141 263.645,156.400 262.894,156.400 262.600 C 156.400 262.306,156.653 261.555,156.963 260.932 C 157.273 260.310,157.712 259.350,157.940 258.800 C 158.168 258.250,158.792 256.810,159.327 255.600 C 161.141 251.498,162.056 249.403,162.561 248.200 C 163.688 245.513,164.415 243.975,166.817 239.200 C 168.200 236.450,170.038 232.760,170.901 231.000 C 171.765 229.240,172.636 227.530,172.838 227.200 C 173.040 226.870,173.326 226.330,173.473 226.000 C 173.621 225.670,174.162 224.726,174.675 223.902 C 175.188 223.077,176.171 221.367,176.858 220.102 C 179.050 216.066,179.637 215.028,180.423 213.800 C 180.845 213.140,181.312 212.330,181.459 212.000 C 181.750 211.346,185.376 205.630,187.238 202.888 C 187.877 201.947,188.400 201.108,188.400 201.023 C 188.400 200.666,194.509 191.788,194.838 191.667 C 195.037 191.593,195.200 191.371,195.200 191.172 C 195.200 190.888,198.678 185.852,200.292 183.800 C 200.465 183.580,200.907 182.930,201.276 182.356 C 201.644 181.782,202.188 181.062,202.485 180.756 C 202.782 180.450,203.911 179.030,204.994 177.600 C 206.077 176.170,207.069 174.910,207.200 174.800 C 207.331 174.690,208.316 173.430,209.390 172.000 C 210.464 170.570,211.625 169.113,211.971 168.763 C 212.317 168.413,213.258 167.333,214.062 166.363 C 214.866 165.393,215.856 164.221,216.262 163.759 C 217.061 162.848,220.550 158.842,222.800 156.251 C 228.019 150.243,242.112 136.222,250.400 128.794 C 252.710 126.723,254.852 124.784,255.159 124.484 C 255.466 124.184,256.996 122.919,258.559 121.671 C 260.122 120.424,261.490 119.304,261.600 119.183 C 261.710 119.062,262.970 118.076,264.400 116.992 C 265.830 115.908,267.448 114.612,267.996 114.111 C 268.544 113.610,269.116 113.200,269.267 113.200 C 269.419 113.200,269.781 112.963,270.071 112.672 C 271.184 111.561,284.104 102.181,289.423 98.621 C 293.283 96.039,293.365 95.989,294.100 95.742 C 294.485 95.612,294.800 95.380,294.800 95.224 C 294.800 95.069,295.565 94.542,296.500 94.054 C 297.435 93.566,299.550 92.274,301.200 91.182 C 302.850 90.091,304.470 89.075,304.800 88.925 C 305.130 88.775,306.528 87.965,307.907 87.126 C 309.286 86.287,310.504 85.600,310.614 85.600 C 310.776 85.600,314.783 83.301,317.600 81.592 C 318.630 80.967,340.493 70.135,342.600 69.205 C 345.724 67.827,346.808 67.337,349.632 66.024 C 351.079 65.351,352.453 64.800,352.686 64.800 C 352.918 64.800,353.624 64.531,354.254 64.202 C 354.884 63.874,355.685 63.604,356.033 63.602 C 356.382 63.601,356.790 63.477,356.941 63.326 C 357.191 63.076,358.533 62.534,361.200 61.607 C 361.750 61.416,363.190 60.875,364.400 60.404 C 365.610 59.933,367.861 59.126,369.402 58.610 C 370.944 58.094,372.654 57.495,373.202 57.278 C 373.751 57.062,375.280 56.559,376.600 56.160 C 377.920 55.762,379.171 55.293,379.380 55.118 C 379.589 54.943,380.129 54.799,380.580 54.798 C 381.031 54.796,381.916 54.526,382.546 54.198 C 383.176 53.869,384.025 53.600,384.432 53.600 C 384.840 53.600,385.764 53.354,386.486 53.052 C 389.624 51.744,391.994 51.043,399.100 49.324 L 400.000 49.107 400.000 24.953 L 400.000 0.800 231.809 0.800 L 63.619 0.800 62.880 2.300 M1.916 200.200 C 1.760 201.740,1.440 206.240,1.206 210.200 C 0.972 214.160,0.605 217.460,0.390 217.533 C -0.103 217.702,-0.128 222.400,0.365 222.400 C 0.863 222.400,1.122 220.334,1.394 214.200 C 1.521 211.340,1.814 207.470,2.045 205.600 C 2.277 203.730,2.406 201.120,2.333 199.800 L 2.200 197.400 1.916 200.200 M0.000 275.367 C 0.000 276.998,0.172 278.393,0.381 278.467 C 0.591 278.540,0.885 281.480,1.034 285.000 C 1.183 288.520,1.540 293.110,1.828 295.200 L 2.351 299.000 2.216 295.800 C 2.109 293.283,0.886 272.921,0.817 272.500 C 0.586 271.111,0.000 273.169,0.000 275.367 M2.565 301.200 C 2.772 304.427,3.536 311.440,3.981 314.200 C 4.194 315.520,4.568 318.130,4.813 320.000 C 5.057 321.870,5.340 324.030,5.442 324.800 C 5.544 325.570,5.903 327.730,6.240 329.600 C 6.893 333.218,7.680 337.664,8.648 343.200 C 9.367 347.309,10.342 352.094,10.850 354.000 C 11.225 355.407,11.749 357.860,12.387 361.200 C 12.576 362.190,12.927 363.507,13.166 364.126 C 13.405 364.745,13.600 365.720,13.600 366.291 C 13.600 367.243,13.917 368.542,15.386 373.600 C 15.674 374.590,16.211 376.570,16.581 378.000 C 16.950 379.430,17.490 381.410,17.780 382.400 C 18.069 383.390,18.499 384.920,18.734 385.800 C 20.094 390.886,20.694 392.910,22.883 399.800 C 25.410 407.750,26.375 410.308,26.391 409.095 C 26.396 408.707,26.235 408.077,26.034 407.695 C 25.694 407.049,22.000 395.546,21.123 392.400 C 20.908 391.630,20.548 390.460,20.323 389.800 C 20.098 389.140,19.764 387.880,19.581 387.000 C 19.398 386.120,18.950 384.410,18.584 383.200 C 17.758 380.460,16.870 377.154,16.329 374.800 C 16.102 373.810,15.755 372.829,15.558 372.620 C 15.361 372.411,15.200 371.797,15.200 371.255 C 15.200 370.713,14.945 369.354,14.633 368.235 C 14.321 367.116,13.768 364.760,13.403 363.000 C 13.038 361.240,12.497 358.810,12.200 357.600 C 11.903 356.390,11.360 353.960,10.992 352.200 C 10.624 350.440,10.156 348.370,9.951 347.600 C 9.549 346.087,8.985 342.676,8.390 338.145 C 8.183 336.575,7.831 334.808,7.607 334.219 C 7.383 333.630,7.200 332.514,7.200 331.740 C 7.200 330.965,6.937 329.222,6.616 327.866 C 5.815 324.479,4.789 317.739,4.780 315.800 C 4.775 314.920,4.515 313.030,4.200 311.600 C 3.885 310.170,3.610 307.830,3.588 306.400 C 3.567 304.970,3.295 302.720,2.986 301.400 L 2.424 299.000 2.565 301.200 " stroke="none" fill="#fbb35c" fill-rule="evenodd"></path><path id="path1" d="M0.000 108.800 C 0.000 181.067,0.134 217.600,0.400 217.600 C 0.620 217.600,0.808 217.195,0.818 216.700 C 0.940 210.754,2.119 197.057,3.393 186.800 C 3.734 184.050,4.179 180.276,4.381 178.414 C 4.582 176.551,4.951 173.851,5.200 172.414 C 5.631 169.920,5.976 167.937,7.394 159.800 C 9.107 149.970,9.853 146.160,10.798 142.400 C 10.992 141.630,11.438 139.650,11.789 138.000 C 13.377 130.545,14.704 124.792,15.389 122.400 C 15.673 121.410,16.217 119.430,16.600 118.000 C 16.983 116.570,17.522 114.590,17.799 113.600 C 18.075 112.610,18.495 111.080,18.732 110.200 C 20.633 103.127,20.617 103.179,25.624 88.000 C 29.054 77.602,30.730 72.827,32.435 68.600 C 32.612 68.160,33.142 66.810,33.613 65.600 C 34.083 64.390,34.633 63.087,34.834 62.705 C 35.035 62.323,35.200 61.811,35.200 61.566 C 35.200 61.321,35.485 60.464,35.833 59.660 C 36.182 58.857,36.722 57.609,37.033 56.886 C 37.345 56.164,37.600 55.395,37.600 55.178 C 37.600 54.961,38.126 53.662,38.769 52.292 C 40.068 49.524,41.465 46.423,42.776 43.400 C 44.973 38.335,45.362 37.445,46.616 34.600 C 48.001 31.462,57.257 12.927,60.000 7.800 C 61.178 5.600,62.473 3.125,62.880 2.300 L 63.619 0.800 231.809 0.800 C 343.670 0.800,400.000 0.666,400.000 0.400 C 400.000 0.134,333.067 0.000,200.000 0.000 L 0.000 0.000 0.000 108.800 M0.000 511.200 L 0.000 744.000 191.600 744.000 C 313.004 744.000,383.200 743.860,383.200 743.618 C 383.200 743.408,382.525 743.123,381.700 742.985 C 380.875 742.847,379.390 742.498,378.400 742.211 C 376.486 741.655,372.840 740.641,370.200 739.932 C 369.320 739.695,367.790 739.275,366.800 738.999 C 365.810 738.722,363.830 738.173,362.400 737.778 C 359.180 736.891,339.401 730.358,336.400 729.192 C 335.190 728.721,333.622 728.164,332.914 727.953 C 332.207 727.743,331.522 727.397,331.391 727.185 C 331.260 726.973,330.749 726.800,330.256 726.800 C 329.763 726.800,329.189 726.649,328.980 726.465 C 328.771 726.280,326.274 725.265,323.430 724.210 C 320.587 723.154,317.222 721.775,315.953 721.145 C 314.683 720.515,313.469 720.000,313.255 720.000 C 313.040 720.000,312.265 719.700,311.532 719.332 C 309.538 718.333,309.218 718.191,305.361 716.601 C 302.064 715.242,279.901 704.315,279.000 703.604 C 278.780 703.431,277.160 702.492,275.400 701.517 C 265.536 696.057,250.654 686.951,241.283 680.641 C 238.799 678.969,236.709 677.600,236.638 677.600 C 236.568 677.600,234.226 676.070,231.435 674.200 C 228.643 672.330,226.287 670.800,226.199 670.800 C 226.110 670.800,224.274 669.543,222.119 668.007 C 219.964 666.472,216.340 663.907,214.067 662.307 C 208.658 658.503,203.515 654.765,202.949 654.228 C 202.701 653.993,202.094 653.530,201.600 653.200 C 201.106 652.870,200.499 652.414,200.251 652.188 C 200.003 651.961,198.630 650.889,197.200 649.806 C 195.770 648.723,194.510 647.729,194.400 647.596 C 194.290 647.463,192.670 646.205,190.800 644.800 C 188.930 643.395,187.310 642.144,187.200 642.021 C 187.090 641.897,186.370 641.320,185.600 640.739 C 184.830 640.157,183.840 639.347,183.400 638.938 C 182.960 638.529,180.620 636.487,178.200 634.401 C 175.780 632.314,173.170 630.039,172.400 629.344 C 171.630 628.649,170.100 627.360,169.000 626.480 C 167.900 625.600,165.811 623.737,164.359 622.340 C 162.906 620.943,158.607 616.830,154.804 613.200 C 147.745 606.460,140.707 599.359,135.778 594.000 C 134.260 592.350,132.834 590.806,132.609 590.568 C 130.729 588.583,125.870 583.141,125.128 582.188 C 124.619 581.535,123.835 580.640,123.385 580.200 C 122.717 579.545,119.674 575.980,115.534 571.001 C 115.168 570.560,113.041 567.860,110.809 565.000 C 108.576 562.140,105.618 558.360,104.235 556.600 C 97.954 548.604,85.147 530.375,80.386 522.655 C 79.184 520.705,77.883 518.635,77.495 518.055 C 77.108 517.475,76.682 516.685,76.549 516.300 C 76.416 515.915,76.160 515.600,75.980 515.600 C 75.801 515.600,75.528 515.195,75.373 514.700 C 75.219 514.205,74.975 513.710,74.831 513.600 C 74.480 513.332,70.039 506.118,69.565 505.047 C 69.359 504.581,68.806 503.570,68.337 502.800 C 67.868 502.030,66.915 500.320,66.218 499.000 C 65.521 497.680,64.499 495.880,63.946 495.000 C 63.394 494.120,62.818 493.130,62.667 492.800 C 62.517 492.470,62.006 491.570,61.532 490.800 C 59.525 487.537,47.811 464.327,46.190 460.400 C 45.599 458.970,44.702 456.900,44.197 455.800 C 43.691 454.700,43.009 453.170,42.681 452.400 C 42.352 451.630,41.515 449.740,40.820 448.200 C 38.768 443.648,37.994 441.834,36.983 439.200 C 36.602 438.210,36.069 436.860,35.796 436.200 C 35.524 435.540,34.979 434.100,34.585 433.000 C 34.190 431.900,33.718 430.829,33.534 430.620 C 33.350 430.411,33.200 429.988,33.200 429.680 C 33.200 429.373,32.954 428.554,32.654 427.860 C 32.120 426.626,31.319 424.599,30.101 421.400 C 29.766 420.520,29.246 419.233,28.946 418.540 C 28.646 417.846,28.400 416.912,28.400 416.463 C 28.400 416.014,28.236 415.546,28.035 415.422 C 27.834 415.297,27.548 414.478,27.400 413.600 C 27.252 412.722,26.966 411.903,26.765 411.778 C 26.564 411.654,26.400 411.186,26.400 410.737 C 26.400 410.288,26.153 409.354,25.851 408.660 C 25.549 407.967,24.214 403.980,22.885 399.800 C 20.694 392.911,20.095 390.889,18.734 385.800 C 18.499 384.920,18.069 383.390,17.780 382.400 C 17.490 381.410,16.950 379.430,16.581 378.000 C 16.211 376.570,15.674 374.590,15.386 373.600 C 13.917 368.542,13.600 367.243,13.600 366.291 C 13.600 365.720,13.405 364.745,13.166 364.126 C 12.927 363.507,12.576 362.190,12.387 361.200 C 11.749 357.860,11.225 355.407,10.850 354.000 C 10.105 351.206,9.307 347.057,7.384 336.000 C 7.021 333.910,6.471 330.963,6.162 329.451 C 5.853 327.939,5.600 326.121,5.600 325.411 C 5.600 324.700,5.422 323.598,5.205 322.960 C 4.988 322.322,4.633 320.090,4.417 318.000 C 3.713 311.197,3.186 306.650,2.796 304.000 C 2.090 299.213,1.197 289.454,0.956 283.900 C 0.825 280.875,0.556 278.400,0.359 278.400 C 0.147 278.400,0.000 373.981,0.000 511.200 " stroke="none" fill="#fbfbfb" fill-rule="evenodd"></path><path id="path2" d="M63.949 1.900 C 63.633 2.285,62.993 3.320,62.527 4.200 C 62.060 5.080,61.302 6.430,60.843 7.200 C 60.383 7.970,59.902 8.870,59.774 9.200 C 59.646 9.530,59.344 10.160,59.102 10.600 C 57.717 13.118,48.404 31.822,47.631 33.637 C 47.125 34.827,46.265 36.790,45.720 38.000 C 44.228 41.318,43.634 42.658,43.021 44.094 C 42.714 44.812,41.981 46.480,41.391 47.800 C 40.801 49.120,40.072 50.788,39.770 51.506 C 39.469 52.224,38.969 53.394,38.661 54.106 C 38.353 54.818,37.794 56.210,37.419 57.200 C 37.043 58.190,36.481 59.510,36.168 60.132 C 35.856 60.755,35.600 61.600,35.600 62.009 C 35.600 62.418,35.434 62.855,35.231 62.981 C 35.028 63.106,34.743 63.749,34.598 64.409 C 34.351 65.534,33.631 67.304,32.774 68.895 C 32.568 69.277,32.400 69.789,32.400 70.034 C 32.400 70.279,32.154 71.046,31.854 71.740 C 30.749 74.293,30.020 76.293,28.770 80.200 C 28.066 82.400,27.245 84.767,26.945 85.460 C 26.645 86.154,26.400 87.088,26.400 87.537 C 26.400 87.986,26.240 88.451,26.045 88.572 C 25.850 88.693,25.564 89.468,25.410 90.296 C 25.255 91.123,25.002 91.980,24.848 92.200 C 24.694 92.420,24.240 93.680,23.840 95.000 C 23.440 96.320,22.886 98.030,22.609 98.800 C 22.333 99.570,21.801 101.280,21.428 102.600 C 21.055 103.920,20.561 105.540,20.332 106.200 C 20.102 106.860,19.765 108.120,19.583 109.000 C 19.120 111.240,18.356 114.053,17.954 115.000 C 17.632 115.757,17.296 117.043,16.333 121.200 C 16.103 122.190,15.755 123.171,15.558 123.380 C 15.361 123.589,15.201 124.309,15.202 124.980 C 15.203 125.651,14.948 127.010,14.635 128.000 C 14.322 128.990,13.770 131.240,13.407 133.000 C 13.044 134.760,12.489 137.116,12.174 138.235 C 11.858 139.354,11.600 140.761,11.600 141.361 C 11.600 141.962,11.426 142.777,11.214 143.174 C 11.001 143.571,10.630 144.955,10.388 146.248 C 9.011 153.620,8.726 155.239,8.384 157.600 C 8.177 159.030,7.826 160.722,7.604 161.360 C 7.382 161.998,7.202 163.078,7.205 163.760 C 7.208 164.442,6.947 166.260,6.625 167.800 C 5.732 172.070,4.788 178.412,4.780 180.200 C 4.775 181.080,4.515 182.970,4.200 184.400 C 3.885 185.830,3.614 187.990,3.597 189.200 C 3.579 190.410,3.393 192.210,3.182 193.200 C 2.785 195.066,2.374 200.013,1.454 213.981 C 1.102 219.330,0.757 222.214,0.458 222.314 C -0.177 222.526,-0.201 272.266,0.434 272.478 C 0.708 272.569,1.080 276.223,1.446 282.411 C 2.210 295.341,2.676 300.701,3.183 302.397 C 3.412 303.166,3.606 304.966,3.614 306.397 C 3.622 307.829,3.885 310.170,4.200 311.600 C 4.515 313.030,4.775 314.920,4.780 315.800 C 4.789 317.739,5.815 324.479,6.616 327.866 C 6.937 329.222,7.200 330.965,7.200 331.740 C 7.200 332.514,7.383 333.630,7.607 334.219 C 7.831 334.808,8.183 336.575,8.390 338.145 C 8.985 342.676,9.549 346.087,9.951 347.600 C 10.156 348.370,10.624 350.440,10.992 352.200 C 11.360 353.960,11.903 356.390,12.200 357.600 C 12.497 358.810,13.038 361.240,13.403 363.000 C 13.768 364.760,14.321 367.116,14.633 368.235 C 14.945 369.354,15.200 370.713,15.200 371.255 C 15.200 371.797,15.361 372.411,15.558 372.620 C 15.755 372.829,16.102 373.810,16.329 374.800 C 16.870 377.154,17.758 380.460,18.584 383.200 C 18.950 384.410,19.398 386.120,19.581 387.000 C 19.764 387.880,20.098 389.140,20.323 389.800 C 20.548 390.460,20.908 391.630,21.123 392.400 C 21.610 394.146,25.574 406.713,25.981 407.800 C 26.678 409.662,27.292 411.478,27.604 412.600 C 27.986 413.973,29.753 419.073,30.618 421.300 C 30.938 422.125,31.494 423.565,31.854 424.500 C 32.214 425.435,32.754 426.767,33.054 427.460 C 33.354 428.154,33.600 428.891,33.600 429.099 C 33.600 429.465,34.461 431.476,35.226 432.895 C 35.432 433.277,35.600 433.879,35.600 434.233 C 35.600 434.587,35.851 435.354,36.157 435.938 C 36.463 436.522,37.020 437.810,37.394 438.800 C 37.768 439.790,38.327 441.185,38.637 441.900 C 39.710 444.377,40.318 445.805,40.723 446.800 C 41.262 448.124,44.103 454.416,46.159 458.839 C 46.732 460.070,47.200 461.212,47.200 461.377 C 47.200 461.614,53.430 474.275,54.789 476.800 C 54.967 477.130,55.447 478.120,55.856 479.000 C 56.265 479.880,56.692 480.690,56.805 480.800 C 56.917 480.910,57.772 482.530,58.704 484.400 C 59.636 486.270,60.933 488.700,61.586 489.800 C 62.239 490.900,63.184 492.653,63.687 493.695 C 64.335 495.040,64.774 495.520,65.200 495.349 C 66.754 494.728,67.202 494.741,67.462 495.417 C 67.642 495.887,67.450 496.354,66.890 496.808 L 66.046 497.491 66.889 499.245 C 67.352 500.210,67.951 501.270,68.220 501.600 C 68.488 501.930,69.373 503.460,70.186 505.000 C 71.908 508.265,72.515 509.324,72.823 509.600 C 72.945 509.710,74.025 511.385,75.223 513.321 C 76.420 515.258,77.670 517.274,78.000 517.802 C 78.330 518.330,79.301 519.896,80.157 521.281 C 83.346 526.440,92.227 539.496,97.044 546.107 C 98.450 548.037,99.600 549.783,99.600 549.988 C 99.600 550.193,99.825 550.504,100.100 550.680 C 100.375 550.856,101.496 552.170,102.592 553.600 C 103.687 555.030,104.992 556.648,105.492 557.196 C 105.991 557.744,106.400 558.316,106.400 558.467 C 106.400 558.619,106.632 558.981,106.916 559.271 C 107.200 559.562,108.584 561.330,109.993 563.200 C 111.402 565.070,112.671 566.690,112.814 566.800 C 112.957 566.910,113.751 567.900,114.579 569.000 C 115.406 570.100,116.652 571.630,117.348 572.400 C 118.044 573.170,119.330 574.700,120.207 575.800 C 121.083 576.900,122.542 578.610,123.449 579.600 C 125.940 582.320,126.800 583.284,129.200 586.047 C 133.909 591.469,144.889 602.911,151.181 608.953 C 153.041 610.739,156.439 614.000,158.733 616.200 C 161.026 618.400,163.644 620.923,164.551 621.807 C 165.458 622.691,167.364 624.401,168.787 625.607 C 171.045 627.521,173.513 629.682,174.956 631.009 C 175.200 631.233,175.902 631.805,176.516 632.279 C 177.885 633.336,182.118 637.032,183.549 638.419 C 184.127 638.979,186.490 640.865,188.800 642.609 C 191.110 644.353,193.360 646.084,193.800 646.456 C 194.240 646.828,196.130 648.323,198.000 649.779 C 199.870 651.234,201.720 652.692,202.110 653.018 C 202.501 653.343,204.571 654.857,206.710 656.381 C 208.850 657.906,210.886 659.388,211.235 659.676 C 212.089 660.380,213.268 661.146,214.000 661.472 C 214.330 661.619,214.744 661.978,214.920 662.270 C 215.096 662.561,215.501 662.800,215.820 662.800 C 216.139 662.800,216.400 662.980,216.400 663.200 C 216.400 663.420,216.805 663.595,217.300 663.588 C 218.175 663.576,218.178 663.563,217.400 663.122 C 216.960 662.873,216.510 662.550,216.400 662.406 C 216.290 662.261,214.940 661.174,213.400 659.990 C 211.860 658.805,209.970 657.264,209.200 656.564 C 208.430 655.865,206.245 653.967,204.345 652.346 C 181.000 632.436,159.422 609.834,142.533 587.600 C 140.611 585.070,138.919 582.910,138.773 582.800 C 138.499 582.593,129.711 570.313,129.000 569.141 C 128.780 568.779,126.999 566.079,125.042 563.141 C 123.086 560.204,120.909 556.900,120.205 555.800 C 119.501 554.700,117.930 552.270,116.715 550.400 C 113.908 546.082,108.400 536.549,108.400 536.010 C 108.400 535.784,108.259 535.600,108.088 535.600 C 107.916 535.600,107.567 535.105,107.312 534.500 C 107.057 533.895,106.117 532.140,105.223 530.600 C 104.330 529.060,101.060 522.670,97.958 516.400 C 92.859 506.092,91.452 503.169,89.776 499.400 C 89.482 498.740,88.783 497.176,88.221 495.925 C 87.660 494.673,87.200 493.556,87.200 493.443 C 87.200 493.329,86.670 492.103,86.022 490.718 C 85.374 489.333,84.015 486.040,83.002 483.400 C 81.989 480.760,80.879 477.880,80.535 477.000 C 80.191 476.120,79.636 474.680,79.301 473.800 C 78.966 472.920,78.446 471.633,78.146 470.940 C 77.846 470.246,77.600 469.479,77.600 469.234 C 77.600 468.989,77.429 468.477,77.219 468.095 C 77.010 467.713,76.269 465.600,75.573 463.400 C 74.877 461.200,74.075 458.770,73.790 458.000 C 73.084 456.089,69.806 445.533,69.039 442.697 C 68.696 441.431,68.124 439.361,67.768 438.097 C 67.412 436.834,66.975 435.260,66.797 434.600 C 66.619 433.940,66.197 432.410,65.858 431.200 C 65.276 429.118,64.811 427.197,63.366 420.902 C 63.025 419.416,62.563 417.499,62.340 416.643 C 62.117 415.787,61.786 414.257,61.605 413.243 C 61.424 412.229,60.990 410.140,60.641 408.600 C 60.292 407.060,59.821 404.630,59.596 403.200 C 59.371 401.770,59.021 399.790,58.819 398.800 C 58.616 397.810,58.158 395.200,57.801 393.000 C 57.445 390.800,56.968 388.046,56.743 386.881 C 56.518 385.716,56.175 383.196,55.980 381.281 C 55.313 374.734,54.430 367.525,54.211 366.834 C 54.091 366.455,53.816 363.367,53.601 359.972 C 53.385 356.578,53.013 351.460,52.772 348.600 C 52.189 341.652,52.168 305.550,52.743 297.000 C 53.576 284.614,53.969 279.828,54.371 277.200 C 54.589 275.770,55.056 272.170,55.407 269.200 C 55.759 266.230,56.225 262.630,56.443 261.200 C 56.661 259.770,57.010 257.347,57.219 255.817 C 57.428 254.286,57.713 252.673,57.853 252.233 C 57.993 251.793,58.250 250.436,58.425 249.217 C 58.906 245.866,59.843 240.556,60.547 237.200 C 61.193 234.115,61.479 232.854,63.623 223.600 C 64.311 220.630,65.016 217.570,65.190 216.800 C 65.364 216.030,65.815 214.320,66.193 213.000 C 66.571 211.680,67.121 209.700,67.416 208.600 C 69.687 200.113,71.662 193.630,73.813 187.600 C 74.088 186.830,74.627 185.120,75.012 183.800 C 75.397 182.480,75.848 181.040,76.014 180.600 C 76.180 180.160,76.622 178.900,76.996 177.800 C 77.371 176.700,78.482 173.730,79.465 171.200 C 82.102 164.416,82.455 163.524,83.054 162.140 C 83.354 161.446,83.600 160.679,83.600 160.434 C 83.600 160.189,83.771 159.677,83.981 159.295 C 84.190 158.913,84.655 157.880,85.014 157.000 C 85.373 156.120,85.817 155.112,85.999 154.761 C 86.182 154.409,87.090 152.339,88.017 150.161 C 88.944 147.982,90.104 145.300,90.595 144.200 C 91.086 143.100,91.918 141.212,92.444 140.004 C 93.484 137.616,102.521 119.597,103.982 117.000 C 104.477 116.120,105.493 114.386,106.241 113.148 C 106.988 111.909,107.600 110.790,107.600 110.662 C 107.600 110.475,110.601 105.298,112.388 102.400 C 112.592 102.070,113.138 101.101,113.601 100.246 C 114.337 98.889,115.890 96.429,119.946 90.200 C 120.519 89.320,121.170 88.300,121.394 87.933 C 123.257 84.873,126.545 79.894,129.009 76.400 C 130.639 74.090,132.630 71.237,133.434 70.060 C 135.327 67.288,145.722 53.534,146.981 52.135 C 147.212 51.879,147.850 51.075,148.400 50.348 C 155.836 40.527,180.317 14.434,191.302 4.621 C 193.462 2.692,194.252 1.753,193.902 1.531 C 192.722 0.782,64.569 1.146,63.949 1.900 " stroke="none" fill="#fc5454" fill-rule="evenodd"></path><path id="path3" d="M397.000 50.644 C 392.740 51.667,391.825 51.913,390.400 52.417 C 389.630 52.690,388.370 53.138,387.600 53.411 C 384.056 54.672,379.709 56.083,378.800 56.269 C 378.250 56.381,377.233 56.727,376.540 57.036 C 375.846 57.346,375.079 57.600,374.834 57.600 C 374.589 57.600,374.077 57.759,373.695 57.953 C 373.313 58.147,371.830 58.676,370.400 59.129 C 367.065 60.186,365.296 60.801,363.800 61.425 C 363.140 61.701,361.835 62.213,360.900 62.563 C 357.811 63.721,355.816 64.502,354.540 65.054 C 353.846 65.354,353.098 65.600,352.876 65.600 C 352.655 65.600,351.512 66.066,350.337 66.636 C 349.162 67.206,347.660 67.902,347.000 68.183 C 346.340 68.463,345.170 68.975,344.400 69.321 C 343.630 69.667,342.100 70.343,341.000 70.823 C 334.935 73.470,318.762 81.734,315.200 84.005 C 314.870 84.216,314.060 84.653,313.400 84.976 C 312.740 85.299,310.940 86.298,309.400 87.195 C 307.860 88.092,306.150 89.042,305.600 89.305 C 305.050 89.568,304.510 89.888,304.400 90.014 C 304.290 90.141,302.615 91.225,300.679 92.423 C 298.742 93.620,296.737 94.870,296.224 95.200 C 295.710 95.530,293.785 96.750,291.945 97.912 C 289.034 99.750,287.006 101.125,283.800 103.435 C 283.360 103.752,281.740 104.901,280.200 105.987 C 278.660 107.074,277.183 108.151,276.917 108.381 C 276.651 108.612,276.323 108.800,276.188 108.800 C 276.053 108.800,275.648 109.095,275.287 109.456 C 274.926 109.817,272.914 111.392,270.815 112.956 C 268.717 114.520,266.820 116.001,266.600 116.246 C 266.380 116.492,265.210 117.415,264.000 118.299 C 262.790 119.182,261.260 120.390,260.600 120.984 C 259.940 121.578,258.230 123.016,256.800 124.180 C 255.370 125.345,253.567 126.906,252.793 127.649 C 252.019 128.392,249.500 130.710,247.197 132.800 C 238.456 140.730,226.312 153.220,219.196 161.600 C 217.313 163.817,214.164 167.412,213.600 167.988 C 213.270 168.325,212.108 169.770,211.019 171.200 C 209.929 172.630,208.931 173.890,208.800 174.000 C 208.669 174.110,207.682 175.370,206.607 176.800 C 205.531 178.230,204.189 179.957,203.625 180.637 C 203.061 181.317,202.330 182.284,202.000 182.786 C 201.670 183.288,201.208 183.901,200.973 184.149 C 200.739 184.397,200.200 185.140,199.777 185.800 C 198.952 187.085,193.487 194.679,192.808 195.483 C 192.584 195.749,192.400 196.083,192.400 196.226 C 192.400 196.368,191.860 197.167,191.200 198.000 C 190.540 198.833,190.000 199.643,190.000 199.800 C 190.000 199.956,189.460 200.884,188.800 201.862 C 188.140 202.840,187.600 203.796,187.600 203.987 C 187.600 204.177,187.456 204.393,187.279 204.467 C 187.006 204.580,184.777 207.972,183.384 210.392 C 183.156 210.790,182.775 211.359,182.537 211.657 C 182.130 212.170,180.593 214.880,178.941 218.000 C 178.534 218.770,178.106 219.490,177.992 219.600 C 177.877 219.710,177.568 220.250,177.305 220.800 C 177.042 221.350,176.098 223.060,175.208 224.600 C 174.318 226.140,172.569 229.470,171.320 232.000 C 170.072 234.530,168.904 236.660,168.725 236.733 C 168.546 236.807,168.400 237.190,168.400 237.584 C 168.400 237.979,168.130 238.526,167.800 238.800 C 167.470 239.074,167.200 239.577,167.200 239.917 C 167.200 240.258,166.960 240.821,166.667 241.169 C 166.374 241.516,165.720 242.790,165.214 244.000 C 164.709 245.210,163.858 247.190,163.325 248.400 C 162.791 249.610,162.196 250.960,162.003 251.400 C 161.809 251.840,161.099 253.428,160.425 254.928 C 159.751 256.428,159.200 257.891,159.200 258.179 C 159.200 258.467,158.930 258.926,158.600 259.200 C 158.270 259.474,158.000 260.115,158.000 260.625 C 158.000 261.135,157.840 261.652,157.644 261.773 C 157.449 261.894,157.172 262.489,157.031 263.096 C 156.889 263.703,156.525 264.740,156.223 265.400 C 155.921 266.060,155.366 267.410,154.989 268.400 C 154.612 269.390,154.146 270.560,153.953 271.000 C 153.352 272.373,151.549 277.342,151.196 278.600 C 151.011 279.260,150.202 281.600,149.399 283.800 C 148.596 286.000,147.847 288.250,147.733 288.800 C 147.620 289.350,147.273 290.367,146.964 291.060 C 146.654 291.754,146.400 292.778,146.400 293.337 C 146.400 293.896,146.237 294.454,146.037 294.577 C 145.838 294.700,145.551 295.700,145.400 296.800 C 145.249 297.900,144.962 298.900,144.763 299.023 C 144.563 299.146,144.401 299.642,144.402 300.124 C 144.403 300.606,144.150 301.810,143.839 302.800 C 143.125 305.078,142.232 308.320,141.471 311.400 C 141.145 312.720,140.655 314.700,140.383 315.800 C 140.111 316.900,139.742 318.610,139.563 319.600 C 138.930 323.098,138.312 325.807,138.007 326.416 C 137.837 326.755,137.566 328.375,137.405 330.016 C 137.243 331.657,136.976 333.180,136.810 333.400 C 136.645 333.620,136.402 335.014,136.270 336.498 C 136.138 337.982,135.844 339.545,135.615 339.971 C 135.387 340.398,135.197 341.614,135.194 342.674 C 135.190 343.733,134.927 345.680,134.608 347.000 C 134.289 348.320,134.022 350.329,134.014 351.465 C 134.006 352.600,133.730 354.940,133.400 356.665 C 133.070 358.389,132.800 360.849,132.800 362.132 C 132.800 363.415,132.543 366.565,132.229 369.132 C 131.778 372.816,131.046 390.002,131.059 396.600 C 131.074 404.043,131.788 421.194,132.232 424.783 C 132.545 427.304,132.800 430.385,132.800 431.629 C 132.800 432.873,132.988 434.860,133.219 436.045 C 133.449 437.230,133.801 439.820,134.001 441.800 C 134.514 446.879,135.161 451.363,135.828 454.457 C 136.142 455.919,136.400 457.766,136.400 458.563 C 136.400 459.359,136.574 460.323,136.787 460.705 C 137.000 461.087,137.351 462.660,137.567 464.200 C 138.181 468.582,138.793 471.639,139.214 472.426 C 139.426 472.823,139.600 473.705,139.600 474.387 C 139.600 475.068,139.870 476.272,140.200 477.062 C 140.530 477.851,140.800 478.955,140.800 479.514 C 140.800 480.072,141.087 481.536,141.437 482.765 C 142.190 485.403,143.078 488.622,143.820 491.400 C 144.114 492.500,144.635 494.366,144.978 495.546 C 145.320 496.726,145.600 497.944,145.600 498.251 C 145.600 498.559,145.758 499.123,145.950 499.505 C 146.143 499.887,146.613 501.280,146.994 502.600 C 147.376 503.920,147.924 505.630,148.212 506.400 C 148.501 507.170,149.044 508.790,149.420 510.000 C 150.079 512.120,150.514 513.405,151.589 516.400 C 151.865 517.170,152.181 518.295,152.291 518.900 C 152.401 519.505,152.650 520.000,152.845 520.000 C 153.040 520.000,153.200 520.288,153.200 520.640 C 153.200 520.991,153.446 521.846,153.746 522.540 C 154.378 524.001,155.041 525.683,156.842 530.400 C 157.556 532.270,158.578 534.790,159.114 536.000 C 159.650 537.210,160.362 538.830,160.698 539.600 C 161.034 540.370,161.835 542.170,162.478 543.600 C 163.121 545.030,163.884 546.740,164.173 547.400 C 164.462 548.060,166.358 551.930,168.387 556.000 C 172.371 563.995,174.417 567.881,178.286 574.800 C 178.593 575.350,179.192 576.340,179.616 577.000 C 180.041 577.660,180.575 578.629,180.804 579.152 C 181.033 579.676,181.620 580.662,182.110 581.344 C 183.177 582.831,183.506 583.376,184.771 585.766 C 185.305 586.775,185.869 587.600,186.024 587.600 C 186.180 587.600,186.421 587.915,186.560 588.300 C 186.861 589.132,187.261 589.790,189.503 593.128 C 190.436 594.519,191.200 595.741,191.200 595.845 C 191.200 595.949,191.388 596.251,191.617 596.517 C 191.846 596.783,193.331 598.833,194.917 601.073 C 201.843 610.857,203.007 612.472,203.597 613.117 C 203.941 613.493,204.660 614.430,205.196 615.200 C 205.732 615.970,206.382 616.780,206.641 617.000 C 206.899 617.220,207.959 618.570,208.996 620.000 C 210.032 621.430,210.997 622.690,211.140 622.800 C 211.283 622.910,212.120 623.900,212.999 625.000 C 215.250 627.814,216.056 628.771,217.200 629.987 C 217.750 630.571,219.094 632.118,220.187 633.425 C 222.215 635.849,224.187 637.995,228.800 642.796 C 230.230 644.285,232.502 646.650,233.849 648.052 C 238.806 653.210,247.880 661.766,254.000 667.053 C 257.656 670.211,258.130 670.627,259.550 671.914 C 260.348 672.636,261.765 673.792,262.700 674.481 C 263.635 675.171,264.400 675.885,264.400 676.068 C 264.400 676.251,264.579 676.400,264.797 676.400 C 265.015 676.400,265.600 676.746,266.097 677.168 C 268.128 678.896,274.648 683.902,276.750 685.346 C 277.988 686.196,279.090 687.006,279.200 687.146 C 279.310 687.286,279.700 687.580,280.067 687.800 C 281.590 688.713,285.548 691.456,287.628 693.039 C 289.770 694.670,291.936 696.083,293.200 696.673 C 293.530 696.827,294.887 697.695,296.215 698.601 C 297.544 699.508,298.894 700.380,299.215 700.540 C 299.949 700.906,300.811 701.441,303.681 703.312 C 304.935 704.131,306.137 704.800,306.352 704.800 C 306.567 704.800,306.981 705.025,307.271 705.300 C 307.562 705.575,308.610 706.215,309.600 706.723 C 310.590 707.230,312.300 708.181,313.400 708.836 C 314.500 709.491,315.850 710.242,316.400 710.505 C 316.950 710.768,317.490 711.077,317.600 711.192 C 317.805 711.405,319.637 712.364,324.845 714.986 C 326.470 715.804,328.070 716.621,328.400 716.802 C 328.730 716.983,330.620 717.936,332.600 718.919 C 335.847 720.532,337.186 721.157,342.600 723.591 C 343.480 723.987,345.190 724.760,346.400 725.310 C 351.621 727.681,352.378 728.000,352.778 728.000 C 353.010 728.000,353.200 728.180,353.200 728.400 C 353.200 728.620,353.578 728.800,354.040 728.800 C 354.501 728.800,355.446 729.046,356.140 729.346 C 356.833 729.646,358.210 730.200,359.200 730.578 C 360.190 730.955,361.510 731.519,362.132 731.832 C 362.755 732.144,363.600 732.400,364.009 732.400 C 364.418 732.400,364.848 732.554,364.964 732.742 C 365.080 732.930,366.396 733.481,367.888 733.966 C 369.379 734.452,370.960 735.003,371.400 735.191 C 371.840 735.378,373.190 735.837,374.400 736.210 C 375.610 736.583,377.140 737.114,377.800 737.391 C 378.460 737.668,380.350 738.306,382.000 738.808 C 383.650 739.310,385.180 739.852,385.400 740.013 C 385.620 740.174,386.430 740.394,387.200 740.502 C 387.970 740.611,389.140 740.887,389.800 741.117 C 392.969 742.218,395.078 742.804,395.871 742.802 C 396.351 742.801,397.013 743.070,397.343 743.400 C 397.673 743.730,398.406 744.000,398.971 744.000 L 400.000 744.000 400.000 397.000 C 400.000 206.150,399.865 50.015,399.700 50.034 C 399.535 50.052,398.320 50.326,397.000 50.644 " stroke="none" fill="#3c4454" fill-rule="evenodd"></path><path id="path4" d="M398.303 49.430 C 398.177 49.557,397.022 49.901,395.737 50.195 C 391.932 51.067,389.292 51.882,386.486 53.052 C 385.764 53.354,384.840 53.600,384.432 53.600 C 384.025 53.600,383.176 53.869,382.546 54.198 C 381.916 54.526,381.031 54.796,380.580 54.798 C 380.129 54.799,379.589 54.943,379.380 55.118 C 379.171 55.293,377.920 55.762,376.600 56.160 C 375.280 56.559,373.751 57.062,373.202 57.278 C 372.654 57.495,370.944 58.094,369.402 58.610 C 367.861 59.126,365.610 59.933,364.400 60.404 C 363.190 60.875,361.750 61.416,361.200 61.607 C 358.533 62.534,357.191 63.076,356.941 63.326 C 356.790 63.477,356.382 63.601,356.033 63.602 C 355.685 63.604,354.884 63.874,354.254 64.202 C 353.624 64.531,352.918 64.800,352.686 64.800 C 352.453 64.800,351.079 65.351,349.632 66.024 C 346.808 67.337,345.724 67.827,342.600 69.205 C 340.493 70.135,318.630 80.967,317.600 81.592 C 314.783 83.301,310.776 85.600,310.614 85.600 C 310.504 85.600,309.286 86.287,307.907 87.126 C 306.528 87.965,305.130 88.775,304.800 88.925 C 304.470 89.075,302.850 90.091,301.200 91.182 C 299.550 92.274,297.435 93.566,296.500 94.054 C 295.565 94.542,294.800 95.069,294.800 95.224 C 294.800 95.380,294.485 95.612,294.100 95.742 C 293.365 95.989,293.283 96.039,289.423 98.621 C 284.104 102.181,271.184 111.561,270.071 112.672 C 269.781 112.963,269.419 113.200,269.267 113.200 C 269.116 113.200,268.544 113.610,267.996 114.111 C 267.448 114.612,265.830 115.908,264.400 116.992 C 262.970 118.076,261.710 119.062,261.600 119.183 C 261.490 119.304,260.122 120.424,258.559 121.671 C 256.996 122.919,255.466 124.184,255.159 124.484 C 254.852 124.784,252.710 126.723,250.400 128.794 C 242.112 136.222,228.019 150.243,222.800 156.251 C 220.550 158.842,217.061 162.848,216.262 163.759 C 215.856 164.221,214.866 165.393,214.062 166.363 C 213.258 167.333,212.317 168.413,211.971 168.763 C 211.625 169.113,210.464 170.570,209.390 172.000 C 208.316 173.430,207.331 174.690,207.200 174.800 C 207.069 174.910,206.077 176.170,204.994 177.600 C 203.911 179.030,202.782 180.450,202.485 180.756 C 202.188 181.062,201.644 181.782,201.276 182.356 C 200.907 182.930,200.465 183.580,200.292 183.800 C 198.678 185.852,195.200 190.888,195.200 191.172 C 195.200 191.371,195.037 191.593,194.838 191.667 C 194.509 191.788,188.400 200.666,188.400 201.023 C 188.400 201.108,187.877 201.947,187.238 202.888 C 185.376 205.630,181.750 211.346,181.459 212.000 C 181.312 212.330,180.845 213.140,180.423 213.800 C 179.637 215.028,179.050 216.066,176.858 220.102 C 175.627 222.368,174.283 224.676,173.297 226.215 C 173.021 226.647,172.688 227.270,172.556 227.600 C 172.425 227.930,171.227 230.360,169.893 233.000 C 168.560 235.640,166.758 239.240,165.889 241.000 C 164.394 244.028,163.946 244.998,162.618 248.094 C 162.015 249.498,160.883 252.081,159.327 255.600 C 158.792 256.810,158.168 258.250,157.940 258.800 C 157.712 259.350,157.273 260.310,156.963 260.932 C 156.653 261.555,156.400 262.306,156.400 262.600 C 156.400 262.894,156.141 263.645,155.824 264.268 C 154.911 266.064,154.000 268.286,154.000 268.715 C 154.000 268.931,153.731 269.624,153.402 270.254 C 153.074 270.884,152.804 271.679,152.802 272.020 C 152.801 272.361,152.642 272.811,152.449 273.020 C 152.256 273.229,151.711 274.570,151.238 276.000 C 150.764 277.430,150.229 278.960,150.048 279.400 C 149.273 281.287,148.694 283.081,148.499 284.200 C 148.384 284.860,148.045 285.755,147.745 286.189 C 147.445 286.623,147.200 287.367,147.200 287.843 C 147.200 288.319,146.931 289.224,146.602 289.854 C 146.274 290.484,146.004 291.394,146.002 291.876 C 146.001 292.358,145.837 292.854,145.637 292.977 C 145.438 293.100,145.151 294.100,145.000 295.200 C 144.849 296.300,144.562 297.300,144.363 297.423 C 144.163 297.546,144.000 297.976,144.000 298.378 C 144.000 298.779,143.720 300.074,143.378 301.254 C 143.035 302.434,142.482 304.390,142.149 305.600 C 141.816 306.810,141.285 308.610,140.970 309.600 C 140.654 310.590,140.397 311.907,140.398 312.526 C 140.399 313.146,140.226 313.977,140.014 314.374 C 139.801 314.771,139.449 316.065,139.230 317.248 C 139.012 318.432,138.543 320.660,138.188 322.200 C 137.466 325.335,136.702 329.252,135.772 334.600 C 135.427 336.580,134.878 339.730,134.551 341.600 C 134.224 343.470,133.790 346.710,133.586 348.800 C 133.382 350.890,133.036 353.320,132.817 354.200 C 132.598 355.080,132.415 356.736,132.410 357.880 C 132.404 359.024,132.219 360.824,131.999 361.880 C 129.983 371.525,129.962 422.905,131.970 431.619 C 132.196 432.598,132.391 434.480,132.404 435.800 C 132.418 437.120,132.689 439.280,133.008 440.600 C 133.327 441.920,133.591 444.080,133.596 445.400 C 133.601 446.720,133.785 448.452,134.007 449.248 C 134.228 450.044,134.588 451.934,134.806 453.448 C 135.301 456.879,136.384 462.917,138.025 471.400 C 138.280 472.720,138.649 473.971,138.844 474.180 C 139.040 474.389,139.208 475.199,139.218 475.980 C 139.227 476.761,139.495 478.120,139.812 479.000 C 140.129 479.880,140.391 481.073,140.394 481.651 C 140.397 482.229,140.670 483.349,141.000 484.138 C 141.330 484.928,141.600 486.084,141.600 486.707 C 141.600 487.330,141.778 488.018,141.996 488.236 C 142.215 488.455,142.562 489.436,142.769 490.416 C 143.399 493.403,144.037 495.766,144.394 496.441 C 144.581 496.794,144.859 497.921,145.013 498.946 C 145.167 499.971,145.452 500.908,145.646 501.029 C 145.841 501.149,146.001 501.642,146.002 502.124 C 146.004 502.606,146.274 503.516,146.602 504.146 C 146.931 504.776,147.200 505.535,147.200 505.832 C 147.200 506.130,147.452 506.964,147.761 507.686 C 148.069 508.409,148.634 510.080,149.017 511.400 C 149.399 512.720,149.862 514.160,150.044 514.600 C 150.227 515.040,150.764 516.570,151.238 518.000 C 151.711 519.430,152.256 520.771,152.449 520.980 C 152.642 521.189,152.800 521.612,152.800 521.920 C 152.800 522.493,153.602 524.520,154.624 526.532 C 154.941 527.155,155.200 527.976,155.200 528.356 C 155.200 528.736,155.464 529.396,155.787 529.824 C 156.110 530.251,156.380 530.917,156.387 531.305 C 156.394 531.693,156.569 532.323,156.775 532.705 C 157.152 533.405,158.632 536.713,159.232 538.200 C 159.551 538.992,160.664 541.528,162.392 545.400 C 162.883 546.500,163.519 547.940,163.806 548.600 C 165.338 552.126,171.727 564.589,172.077 564.733 C 172.255 564.807,172.400 565.201,172.400 565.610 C 172.400 566.018,172.564 566.454,172.765 566.579 C 172.966 566.703,173.540 567.658,174.041 568.702 C 174.541 569.746,175.603 571.680,176.401 573.000 C 177.199 574.320,177.977 575.670,178.129 576.000 C 178.282 576.330,178.784 577.230,179.244 578.000 C 179.705 578.770,180.998 580.930,182.118 582.800 C 183.237 584.670,184.299 586.260,184.477 586.333 C 184.655 586.407,184.800 586.695,184.800 586.973 C 184.800 587.252,185.340 588.225,186.000 589.137 C 186.660 590.048,187.200 590.871,187.200 590.966 C 187.200 591.061,188.277 592.727,189.593 594.669 C 190.910 596.611,192.215 598.540,192.493 598.955 C 192.772 599.370,193.720 600.721,194.600 601.958 C 195.480 603.195,196.830 605.150,197.600 606.302 C 198.370 607.455,199.135 608.399,199.300 608.399 C 199.465 608.400,199.600 608.575,199.600 608.788 C 199.600 609.002,200.676 610.577,201.991 612.288 C 208.331 620.541,209.324 621.814,209.571 622.000 C 209.718 622.110,210.727 623.370,211.813 624.800 C 212.900 626.230,214.153 627.760,214.598 628.200 C 215.579 629.172,217.647 631.544,219.800 634.170 C 220.680 635.243,223.299 638.118,225.619 640.560 C 227.940 643.002,231.180 646.440,232.819 648.200 C 236.849 652.526,251.622 666.305,255.457 669.314 C 256.078 669.801,257.499 671.048,258.614 672.085 C 260.612 673.943,264.527 677.070,267.751 679.383 C 268.658 680.033,269.652 680.813,269.961 681.115 C 270.270 681.418,271.530 682.403,272.761 683.305 C 273.992 684.206,275.090 685.058,275.200 685.196 C 275.310 685.335,276.835 686.428,278.588 687.624 C 280.342 688.821,281.962 689.935,282.188 690.101 C 285.252 692.338,288.036 694.257,291.000 696.175 C 292.980 697.456,295.320 698.973,296.200 699.546 C 297.080 700.119,298.110 700.770,298.489 700.994 C 298.868 701.217,300.668 702.327,302.489 703.460 C 304.310 704.593,306.790 706.054,308.000 706.707 C 309.210 707.359,310.830 708.268,311.600 708.725 C 313.039 709.580,313.309 709.732,317.400 712.000 C 320.730 713.845,337.762 722.356,340.857 723.722 C 342.256 724.339,343.985 725.104,344.700 725.422 C 345.415 725.740,346.585 726.259,347.300 726.576 C 348.015 726.893,349.784 727.703,351.232 728.376 C 352.679 729.049,354.076 729.600,354.337 729.600 C 354.598 729.600,355.123 729.762,355.505 729.959 C 355.887 730.156,357.010 730.621,358.000 730.991 C 358.990 731.361,360.310 731.919,360.932 732.232 C 361.555 732.544,362.263 732.800,362.505 732.800 C 362.911 732.800,367.688 734.594,370.660 735.862 C 371.354 736.158,372.288 736.400,372.737 736.400 C 373.186 736.400,373.664 736.580,373.800 736.800 C 373.936 737.020,374.352 737.201,374.724 737.202 C 375.096 737.204,375.916 737.474,376.546 737.802 C 377.176 738.131,377.959 738.400,378.285 738.400 C 378.612 738.400,379.446 738.640,380.140 738.934 C 382.116 739.772,384.077 740.449,385.600 740.819 C 387.722 741.334,390.865 742.270,392.126 742.761 C 392.745 743.003,393.690 743.200,394.226 743.200 C 394.762 743.200,395.200 743.380,395.200 743.600 C 395.200 743.820,395.740 744.000,396.400 744.000 C 397.904 744.000,397.975 743.290,396.500 742.996 C 395.076 742.713,391.336 741.668,389.800 741.124 C 389.140 740.891,387.970 740.611,387.200 740.502 C 386.430 740.394,385.620 740.174,385.400 740.013 C 385.180 739.852,383.650 739.310,382.000 738.808 C 380.350 738.306,378.460 737.668,377.800 737.391 C 377.140 737.114,375.610 736.583,374.400 736.210 C 373.190 735.837,371.840 735.378,371.400 735.191 C 370.960 735.003,369.379 734.452,367.888 733.966 C 366.396 733.481,365.080 732.930,364.964 732.742 C 364.848 732.554,364.418 732.400,364.009 732.400 C 363.600 732.400,362.755 732.144,362.132 731.832 C 361.510 731.519,360.190 730.955,359.200 730.578 C 358.210 730.200,356.833 729.646,356.140 729.346 C 355.446 729.046,354.501 728.800,354.040 728.800 C 353.578 728.800,353.200 728.620,353.200 728.400 C 353.200 728.180,353.010 728.000,352.778 728.000 C 352.380 728.000,351.578 727.662,346.500 725.354 C 345.345 724.829,343.365 723.934,342.100 723.364 C 340.835 722.794,338.990 721.962,338.000 721.514 C 336.236 720.716,329.584 717.451,328.400 716.802 C 328.070 716.621,326.470 715.804,324.845 714.986 C 319.637 712.364,317.805 711.405,317.600 711.192 C 317.490 711.077,316.950 710.768,316.400 710.505 C 315.850 710.242,314.500 709.491,313.400 708.836 C 312.300 708.181,310.590 707.230,309.600 706.723 C 308.610 706.215,307.562 705.575,307.271 705.300 C 306.981 705.025,306.567 704.800,306.352 704.800 C 306.137 704.800,304.935 704.131,303.681 703.312 C 300.811 701.441,299.949 700.906,299.215 700.540 C 298.894 700.380,297.544 699.508,296.215 698.601 C 294.887 697.695,293.530 696.827,293.200 696.673 C 291.936 696.083,289.770 694.670,287.628 693.039 C 285.548 691.456,281.590 688.713,280.067 687.800 C 279.700 687.580,279.310 687.286,279.200 687.146 C 279.090 687.006,277.988 686.196,276.750 685.346 C 274.648 683.902,268.128 678.896,266.097 677.168 C 265.600 676.746,265.015 676.400,264.797 676.400 C 264.579 676.400,264.400 676.251,264.400 676.068 C 264.400 675.885,263.635 675.171,262.700 674.481 C 261.765 673.792,260.348 672.636,259.550 671.914 C 258.130 670.627,257.656 670.211,254.000 667.053 C 247.880 661.766,238.806 653.210,233.849 648.052 C 232.502 646.650,230.230 644.285,228.800 642.796 C 224.187 637.995,222.215 635.849,220.187 633.425 C 219.094 632.118,217.750 630.571,217.200 629.987 C 216.056 628.771,215.250 627.814,212.999 625.000 C 212.120 623.900,211.283 622.910,211.140 622.800 C 210.997 622.690,210.032 621.430,208.996 620.000 C 207.959 618.570,206.899 617.220,206.641 617.000 C 206.382 616.780,205.732 615.970,205.196 615.200 C 204.660 614.430,203.941 613.493,203.597 613.117 C 203.007 612.472,201.843 610.857,194.917 601.073 C 193.331 598.833,191.846 596.783,191.617 596.517 C 191.388 596.251,191.200 595.949,191.200 595.845 C 191.200 595.741,190.436 594.519,189.503 593.128 C 187.261 589.790,186.861 589.132,186.560 588.300 C 186.421 587.915,186.180 587.600,186.024 587.600 C 185.869 587.600,185.305 586.775,184.771 585.766 C 183.506 583.376,183.177 582.831,182.110 581.344 C 181.620 580.662,181.033 579.676,180.804 579.152 C 180.575 578.629,180.043 577.660,179.621 577.000 C 179.200 576.340,178.454 575.080,177.964 574.200 C 177.474 573.320,176.819 572.150,176.509 571.600 C 173.917 567.009,165.713 550.916,164.173 547.400 C 163.884 546.740,163.121 545.030,162.478 543.600 C 161.835 542.170,161.034 540.370,160.698 539.600 C 160.362 538.830,159.650 537.210,159.114 536.000 C 158.578 534.790,157.556 532.270,156.842 530.400 C 155.041 525.683,154.378 524.001,153.746 522.540 C 153.446 521.846,153.200 520.991,153.200 520.640 C 153.200 520.288,153.040 520.000,152.845 520.000 C 152.650 520.000,152.401 519.505,152.291 518.900 C 152.181 518.295,151.865 517.170,151.589 516.400 C 150.514 513.405,150.079 512.120,149.420 510.000 C 149.044 508.790,148.501 507.170,148.212 506.400 C 147.924 505.630,147.376 503.920,146.994 502.600 C 146.613 501.280,146.143 499.887,145.950 499.505 C 145.758 499.123,145.600 498.559,145.600 498.251 C 145.600 497.944,145.320 496.726,144.978 495.546 C 144.347 493.372,143.589 490.635,142.612 487.000 C 142.317 485.900,141.788 483.994,141.437 482.765 C 141.087 481.536,140.800 480.072,140.800 479.514 C 140.800 478.955,140.530 477.851,140.200 477.062 C 139.870 476.272,139.600 475.068,139.600 474.387 C 139.600 473.705,139.426 472.823,139.214 472.426 C 138.793 471.639,138.181 468.582,137.567 464.200 C 137.351 462.660,137.000 461.087,136.787 460.705 C 136.574 460.323,136.400 459.359,136.400 458.563 C 136.400 457.766,136.142 455.919,135.828 454.457 C 135.161 451.363,134.514 446.879,134.001 441.800 C 133.801 439.820,133.449 437.230,133.219 436.045 C 132.988 434.860,132.800 432.873,132.800 431.629 C 132.800 430.385,132.545 427.304,132.232 424.783 C 131.788 421.194,131.074 404.043,131.059 396.600 C 131.046 390.002,131.778 372.816,132.229 369.132 C 132.543 366.565,132.800 363.415,132.800 362.132 C 132.800 360.849,133.070 358.389,133.400 356.665 C 133.730 354.940,134.006 352.600,134.014 351.465 C 134.022 350.329,134.289 348.320,134.608 347.000 C 134.927 345.680,135.190 343.733,135.194 342.674 C 135.197 341.614,135.387 340.398,135.615 339.971 C 135.844 339.545,136.138 337.982,136.270 336.498 C 136.402 335.014,136.645 333.620,136.810 333.400 C 136.976 333.180,137.243 331.657,137.405 330.016 C 137.566 328.375,137.837 326.755,138.007 326.416 C 138.312 325.807,138.930 323.098,139.563 319.600 C 139.742 318.610,140.111 316.900,140.383 315.800 C 140.655 314.700,141.145 312.720,141.471 311.400 C 142.232 308.320,143.125 305.078,143.839 302.800 C 144.150 301.810,144.403 300.606,144.402 300.124 C 144.401 299.642,144.563 299.146,144.763 299.023 C 144.962 298.900,145.249 297.900,145.400 296.800 C 145.551 295.700,145.838 294.700,146.037 294.577 C 146.237 294.454,146.400 293.896,146.400 293.337 C 146.400 292.778,146.654 291.754,146.964 291.060 C 147.273 290.367,147.620 289.350,147.733 288.800 C 147.847 288.250,148.596 286.000,149.399 283.800 C 150.202 281.600,151.011 279.260,151.196 278.600 C 151.549 277.342,153.352 272.373,153.953 271.000 C 154.146 270.560,154.612 269.390,154.989 268.400 C 155.366 267.410,155.921 266.060,156.223 265.400 C 156.525 264.740,156.889 263.703,157.031 263.096 C 157.172 262.489,157.449 261.894,157.644 261.773 C 157.840 261.652,158.000 261.135,158.000 260.625 C 158.000 260.115,158.270 259.474,158.600 259.200 C 158.930 258.926,159.200 258.467,159.200 258.179 C 159.200 257.891,159.751 256.428,160.425 254.928 C 161.099 253.428,161.809 251.840,162.003 251.400 C 162.196 250.960,162.791 249.610,163.325 248.400 C 163.858 247.190,164.709 245.210,165.214 244.000 C 165.720 242.790,166.374 241.516,166.667 241.169 C 166.960 240.821,167.200 240.258,167.200 239.917 C 167.200 239.577,167.470 239.074,167.800 238.800 C 168.130 238.526,168.400 237.979,168.400 237.584 C 168.400 237.190,168.546 236.807,168.725 236.733 C 168.904 236.660,170.072 234.530,171.320 232.000 C 172.569 229.470,174.318 226.140,175.208 224.600 C 176.098 223.060,177.042 221.350,177.305 220.800 C 177.568 220.250,177.877 219.710,177.992 219.600 C 178.106 219.490,178.534 218.770,178.941 218.000 C 180.593 214.880,182.130 212.170,182.537 211.657 C 182.775 211.359,183.156 210.790,183.384 210.392 C 184.777 207.972,187.006 204.580,187.279 204.467 C 187.456 204.393,187.600 204.177,187.600 203.987 C 187.600 203.796,188.140 202.840,188.800 201.862 C 189.460 200.884,190.000 199.956,190.000 199.800 C 190.000 199.643,190.540 198.833,191.200 198.000 C 191.860 197.167,192.400 196.368,192.400 196.226 C 192.400 196.083,192.584 195.749,192.808 195.483 C 193.487 194.679,198.952 187.085,199.777 185.800 C 200.200 185.140,200.739 184.397,200.973 184.149 C 201.208 183.901,201.670 183.288,202.000 182.786 C 202.330 182.284,203.061 181.317,203.625 180.637 C 204.189 179.957,205.531 178.230,206.607 176.800 C 207.682 175.370,208.669 174.110,208.800 174.000 C 208.931 173.890,209.929 172.630,211.019 171.200 C 212.108 169.770,213.270 168.325,213.600 167.988 C 214.164 167.412,217.313 163.817,219.196 161.600 C 226.312 153.220,238.456 140.730,247.197 132.800 C 249.500 130.710,252.019 128.392,252.793 127.649 C 253.567 126.906,255.370 125.345,256.800 124.180 C 258.230 123.016,259.940 121.578,260.600 120.984 C 261.260 120.390,262.790 119.182,264.000 118.299 C 265.210 117.415,266.380 116.492,266.600 116.246 C 266.820 116.001,268.717 114.520,270.815 112.956 C 272.914 111.392,274.926 109.817,275.287 109.456 C 275.648 109.095,276.053 108.800,276.188 108.800 C 276.323 108.800,276.651 108.612,276.917 108.381 C 277.183 108.151,278.660 107.074,280.200 105.987 C 281.740 104.901,283.360 103.752,283.800 103.435 C 287.006 101.125,289.034 99.750,291.945 97.912 C 293.785 96.750,295.710 95.530,296.224 95.200 C 296.737 94.870,298.742 93.620,300.679 92.423 C 302.615 91.225,304.290 90.141,304.400 90.014 C 304.510 89.888,305.050 89.568,305.600 89.305 C 306.150 89.042,307.860 88.092,309.400 87.195 C 310.940 86.298,312.740 85.299,313.400 84.976 C 314.060 84.653,314.870 84.216,315.200 84.005 C 318.762 81.734,334.935 73.470,341.000 70.823 C 342.100 70.343,343.585 69.692,344.300 69.375 C 345.015 69.059,346.185 68.546,346.900 68.236 C 347.615 67.926,349.162 67.206,350.337 66.636 C 351.512 66.066,352.655 65.600,352.876 65.600 C 353.098 65.600,353.846 65.354,354.540 65.054 C 355.929 64.453,358.535 63.430,361.000 62.518 C 361.880 62.193,363.140 61.701,363.800 61.425 C 365.296 60.801,367.065 60.186,370.400 59.129 C 371.830 58.676,373.313 58.147,373.695 57.953 C 374.077 57.759,374.589 57.600,374.834 57.600 C 375.079 57.600,375.846 57.346,376.540 57.036 C 377.233 56.727,378.250 56.381,378.800 56.269 C 379.709 56.083,384.056 54.672,387.600 53.411 C 388.370 53.138,389.630 52.690,390.400 52.417 C 391.170 52.145,392.430 51.772,393.200 51.589 C 393.970 51.406,395.320 51.074,396.200 50.851 C 397.080 50.628,398.295 50.342,398.900 50.215 C 399.505 50.088,400.000 49.808,400.000 49.592 C 400.000 49.173,398.686 49.047,398.303 49.430 " stroke="none" fill="#947c54" fill-rule="evenodd"></path></g></svg>