<svg xmlns="http://www.w3.org/2000/svg" width="411.822" height="411.822" viewBox="0 0 411.822 411.822">
  <g id="circlembl" transform="translate(528.191 -1137.264)">
    <g id="Path_376" data-name="Path 376" transform="translate(-322.281 1181.612) rotate(45)" fill="#fff" opacity="0.03">
      <path d="M125.216-30.938C205.4-37,265.483,23.087,259.422,103.268S183.449,253.361,103.268,259.422-37,205.4-30.938,125.216,45.036-24.877,125.216-30.938Z" stroke="none"/>
      <path d="M 136.2822265625 -31.35881042480469 C 210.8567810058594 -31.35881042480469 265.2009582519531 26.81661987304688 259.4222106933594 103.2681503295898 C 253.3612670898438 183.4487762451172 183.4487609863281 253.3612670898438 103.2681427001953 259.4222106933594 C 23.08750915527344 265.4828186035156 -36.9984130859375 205.3968963623047 -30.93780517578125 125.2162704467773 C -24.87686157226562 45.03564453125 45.03564453125 -24.87684631347656 125.2162628173828 -30.93778991699219 C 128.9453735351562 -31.21965026855469 132.6446838378906 -31.35881042480469 136.2822265625 -31.35881042480469 Z" stroke="none" fill="#3a4151"/>
    </g>
    <g id="Path_377" data-name="Path 377" transform="translate(-322.281 1204.642) rotate(45)" fill="#fff" opacity="0.03">
      <path d="M 59.08882522583008 136.8805236816406 C 62.13726806640625 127.580078125 66.59657287597656 117.8998718261719 72.91147613525391 108.2918090820312 C 88.3828125 84.75228118896484 111.3386840820312 67.41342926025391 136.8270416259766 59.03543090820312 C 133.7785797119141 68.33589172363281 129.3192138671875 78.01625061035156 123.0043106079102 87.62431335449219 C 107.5329742431641 111.1637268066406 84.57712554931641 128.5025329589844 59.08882522583008 136.8805236816406 Z" stroke="none"/>
      <path d="M 24.55998229980469 7.62939453125e-05 C 33.47120666503906 7.62939453125e-05 44.61474609375 2.790374755859375 57.68672180175781 8.687347412109375 C 106.9895401000977 30.92828369140625 164.9876708984375 88.92641448974609 187.2286071777344 138.2292327880859 C 209.4698486328125 187.5320434570312 187.5320281982422 209.4698486328125 138.2292327880859 187.2286071777344 C 88.92641448974609 164.9876708984375 30.92828369140625 106.9895401000977 8.687347412109375 57.68672180175781 C -7.65692138671875 21.45590209960938 -0.1386871337890625 7.62939453125e-05 24.55998229980469 7.62939453125e-05 Z" stroke="none" fill="#3a4151"/>
    </g>
  </g>
</svg>
