<svg xmlns="http://www.w3.org/2000/svg" xmlns:xlink="http://www.w3.org/1999/xlink" width="124" height="103" viewBox="0 0 124 103">
  <defs>
    <filter id="Rectangle_536" x="0" y="0" width="124" height="103" filterUnits="userSpaceOnUse">
      <feOffset dy="3" input="SourceAlpha"/>
      <feGaussianBlur stdDeviation="3" result="blur"/>
      <feFlood flood-opacity="0.161"/>
      <feComposite operator="in" in2="blur"/>
      <feComposite in="SourceGraphic"/>
    </filter>
  </defs>
  <g id="Group_259" data-name="Group 259" transform="translate(-1348.909 -1621.149)">
    <g id="Group_221" data-name="Group 221" transform="translate(1357.909 1627.149)">
      <g transform="matrix(1, 0, 0, 1, -9, -6)" filter="url(#Rectangle_536)">
        <rect id="Rectangle_536-2" data-name="Rectangle 536" width="106" height="85" rx="11" transform="translate(9 6)" fill="#fff"/>
      </g>
      <rect id="Rectangle_538" data-name="Rectangle 538" width="44" height="8" rx="4" transform="translate(14.091 43.851)" fill="#fd3400" opacity="0.1"/>
      <rect id="Rectangle_539" data-name="Rectangle 539" width="54.333" height="8" rx="4" transform="translate(14 62)" fill="#fd3400" opacity="0.1"/>
    </g>
    <g id="Group_223" data-name="Group 223" transform="translate(1383 1634.932)">
      <circle id="Ellipse_19" data-name="Ellipse 19" cx="6" cy="6" r="6" transform="translate(5 0.068)" fill="#f1f1f1"/>
      <circle id="Ellipse_20" data-name="Ellipse 20" cx="11" cy="11" r="11" transform="translate(0 7.068)" fill="#f1f1f1"/>
      <circle id="Ellipse_21" data-name="Ellipse 21" cx="6" cy="6" r="6" transform="translate(5 12.068)" fill="#fff"/>
    </g>
    <g id="Group_222" data-name="Group 222" transform="translate(1372 1634.932)">
      <circle id="Ellipse_19-2" data-name="Ellipse 19" cx="6" cy="6" r="6" transform="translate(5 0.068)" fill="#fd5353"/>
      <circle id="Ellipse_20-2" data-name="Ellipse 20" cx="11" cy="11" r="11" transform="translate(0 7.068)" fill="#fd5353"/>
      <circle id="Ellipse_21-2" data-name="Ellipse 21" cx="6" cy="6" r="6" transform="translate(5 12.068)" fill="#fff"/>
      <circle id="Ellipse_22" data-name="Ellipse 22" cx="2" cy="2" r="2" transform="translate(9 4.068)" fill="#fff"/>
    </g>
  </g>
</svg>
