<svg id="svg" version="1.1" xmlns="http://www.w3.org/2000/svg" xmlns:xlink="http://www.w3.org/1999/xlink" width="400" height="469.20152091254755" viewBox="0, 0, 400,469.20152091254755"><g id="svgg"><path id="path0" d="M72.569 1.904 C 72.905 2.507,74.004 4.890,75.013 7.200 C 76.021 9.510,77.087 11.940,77.381 12.600 C 77.675 13.260,78.314 14.700,78.800 15.800 C 79.286 16.900,79.925 18.340,80.219 19.000 C 80.513 19.660,81.555 22.000,82.533 24.200 C 85.307 30.436,88.897 38.197,94.190 49.400 C 97.014 55.377,110.341 82.133,113.914 89.000 C 118.798 98.385,122.493 105.363,122.810 105.800 C 122.969 106.020,124.035 107.971,125.178 110.136 C 126.321 112.301,128.053 115.420,129.028 117.069 C 130.003 118.717,130.800 120.117,130.800 120.178 C 130.800 120.240,132.510 123.296,134.600 126.969 C 136.690 130.642,138.400 133.729,138.400 133.830 C 138.400 133.931,139.182 135.316,140.138 136.907 C 142.347 140.583,148.297 150.622,149.203 152.200 C 152.287 157.570,160.730 171.351,162.838 174.456 C 163.697 175.721,164.400 176.844,164.400 176.952 C 164.400 177.764,189.915 216.600,197.676 227.600 C 206.822 240.564,208.783 243.334,211.552 247.200 C 213.206 249.510,214.929 251.863,215.380 252.429 C 215.831 252.994,216.590 253.984,217.067 254.629 C 217.543 255.273,219.597 258.050,221.630 260.800 C 225.818 266.465,231.953 274.665,232.693 275.586 C 232.965 275.924,235.485 279.175,238.293 282.812 C 243.025 288.939,253.275 301.909,254.205 302.948 C 254.428 303.196,256.226 305.380,258.201 307.800 C 260.176 310.220,262.175 312.650,262.643 313.200 C 263.111 313.750,265.001 316.000,266.841 318.200 C 268.682 320.400,270.577 322.650,271.052 323.200 C 271.527 323.750,275.383 328.250,279.622 333.200 C 283.860 338.150,288.702 343.730,290.382 345.600 C 292.063 347.470,296.657 352.600,300.593 357.000 C 304.528 361.400,309.200 366.534,310.974 368.410 C 312.748 370.285,315.633 373.345,317.385 375.210 C 326.854 385.291,348.744 407.568,357.663 416.200 C 372.360 430.424,376.662 434.460,388.999 445.600 C 392.045 448.350,395.541 451.530,396.768 452.667 L 399.000 454.734 399.101 387.372 L 399.202 320.010 394.128 312.505 C 389.683 305.931,385.622 299.883,384.389 298.000 C 383.312 296.356,374.174 282.006,371.526 277.800 C 368.392 272.823,360.878 260.450,359.502 258.000 C 359.069 257.230,357.766 254.980,356.605 253.000 C 355.445 251.020,354.138 248.770,353.702 248.000 C 353.265 247.230,351.747 244.620,350.328 242.200 C 347.969 238.175,347.082 236.591,343.498 230.000 C 342.840 228.790,341.988 227.260,341.604 226.600 C 341.220 225.940,340.369 224.410,339.711 223.200 C 339.054 221.990,338.069 220.190,337.522 219.200 C 336.516 217.379,334.167 212.942,329.580 204.200 C 324.883 195.248,312.354 169.918,310.042 164.700 C 308.314 160.801,307.446 158.904,305.746 155.310 C 304.786 153.281,304.000 151.546,304.000 151.456 C 304.000 151.365,303.219 149.605,302.265 147.545 C 299.463 141.499,298.800 140.020,298.800 139.816 C 298.800 139.710,298.370 138.673,297.845 137.512 C 297.320 136.350,295.863 132.970,294.607 130.000 C 293.351 127.030,291.999 123.880,291.602 123.000 C 291.206 122.120,289.495 117.980,287.801 113.800 C 286.106 109.620,284.484 105.660,284.196 105.000 C 283.523 103.460,279.059 91.970,277.514 87.800 C 276.861 86.040,275.792 83.160,275.138 81.400 C 273.450 76.859,270.241 67.865,269.217 64.800 C 268.739 63.370,268.188 61.840,267.994 61.400 C 267.608 60.529,263.127 47.438,262.106 44.200 C 260.806 40.075,257.600 30.019,255.986 25.000 C 255.066 22.140,254.167 19.260,253.989 18.600 C 253.811 17.940,253.096 15.510,252.400 13.200 C 251.704 10.890,250.985 8.460,250.802 7.800 C 250.619 7.140,250.164 5.520,249.790 4.200 C 249.417 2.880,249.101 1.574,249.089 1.298 C 249.071 0.898,231.244 0.798,160.513 0.802 L 71.959 0.807 72.569 1.904 M10.600 20.400 C 10.941 21.060,11.311 21.600,11.421 21.600 C 11.531 21.600,11.341 21.060,11.000 20.400 C 10.659 19.740,10.289 19.200,10.179 19.200 C 10.069 19.200,10.259 19.740,10.600 20.400 M16.600 30.800 C 16.941 31.460,17.311 32.000,17.421 32.000 C 17.531 32.000,17.341 31.460,17.000 30.800 C 16.659 30.140,16.289 29.600,16.179 29.600 C 16.069 29.600,16.259 30.140,16.600 30.800 M21.949 39.800 C 22.165 40.240,22.634 40.960,22.993 41.400 L 23.644 42.200 23.251 41.400 C 23.035 40.960,22.566 40.240,22.207 39.800 L 21.556 39.000 21.949 39.800 M31.560 55.800 C 32.234 57.105,32.788 57.828,32.785 57.400 C 32.783 57.180,32.414 56.550,31.964 56.000 C 31.421 55.336,31.285 55.269,31.560 55.800 M36.400 63.720 C 36.400 64.104,38.445 67.200,38.699 67.200 C 38.878 67.200,38.241 66.119,36.939 64.211 C 36.642 63.777,36.400 63.556,36.400 63.720 M43.149 74.600 C 43.365 75.040,43.834 75.760,44.193 76.200 L 44.844 77.000 44.451 76.200 C 44.235 75.760,43.766 75.040,43.407 74.600 L 42.756 73.800 43.149 74.600 M47.837 82.200 C 48.197 82.750,48.557 83.200,48.637 83.200 C 48.717 83.200,48.578 82.750,48.327 82.200 C 48.077 81.650,47.716 81.200,47.527 81.200 C 47.337 81.200,47.476 81.650,47.837 82.200 M52.609 89.426 C 52.981 90.101,53.641 91.091,54.076 91.626 L 54.867 92.600 54.191 91.374 C 53.819 90.699,53.159 89.709,52.724 89.174 L 51.933 88.200 52.609 89.426 M88.000 141.361 C 88.000 141.743,90.376 145.200,90.638 145.200 C 90.748 145.200,90.261 144.345,89.554 143.300 C 87.988 140.983,88.000 140.997,88.000 141.361 M91.164 146.333 C 91.380 146.736,91.871 147.321,92.255 147.633 C 92.687 147.984,92.590 147.704,92.001 146.900 C 90.951 145.465,90.557 145.198,91.164 146.333 M94.575 150.932 C 95.191 151.739,95.776 152.400,95.875 152.400 C 96.153 152.400,94.421 150.060,93.909 149.744 C 93.659 149.589,93.959 150.124,94.575 150.932 M98.000 155.600 C 98.470 156.260,98.944 156.800,99.054 156.800 C 99.164 156.800,98.870 156.260,98.400 155.600 C 97.930 154.940,97.456 154.400,97.346 154.400 C 97.236 154.400,97.530 154.940,98.000 155.600 M101.191 159.988 C 101.657 160.641,102.242 161.302,102.491 161.456 C 102.741 161.611,102.441 161.076,101.825 160.268 C 100.488 158.515,99.984 158.292,101.191 159.988 M105.008 165.158 C 105.814 166.280,106.651 167.308,106.866 167.441 C 107.082 167.574,106.599 166.765,105.792 165.642 C 104.986 164.520,104.149 163.492,103.934 163.359 C 103.718 163.226,104.201 164.035,105.008 165.158 M108.975 170.532 C 109.591 171.339,110.176 172.000,110.275 172.000 C 110.553 172.000,108.821 169.660,108.309 169.344 C 108.059 169.189,108.359 169.724,108.975 170.532 M120.591 185.947 C 121.672 187.324,122.741 188.564,122.966 188.703 C 123.191 188.842,122.490 187.829,121.409 186.453 C 120.328 185.076,119.259 183.836,119.034 183.697 C 118.809 183.558,119.510 184.571,120.591 185.947 M123.991 190.388 C 124.457 191.041,125.042 191.702,125.291 191.856 C 125.541 192.011,125.241 191.476,124.625 190.668 C 123.288 188.915,122.784 188.692,123.991 190.388 M126.747 193.800 C 127.194 194.460,128.033 195.540,128.613 196.200 L 129.666 197.400 128.853 196.200 C 128.406 195.540,127.567 194.460,126.987 193.800 L 125.934 192.600 126.747 193.800 M135.206 204.633 C 135.209 204.835,135.856 205.720,136.644 206.600 L 138.076 208.200 136.761 206.400 C 136.037 205.410,135.390 204.525,135.323 204.433 C 135.255 204.342,135.203 204.432,135.206 204.633 M150.800 224.200 C 151.317 224.750,151.806 225.200,151.888 225.200 C 152.221 225.200,150.572 223.224,150.230 223.213 C 150.027 223.206,150.283 223.650,150.800 224.200 M153.355 227.319 C 154.203 228.353,154.980 229.200,155.082 229.200 C 155.355 229.200,152.821 226.060,152.277 225.724 C 152.022 225.566,152.507 226.284,153.355 227.319 M158.224 233.182 C 159.191 234.589,160.799 236.438,160.788 236.131 C 160.781 235.949,160.106 235.072,159.288 234.182 C 158.470 233.293,157.991 232.843,158.224 233.182 M163.200 239.064 C 163.200 239.282,163.695 239.897,164.300 240.430 L 165.400 241.400 164.400 240.200 C 163.850 239.540,163.355 238.925,163.300 238.833 C 163.245 238.742,163.200 238.845,163.200 239.064 M166.229 242.838 C 166.873 243.629,167.481 244.208,167.579 244.125 C 167.678 244.042,167.151 243.395,166.409 242.687 L 165.058 241.400 166.229 242.838 M168.834 245.847 C 169.365 246.533,169.880 247.023,169.979 246.935 C 170.077 246.847,169.643 246.286,169.013 245.688 L 167.869 244.600 168.834 245.847 M176.549 254.916 C 177.620 256.172,178.582 257.200,178.686 257.200 C 178.954 257.200,175.623 253.261,175.064 252.917 C 174.809 252.761,175.477 253.660,176.549 254.916 M181.600 260.925 C 181.600 260.994,182.185 261.579,182.900 262.225 L 184.200 263.400 183.025 262.100 C 181.930 260.888,181.600 260.616,181.600 260.925 M186.000 265.800 C 186.746 266.570,187.447 267.200,187.557 267.200 C 187.667 267.200,187.146 266.570,186.400 265.800 C 185.654 265.030,184.953 264.400,184.843 264.400 C 184.733 264.400,185.254 265.030,186.000 265.800 M188.800 269.000 C 189.546 269.770,190.247 270.400,190.357 270.400 C 190.467 270.400,189.946 269.770,189.200 269.000 C 188.454 268.230,187.753 267.600,187.643 267.600 C 187.533 267.600,188.054 268.230,188.800 269.000 M193.914 274.700 C 195.232 276.185,196.729 277.760,197.240 278.200 C 197.752 278.640,196.753 277.425,195.021 275.500 C 193.288 273.575,191.791 272.000,191.694 272.000 C 191.597 272.000,192.596 273.215,193.914 274.700 M199.625 281.031 C 200.381 281.928,201.081 282.597,201.180 282.517 C 201.279 282.438,200.660 281.704,199.805 280.887 L 198.250 279.400 199.625 281.031 M201.600 283.325 C 201.600 283.394,202.185 283.979,202.900 284.625 L 204.200 285.800 203.025 284.500 C 201.930 283.288,201.600 283.016,201.600 283.325 M206.425 288.631 C 207.181 289.528,207.881 290.197,207.980 290.117 C 208.079 290.038,207.460 289.304,206.605 288.487 L 205.050 287.000 206.425 288.631 M209.200 291.725 C 209.200 291.794,209.785 292.379,210.500 293.025 L 211.800 294.200 210.625 292.900 C 209.530 291.688,209.200 291.416,209.200 291.725 M215.400 298.400 C 216.483 299.500,217.460 300.400,217.570 300.400 C 217.680 300.400,216.883 299.500,215.800 298.400 C 214.717 297.300,213.740 296.400,213.630 296.400 C 213.520 296.400,214.317 297.300,215.400 298.400 M220.800 304.200 C 222.217 305.630,223.467 306.800,223.577 306.800 C 223.687 306.800,222.617 305.630,221.200 304.200 C 219.783 302.770,218.533 301.600,218.423 301.600 C 218.313 301.600,219.383 302.770,220.800 304.200 M228.000 311.800 C 230.081 313.890,231.874 315.600,231.984 315.600 C 232.094 315.600,230.481 313.890,228.400 311.800 C 226.319 309.710,224.526 308.000,224.416 308.000 C 224.306 308.000,225.919 309.710,228.000 311.800 M239.800 324.000 C 243.315 327.520,246.281 330.400,246.391 330.400 C 246.501 330.400,243.715 327.520,240.200 324.000 C 236.685 320.480,233.719 317.600,233.609 317.600 C 233.499 317.600,236.285 320.480,239.800 324.000 M260.484 344.590 C 263.501 347.656,266.021 350.083,266.084 349.982 C 266.148 349.882,263.680 347.373,260.600 344.407 L 255.000 339.014 260.484 344.590 M272.685 356.392 C 274.711 358.467,276.423 360.082,276.488 359.982 C 276.553 359.882,274.895 358.185,272.803 356.210 L 269.000 352.621 272.685 356.392 M282.484 365.791 C 285.061 368.416,287.221 370.483,287.284 370.382 C 287.348 370.282,285.240 368.134,282.600 365.608 L 277.800 361.017 282.484 365.791 M290.200 373.200 C 291.059 374.080,291.852 374.800,291.962 374.800 C 292.072 374.800,291.459 374.080,290.600 373.200 C 289.741 372.320,288.948 371.600,288.838 371.600 C 288.728 371.600,289.341 372.320,290.200 373.200 M295.000 377.600 C 296.083 378.700,297.060 379.600,297.170 379.600 C 297.280 379.600,296.483 378.700,295.400 377.600 C 294.317 376.500,293.340 375.600,293.230 375.600 C 293.120 375.600,293.917 376.500,295.000 377.600 M300.200 382.400 C 301.059 383.280,301.852 384.000,301.962 384.000 C 302.072 384.000,301.459 383.280,300.600 382.400 C 299.741 381.520,298.948 380.800,298.838 380.800 C 298.728 380.800,299.341 381.520,300.200 382.400 M305.583 387.300 C 306.564 388.345,307.419 389.200,307.483 389.200 C 307.784 389.200,307.466 388.841,305.700 387.183 L 303.800 385.400 305.583 387.300 M309.400 390.800 C 310.259 391.680,311.052 392.400,311.162 392.400 C 311.272 392.400,310.659 391.680,309.800 390.800 C 308.941 389.920,308.148 389.200,308.038 389.200 C 307.928 389.200,308.541 389.920,309.400 390.800 M314.783 395.700 C 315.764 396.745,316.619 397.600,316.683 397.600 C 316.984 397.600,316.666 397.241,314.900 395.583 L 313.000 393.800 314.783 395.700 M317.200 397.725 C 317.200 397.794,317.785 398.379,318.500 399.025 L 319.800 400.200 318.625 398.900 C 317.530 397.688,317.200 397.416,317.200 397.725 M323.200 402.925 C 323.200 402.994,323.785 403.579,324.500 404.225 L 325.800 405.400 324.625 404.100 C 323.530 402.888,323.200 402.616,323.200 402.925 M329.600 408.525 C 329.600 408.594,330.185 409.179,330.900 409.825 L 332.200 411.000 331.025 409.700 C 329.930 408.488,329.600 408.216,329.600 408.525 M335.600 413.725 C 335.600 413.794,336.185 414.379,336.900 415.025 L 338.200 416.200 337.025 414.900 C 335.930 413.688,335.600 413.416,335.600 413.725 M338.438 416.500 C 338.532 416.555,339.327 417.230,340.204 418.000 L 341.800 419.400 340.422 417.900 C 339.663 417.075,338.868 416.400,338.655 416.400 C 338.441 416.400,338.344 416.445,338.438 416.500 M350.488 426.613 C 351.086 427.243,351.647 427.677,351.735 427.579 C 351.823 427.480,351.333 426.965,350.647 426.434 L 349.400 425.469 350.488 426.613 M359.527 434.200 C 360.181 434.750,360.838 435.200,360.988 435.200 C 361.139 435.200,360.727 434.750,360.073 434.200 C 359.419 433.650,358.762 433.200,358.612 433.200 C 358.461 433.200,358.873 433.650,359.527 434.200 M367.776 440.896 C 368.889 441.938,369.949 442.793,370.131 442.796 C 370.313 442.798,369.863 442.317,369.131 441.727 C 368.399 441.137,367.339 440.282,366.776 439.827 C 366.212 439.372,366.662 439.853,367.776 440.896 M388.200 457.327 C 389.080 458.120,389.949 458.777,390.131 458.785 C 390.313 458.793,389.953 458.391,389.331 457.891 C 387.213 456.187,386.595 455.879,388.200 457.327 " stroke="none" fill="#fbb35c" fill-rule="evenodd"></path><path id="path1" d="M-0.000 1.365 C -0.000 1.677,0.146 1.993,0.324 2.067 C 0.502 2.140,1.204 3.190,1.885 4.400 C 2.566 5.610,3.476 7.230,3.908 8.000 C 4.341 8.770,6.130 11.920,7.884 15.000 C 9.639 18.080,11.530 21.410,12.088 22.400 C 13.665 25.201,15.746 28.788,17.192 31.200 C 17.918 32.410,18.820 33.940,19.196 34.600 C 21.000 37.764,24.252 43.214,25.457 45.094 C 26.196 46.245,26.800 47.264,26.800 47.358 C 26.800 47.451,27.991 49.479,29.447 51.864 C 30.902 54.249,32.410 56.740,32.797 57.400 C 34.222 59.831,36.985 64.290,39.064 67.514 C 40.239 69.337,41.200 70.905,41.200 71.000 C 41.200 71.095,42.190 72.691,43.400 74.548 C 44.610 76.404,45.600 78.092,45.600 78.299 C 45.600 78.507,45.960 79.002,46.400 79.400 C 46.840 79.798,47.200 80.284,47.200 80.479 C 47.200 80.674,47.381 81.051,47.602 81.317 C 47.824 81.583,52.295 88.370,57.538 96.400 C 62.782 104.430,69.576 114.634,72.636 119.075 C 84.969 136.972,87.774 141.009,88.012 141.200 C 88.148 141.310,89.042 142.570,89.998 144.000 C 90.954 145.430,92.662 147.860,93.793 149.400 C 95.911 152.283,97.703 154.719,103.801 163.000 C 105.746 165.640,108.382 169.240,109.661 171.000 C 110.940 172.760,112.124 174.382,112.293 174.605 C 112.462 174.828,113.677 176.448,114.994 178.205 C 116.311 179.962,117.481 181.490,117.594 181.600 C 117.707 181.710,118.355 182.520,119.033 183.400 C 119.711 184.280,121.860 187.070,123.809 189.600 C 125.758 192.130,128.166 195.280,129.161 196.600 C 130.155 197.920,131.066 199.090,131.185 199.200 C 131.305 199.310,132.211 200.480,133.200 201.800 C 134.189 203.120,135.093 204.290,135.209 204.400 C 135.326 204.510,136.045 205.410,136.808 206.400 C 138.347 208.398,148.345 220.744,148.990 221.444 C 149.216 221.689,149.940 222.578,150.600 223.420 C 151.260 224.263,152.340 225.604,153.000 226.400 C 153.660 227.196,154.740 228.537,155.400 229.380 C 156.060 230.222,156.781 231.111,157.003 231.356 C 157.225 231.600,158.660 233.330,160.193 235.200 C 161.726 237.070,163.372 239.050,163.851 239.600 C 164.330 240.150,166.471 242.670,168.609 245.200 C 174.149 251.756,174.379 252.026,175.967 253.810 C 176.755 254.696,178.210 256.398,179.200 257.594 C 181.970 260.940,198.238 279.207,209.444 291.556 C 210.520 292.741,211.670 294.021,212.000 294.401 C 212.330 294.780,215.030 297.678,218.000 300.840 C 236.536 320.577,254.893 339.100,274.025 357.369 C 276.541 359.771,280.945 364.001,283.810 366.769 C 286.676 369.536,290.096 372.770,291.410 373.956 C 292.725 375.142,294.981 377.212,296.425 378.556 C 297.868 379.900,301.018 382.800,303.425 385.000 C 305.831 387.200,308.970 390.083,310.400 391.408 C 314.962 395.633,318.663 398.929,323.407 402.992 C 324.943 404.308,326.470 405.662,326.800 406.001 C 327.130 406.339,328.030 407.133,328.800 407.765 C 329.570 408.397,331.280 409.860,332.600 411.015 C 333.920 412.171,336.710 414.598,338.800 416.408 C 340.890 418.219,343.140 420.173,343.800 420.750 C 344.460 421.328,346.530 423.057,348.400 424.592 C 350.270 426.128,351.890 427.483,352.000 427.602 C 352.110 427.722,354.180 429.428,356.600 431.394 C 359.020 433.359,361.090 435.069,361.200 435.194 C 361.310 435.318,363.380 437.028,365.800 438.994 C 368.220 440.959,370.290 442.676,370.400 442.808 C 370.564 443.005,376.925 448.115,379.192 449.871 C 379.526 450.130,381.338 451.570,383.217 453.071 C 385.097 454.572,387.437 456.428,388.417 457.194 C 389.398 457.961,390.470 458.811,390.800 459.083 C 393.487 461.297,398.653 465.200,398.897 465.200 C 399.064 465.200,399.200 462.877,399.200 460.038 L 399.200 454.876 395.514 451.538 C 393.487 449.702,390.554 447.030,388.996 445.600 C 387.439 444.170,384.372 441.383,382.182 439.408 C 376.287 434.090,369.938 428.080,357.663 416.200 C 348.744 407.568,326.854 385.291,317.385 375.210 C 315.633 373.345,312.748 370.285,310.974 368.410 C 309.200 366.534,304.528 361.400,300.593 357.000 C 296.657 352.600,292.063 347.470,290.382 345.600 C 288.702 343.730,283.860 338.150,279.622 333.200 C 275.383 328.250,271.527 323.750,271.052 323.200 C 270.577 322.650,268.682 320.400,266.841 318.200 C 265.001 316.000,263.111 313.750,262.643 313.200 C 262.175 312.650,260.176 310.220,258.201 307.800 C 256.226 305.380,254.428 303.196,254.205 302.948 C 253.275 301.909,243.025 288.939,238.293 282.812 C 235.485 279.175,232.965 275.924,232.693 275.586 C 231.953 274.665,225.818 266.465,221.630 260.800 C 219.597 258.050,217.543 255.273,217.067 254.629 C 216.590 253.984,215.831 252.994,215.380 252.429 C 214.929 251.863,213.206 249.510,211.552 247.200 C 208.783 243.334,206.822 240.564,197.676 227.600 C 189.915 216.600,164.400 177.764,164.400 176.952 C 164.400 176.844,163.697 175.721,162.838 174.456 C 160.730 171.351,152.287 157.570,149.203 152.200 C 148.297 150.622,142.347 140.583,140.138 136.907 C 139.182 135.316,138.400 133.931,138.400 133.830 C 138.400 133.729,136.690 130.642,134.600 126.969 C 132.510 123.296,130.800 120.240,130.800 120.178 C 130.800 120.117,130.003 118.717,129.028 117.069 C 128.053 115.420,126.321 112.301,125.178 110.136 C 124.035 107.971,122.969 106.020,122.810 105.800 C 122.493 105.363,118.798 98.385,113.914 89.000 C 110.341 82.133,97.014 55.377,94.190 49.400 C 88.897 38.197,85.307 30.436,82.533 24.200 C 81.555 22.000,80.513 19.660,80.219 19.000 C 79.925 18.340,79.286 16.900,78.800 15.800 C 78.314 14.700,77.675 13.260,77.381 12.600 C 77.087 11.940,76.022 9.510,75.015 7.200 C 74.007 4.890,72.928 2.550,72.617 2.000 L 72.050 1.000 36.025 0.898 C 5.100 0.810,-0.000 0.876,-0.000 1.365 " stroke="none" fill="#fb5554" fill-rule="evenodd"></path><path id="path2" d="M249.200 1.274 C 249.200 1.878,250.481 6.502,252.283 12.400 C 253.056 14.930,253.831 17.540,254.006 18.200 C 254.320 19.390,254.883 21.189,258.200 31.600 C 264.136 50.236,270.681 69.354,275.591 82.400 C 278.388 89.832,282.285 99.978,283.194 102.200 C 283.375 102.640,283.931 104.080,284.430 105.400 C 284.930 106.720,285.744 108.703,286.239 109.807 C 286.733 110.911,287.526 112.801,288.000 114.007 C 289.044 116.663,297.308 136.153,298.646 139.112 C 299.171 140.273,299.600 141.320,299.600 141.437 C 299.600 141.554,300.126 142.764,300.769 144.125 C 301.412 145.486,303.283 149.570,304.928 153.200 C 306.572 156.830,308.366 160.790,308.914 162.000 C 309.462 163.210,310.313 165.100,310.804 166.200 C 312.235 169.400,326.944 198.952,329.619 204.000 C 330.960 206.530,332.938 210.310,334.015 212.400 C 336.317 216.868,339.146 222.068,341.045 225.321 C 341.790 226.598,342.400 227.708,342.400 227.788 C 342.400 227.868,343.390 229.681,344.600 231.818 C 345.810 233.954,346.800 235.756,346.800 235.822 C 346.800 235.888,348.713 239.240,351.052 243.271 C 353.391 247.302,355.616 251.140,355.998 251.800 C 359.041 257.063,362.217 262.379,362.845 263.262 C 363.260 263.846,363.600 264.429,363.600 264.558 C 363.600 264.686,364.410 266.055,365.400 267.600 C 366.390 269.145,367.200 270.475,367.200 270.557 C 367.200 271.104,382.380 294.810,390.761 307.351 C 391.773 308.864,392.870 310.519,393.200 311.028 C 396.385 315.941,398.652 319.189,398.900 319.194 C 399.065 319.197,399.200 247.560,399.200 160.000 L 399.200 0.800 324.200 0.800 C 266.618 0.800,249.200 0.910,249.200 1.274 " stroke="none" fill="#3c4454" fill-rule="evenodd"></path><path id="path3" d="M0.000 236.000 L 0.000 469.200 199.600 469.200 L 399.200 469.200 399.200 467.817 C 399.200 466.444,397.702 465.048,389.000 458.315 C 384.738 455.018,373.762 446.268,370.810 443.816 C 368.946 442.267,367.056 440.705,366.610 440.344 C 365.827 439.710,359.036 434.093,357.403 432.729 C 355.685 431.294,350.878 427.323,349.016 425.800 C 347.939 424.920,343.715 421.325,339.629 417.812 C 335.543 414.298,331.670 410.968,331.022 410.412 C 330.373 409.855,329.113 408.755,328.222 407.967 C 327.330 407.179,325.990 406.009,325.244 405.367 C 324.499 404.725,323.689 404.020,323.444 403.800 C 323.200 403.580,321.562 402.140,319.805 400.600 C 318.048 399.060,316.411 397.620,316.167 397.400 C 311.128 392.853,308.416 390.374,307.415 389.400 C 306.737 388.740,304.393 386.580,302.205 384.600 C 300.018 382.620,297.669 380.460,296.984 379.800 C 296.300 379.140,294.136 377.160,292.175 375.400 C 290.215 373.640,286.183 369.860,283.215 367.000 C 253.953 338.800,253.085 337.944,235.975 320.362 C 229.252 313.453,222.772 306.726,221.575 305.413 C 220.379 304.101,217.945 301.491,216.166 299.613 C 210.519 293.653,187.679 268.286,181.600 261.221 C 180.390 259.815,178.680 257.828,177.800 256.806 C 176.920 255.784,175.373 253.970,174.362 252.774 C 170.984 248.778,166.746 243.824,164.663 241.434 C 163.528 240.133,159.741 235.543,156.248 231.234 C 152.754 226.925,149.424 222.845,148.848 222.166 C 147.191 220.216,146.279 219.088,145.145 217.592 C 144.565 216.826,143.755 215.810,143.345 215.334 C 142.453 214.296,142.190 213.976,138.598 209.558 C 137.059 207.665,134.540 204.454,133.000 202.422 C 131.460 200.390,130.014 198.518,129.787 198.263 C 129.560 198.009,128.938 197.170,128.406 196.400 C 127.874 195.630,127.322 194.910,127.179 194.800 C 126.954 194.627,121.789 187.954,118.800 183.975 C 118.250 183.243,117.341 182.094,116.780 181.422 C 116.218 180.750,114.903 179.030,113.857 177.600 C 112.811 176.170,111.738 174.730,111.472 174.400 C 111.207 174.070,109.375 171.550,107.402 168.800 C 105.429 166.050,103.718 163.710,103.598 163.600 C 103.479 163.490,102.537 162.230,101.504 160.800 C 100.471 159.370,99.480 158.020,99.302 157.800 C 99.124 157.580,98.542 156.770,98.008 156.000 C 97.475 155.230,96.931 154.510,96.799 154.400 C 96.667 154.290,95.938 153.300,95.179 152.200 C 94.421 151.100,93.690 150.110,93.555 150.000 C 93.340 149.825,89.558 144.449,85.720 138.863 C 85.015 137.838,84.275 136.809,84.074 136.575 C 83.873 136.341,83.490 135.742,83.223 135.243 C 82.956 134.745,82.484 134.036,82.174 133.668 C 81.863 133.301,80.167 130.930,78.405 128.400 C 70.242 116.684,67.600 112.771,67.600 112.400 C 67.600 112.180,67.450 112.000,67.268 112.000 C 67.085 112.000,66.680 111.505,66.368 110.900 C 66.056 110.295,65.694 109.710,65.563 109.600 C 65.431 109.490,61.047 102.830,55.820 94.800 C 50.592 86.770,45.975 79.712,45.558 79.116 C 45.141 78.520,44.800 77.925,44.800 77.794 C 44.800 77.663,44.106 76.531,43.257 75.278 C 41.665 72.928,36.912 65.272,35.509 62.800 C 35.072 62.030,34.574 61.220,34.401 61.000 C 33.856 60.305,28.800 51.947,28.800 51.741 C 28.800 51.633,28.260 50.759,27.600 49.800 C 26.940 48.841,26.400 47.951,26.400 47.822 C 26.400 47.693,25.800 46.645,25.067 45.494 C 22.755 41.862,21.200 39.160,21.200 38.773 C 21.200 38.568,21.041 38.400,20.847 38.400 C 20.652 38.400,20.387 38.085,20.258 37.700 C 20.128 37.315,19.697 36.460,19.301 35.800 C 15.789 29.959,14.400 27.518,14.400 27.188 C 14.400 26.974,14.241 26.800,14.047 26.800 C 13.852 26.800,13.590 26.485,13.464 26.100 C 13.338 25.715,12.752 24.590,12.161 23.600 C 11.570 22.610,10.636 20.990,10.087 20.000 C 6.224 13.041,0.323 2.800,0.177 2.800 C 0.079 2.800,0.000 107.740,0.000 236.000 " stroke="none" fill="#fcfbfb" fill-rule="evenodd"></path><path id="path4" d="M0.000 0.400 C 0.000 0.664,12.367 0.800,36.300 0.801 C 56.265 0.801,146.085 0.801,235.900 0.800 L 399.200 0.798 399.200 233.199 C 399.200 361.020,399.089 465.600,398.954 465.600 C 398.818 465.600,397.558 464.697,396.154 463.593 C 394.749 462.490,393.600 461.672,393.600 461.776 C 393.600 461.881,394.860 462.971,396.400 464.200 C 398.896 466.192,399.200 466.584,399.200 467.817 C 399.200 468.578,399.380 469.200,399.600 469.200 C 399.866 469.200,400.000 390.733,400.000 234.600 L 400.000 0.000 200.000 0.000 C 66.933 0.000,0.000 0.134,0.000 0.400 M1.286 4.400 C 1.606 4.950,2.543 6.615,3.368 8.100 C 4.194 9.585,4.954 10.800,5.058 10.800 C 5.341 10.800,2.314 5.346,1.453 4.304 L 0.705 3.400 1.286 4.400 M5.800 12.400 C 6.141 13.060,6.511 13.600,6.621 13.600 C 6.731 13.600,6.541 13.060,6.200 12.400 C 5.859 11.740,5.489 11.200,5.379 11.200 C 5.269 11.200,5.459 11.740,5.800 12.400 M7.960 16.200 C 8.634 17.505,9.188 18.228,9.185 17.800 C 9.183 17.580,8.814 16.950,8.364 16.400 C 7.821 15.736,7.685 15.669,7.960 16.200 M10.415 20.600 C 10.417 20.820,10.786 21.450,11.236 22.000 C 11.779 22.664,11.915 22.731,11.640 22.200 C 10.966 20.895,10.412 20.172,10.415 20.600 M12.015 23.400 C 12.017 23.620,12.386 24.250,12.836 24.800 C 13.379 25.464,13.515 25.531,13.240 25.000 C 12.566 23.695,12.012 22.972,12.015 23.400 M15.800 30.000 C 16.141 30.660,16.511 31.200,16.621 31.200 C 16.731 31.200,16.541 30.660,16.200 30.000 C 15.859 29.340,15.489 28.800,15.379 28.800 C 15.269 28.800,15.459 29.340,15.800 30.000 M17.149 32.200 C 17.365 32.640,17.834 33.360,18.193 33.800 L 18.844 34.600 18.451 33.800 C 18.235 33.360,17.766 32.640,17.407 32.200 L 16.756 31.400 17.149 32.200 M18.815 35.000 C 18.817 35.220,19.186 35.850,19.636 36.400 C 20.179 37.064,20.315 37.131,20.040 36.600 C 19.366 35.295,18.812 34.572,18.815 35.000 M23.790 43.500 C 24.363 44.545,25.205 45.850,25.663 46.400 L 26.495 47.400 25.768 46.200 C 25.368 45.540,24.611 44.235,24.086 43.300 C 23.561 42.365,23.046 41.600,22.941 41.600 C 22.836 41.600,23.218 42.455,23.790 43.500 M26.415 47.800 C 26.417 48.020,26.786 48.650,27.236 49.200 C 27.779 49.864,27.915 49.931,27.640 49.400 C 26.966 48.095,26.412 47.372,26.415 47.800 M30.924 55.400 C 31.262 56.060,31.838 56.960,32.204 57.400 C 32.570 57.840,32.465 57.480,31.970 56.600 C 30.880 54.658,30.064 53.722,30.924 55.400 M33.149 59.000 C 33.365 59.440,33.834 60.160,34.193 60.600 L 34.844 61.400 34.451 60.600 C 34.235 60.160,33.766 59.440,33.407 59.000 L 32.756 58.200 33.149 59.000 M38.831 68.300 C 39.848 70.000,40.400 70.694,40.400 70.271 C 40.400 69.906,38.355 66.800,38.114 66.800 C 38.016 66.800,38.338 67.475,38.831 68.300 M41.009 71.826 C 41.381 72.501,42.041 73.491,42.476 74.026 L 43.267 75.000 42.591 73.774 C 42.219 73.099,41.559 72.109,41.124 71.574 L 40.333 70.600 41.009 71.826 M48.588 83.826 C 48.972 84.501,49.644 85.491,50.082 86.026 C 50.754 86.847,50.737 86.749,49.978 85.400 C 49.482 84.520,48.810 83.530,48.484 83.200 C 48.068 82.779,48.099 82.965,48.588 83.826 M55.013 93.600 C 55.639 94.737,60.108 101.401,60.512 101.800 C 61.128 102.408,60.546 101.436,57.875 97.400 C 55.678 94.080,54.188 92.101,55.013 93.600 M63.018 105.900 C 64.756 108.592,65.600 109.764,65.600 109.487 C 65.600 109.105,62.750 104.800,62.497 104.800 C 62.393 104.800,62.628 105.295,63.018 105.900 M66.022 110.200 C 66.027 110.729,67.142 112.191,67.369 111.965 C 67.466 111.868,67.202 111.341,66.782 110.794 C 66.361 110.247,66.020 109.980,66.022 110.200 M67.600 112.520 C 67.600 112.910,75.155 123.925,75.618 124.211 C 75.961 124.423,68.730 113.509,67.938 112.620 C 67.752 112.411,67.600 112.366,67.600 112.520 M79.855 130.482 C 81.145 132.398,82.335 133.973,82.499 133.982 C 82.820 134.001,79.102 128.596,78.109 127.600 C 77.780 127.270,78.566 128.567,79.855 130.482 M83.273 135.400 C 83.523 135.950,83.884 136.400,84.073 136.400 C 84.263 136.400,84.124 135.950,83.763 135.400 C 83.403 134.850,83.043 134.400,82.963 134.400 C 82.883 134.400,83.022 134.850,83.273 135.400 M85.043 137.930 C 85.459 138.662,86.303 139.832,86.917 140.530 C 87.724 141.448,87.621 141.190,86.546 139.600 C 84.738 136.926,84.015 136.123,85.043 137.930 M92.255 148.200 C 92.867 149.080,93.420 149.875,93.484 149.967 C 93.548 150.058,93.600 149.962,93.600 149.752 C 93.600 149.542,93.047 148.747,92.371 147.985 L 91.142 146.600 92.255 148.200 M94.246 150.805 C 95.276 152.569,96.640 154.391,96.934 154.395 C 97.117 154.398,96.680 153.635,95.962 152.700 C 94.413 150.681,93.739 149.937,94.246 150.805 M102.255 161.800 C 102.867 162.680,103.420 163.475,103.484 163.567 C 103.548 163.658,103.600 163.562,103.600 163.352 C 103.600 163.142,103.047 162.347,102.371 161.585 L 101.142 160.200 102.255 161.800 M106.575 167.732 C 107.191 168.539,107.776 169.200,107.875 169.200 C 108.153 169.200,106.421 166.860,105.909 166.544 C 105.659 166.389,105.959 166.924,106.575 167.732 M109.483 171.785 C 110.317 172.986,111.141 173.976,111.313 173.985 C 111.485 173.993,110.878 173.010,109.965 171.800 C 107.825 168.966,107.519 168.956,109.483 171.785 M113.191 176.788 C 113.657 177.441,114.242 178.102,114.491 178.256 C 114.741 178.411,114.441 177.876,113.825 177.068 C 112.488 175.315,111.984 175.092,113.191 176.788 M115.554 179.936 C 115.999 180.560,116.683 181.325,117.074 181.636 C 117.465 181.946,117.188 181.435,116.459 180.500 C 114.974 178.596,114.302 178.177,115.554 179.936 M122.575 188.932 C 123.191 189.739,123.776 190.400,123.875 190.400 C 124.153 190.400,122.421 188.060,121.909 187.744 C 121.659 187.589,121.959 188.124,122.575 188.932 M125.141 192.300 C 125.871 193.235,126.554 194.000,126.661 194.000 C 126.973 194.000,125.303 191.781,124.526 191.164 C 124.135 190.854,124.412 191.365,125.141 192.300 M131.181 200.100 C 131.857 201.035,133.051 202.520,133.834 203.400 C 134.617 204.280,134.135 203.515,132.764 201.700 C 130.186 198.288,129.007 197.096,131.181 200.100 M135.452 205.600 C 136.374 206.957,141.600 213.232,141.600 212.983 C 141.600 212.695,136.705 206.606,135.664 205.600 C 135.113 205.067,135.089 205.067,135.452 205.600 M147.929 221.110 C 148.660 222.033,149.470 222.920,149.729 223.079 C 149.988 223.239,149.602 222.614,148.871 221.690 C 148.140 220.767,147.330 219.880,147.071 219.721 C 146.812 219.561,147.198 220.186,147.929 221.110 M156.020 230.900 C 157.388 232.605,158.589 234.000,158.687 234.000 C 158.925 234.000,156.847 231.405,155.004 229.400 C 154.195 228.520,154.652 229.195,156.020 230.900 M162.666 239.141 C 163.950 240.648,165.064 241.829,165.143 241.764 C 165.357 241.589,161.054 236.458,160.666 236.427 C 160.482 236.412,161.382 237.633,162.666 239.141 M167.200 244.525 C 167.200 244.594,167.773 245.179,168.474 245.825 L 169.749 247.000 168.774 245.722 C 167.947 244.637,167.200 244.069,167.200 244.525 M170.000 247.464 C 170.000 247.682,170.495 248.297,171.100 248.830 L 172.200 249.800 171.200 248.600 C 170.650 247.940,170.155 247.325,170.100 247.233 C 170.045 247.142,170.000 247.245,170.000 247.464 M173.001 251.198 C 173.660 251.967,174.245 252.672,174.300 252.765 C 174.355 252.857,174.487 252.846,174.594 252.739 C 174.701 252.633,174.116 251.928,173.295 251.173 L 171.802 249.800 173.001 251.198 M176.366 255.000 C 177.273 256.100,178.686 257.847,179.507 258.883 C 180.328 259.919,181.153 260.774,181.340 260.783 C 181.661 260.799,178.980 257.579,176.059 254.441 C 175.278 253.601,175.406 253.835,176.366 255.000 M181.600 261.325 C 181.600 261.394,182.185 261.979,182.900 262.625 L 184.200 263.800 183.025 262.500 C 181.930 261.288,181.600 261.016,181.600 261.325 M188.815 269.400 C 191.496 272.370,193.774 274.800,193.878 274.800 C 193.981 274.800,193.196 273.826,192.133 272.635 C 191.070 271.444,188.940 269.027,187.400 267.264 C 185.860 265.502,184.451 264.046,184.270 264.030 C 184.088 264.013,186.134 266.430,188.815 269.400 M197.174 278.700 C 199.010 280.735,200.595 282.400,200.697 282.400 C 200.965 282.400,196.287 277.183,194.958 276.000 C 194.340 275.450,195.337 276.665,197.174 278.700 M204.022 286.400 C 205.832 288.380,207.398 290.000,207.503 290.000 C 207.607 290.000,207.013 289.235,206.182 288.300 C 203.151 284.889,201.163 282.800,200.950 282.800 C 200.830 282.800,202.212 284.420,204.022 286.400 M210.224 293.300 C 211.321 294.455,213.623 296.877,215.337 298.682 C 217.052 300.487,218.397 301.818,218.327 301.638 C 218.257 301.458,216.220 299.202,213.800 296.623 C 211.380 294.044,209.340 291.769,209.267 291.567 C 209.193 291.365,208.929 291.200,208.680 291.200 C 208.431 291.200,209.126 292.145,210.224 293.300 M223.125 307.100 C 225.113 309.245,227.954 312.170,229.440 313.600 C 230.926 315.030,229.373 313.275,225.990 309.700 C 222.607 306.125,219.765 303.200,219.675 303.200 C 219.586 303.200,221.138 304.955,223.125 307.100 M236.433 320.971 C 241.442 326.102,249.810 334.461,250.315 334.837 C 250.692 335.117,247.762 332.074,243.804 328.073 C 239.846 324.073,236.531 320.800,236.438 320.800 C 236.344 320.800,236.342 320.877,236.433 320.971 M251.535 336.300 C 251.939 336.685,255.134 339.787,258.635 343.194 L 265.000 349.388 258.204 342.494 C 254.467 338.702,251.272 335.600,251.104 335.600 C 250.937 335.600,251.131 335.915,251.535 336.300 M266.800 351.119 C 266.800 351.347,266.973 351.593,267.184 351.667 C 267.395 351.740,269.690 353.871,272.284 356.402 C 281.149 365.053,286.964 370.600,286.433 369.901 C 285.339 368.457,266.800 350.722,266.800 351.119 M288.000 371.523 C 288.000 371.749,288.167 371.993,288.371 372.067 C 288.710 372.189,290.554 373.838,294.500 377.551 C 295.325 378.327,296.000 378.856,296.000 378.725 C 296.000 378.595,294.200 376.828,292.000 374.800 C 289.800 372.772,288.000 371.297,288.000 371.523 M297.200 379.792 C 297.200 380.094,296.950 379.852,302.106 384.539 C 304.248 386.485,306.000 387.995,306.000 387.894 C 306.000 387.792,304.020 385.868,301.600 383.618 C 299.180 381.368,297.200 379.646,297.200 379.792 M309.354 391.236 C 310.639 392.426,311.891 393.474,312.136 393.564 C 312.382 393.654,311.531 392.754,310.246 391.564 C 308.961 390.374,307.709 389.326,307.464 389.236 C 307.218 389.146,308.069 390.046,309.354 391.236 M312.439 394.100 C 312.535 394.155,313.420 394.920,314.406 395.800 L 316.200 397.400 314.619 395.700 C 313.749 394.765,312.864 394.000,312.652 394.000 C 312.440 394.000,312.344 394.045,312.439 394.100 M317.947 399.000 C 318.800 399.770,319.611 400.400,319.750 400.400 C 319.889 400.400,319.305 399.770,318.453 399.000 C 317.600 398.230,316.789 397.600,316.650 397.600 C 316.511 397.600,317.095 398.230,317.947 399.000 M322.045 402.457 C 324.478 404.755,328.650 408.412,330.400 409.780 C 332.587 411.490,327.805 407.118,323.800 403.745 C 321.820 402.078,321.030 401.498,322.045 402.457 M332.027 411.078 C 332.060 411.470,337.975 416.573,338.143 416.355 C 338.208 416.270,336.852 414.975,335.131 413.478 C 333.409 411.981,332.012 410.901,332.027 411.078 M338.800 416.925 C 338.800 416.994,339.385 417.579,340.100 418.225 L 341.400 419.400 340.225 418.100 C 339.130 416.888,338.800 416.616,338.800 416.925 M342.687 420.409 C 343.395 421.151,344.042 421.678,344.125 421.579 C 344.208 421.481,343.629 420.873,342.838 420.229 L 341.400 419.058 342.687 420.409 M344.924 422.277 C 345.260 422.821,348.400 425.355,348.400 425.082 C 348.400 424.980,347.553 424.203,346.519 423.355 C 345.484 422.507,344.766 422.022,344.924 422.277 M348.822 425.500 C 348.834 425.665,349.419 426.238,350.122 426.774 L 351.400 427.749 350.225 426.474 C 349.003 425.149,348.785 424.997,348.822 425.500 M354.124 429.877 C 354.460 430.421,357.600 432.955,357.600 432.682 C 357.600 432.580,356.753 431.803,355.719 430.955 C 354.684 430.107,353.966 429.622,354.124 429.877 M361.330 435.897 C 362.132 436.811,366.800 440.555,366.800 440.284 C 366.800 440.190,365.405 438.978,363.700 437.589 C 361.995 436.201,360.928 435.439,361.330 435.897 M370.530 443.497 C 371.332 444.411,376.000 448.155,376.000 447.884 C 376.000 447.790,374.605 446.578,372.900 445.189 C 371.195 443.801,370.128 443.039,370.530 443.497 M378.400 449.728 C 378.400 449.940,383.774 454.351,384.980 455.129 C 385.431 455.420,385.170 455.097,384.400 454.413 C 382.412 452.645,378.400 449.513,378.400 449.728 M386.598 456.337 C 387.034 456.852,387.753 457.459,388.196 457.686 C 389.045 458.121,388.921 457.987,387.003 456.394 C 385.848 455.435,385.834 455.433,386.598 456.337 M390.000 458.933 C 390.000 459.043,390.720 459.703,391.600 460.400 C 392.480 461.097,393.200 461.577,393.200 461.467 C 393.200 461.357,392.480 460.697,391.600 460.000 C 390.720 459.303,390.000 458.823,390.000 458.933 " stroke="none" fill="#d4d4d4" fill-rule="evenodd"></path></g></svg>