<svg id="svg" version="1.1" xmlns="http://www.w3.org/2000/svg" xmlns:xlink="http://www.w3.org/1999/xlink" width="400" height="6021.0526315789475" viewBox="0, 0, 400,6021.0526315789475"><g id="svgg"><path id="path0" d="M4.012 1.250 C 4.019 1.938,8.069 7.594,13.012 13.820 C 17.956 20.046,22.000 25.559,22.000 26.070 C 22.000 26.582,22.703 27.787,23.563 28.750 C 27.229 32.855,31.000 38.375,31.000 39.638 C 31.000 40.387,31.374 41.000,31.832 41.000 C 32.633 41.000,39.000 50.189,39.000 51.345 C 39.000 51.831,41.048 55.097,45.055 61.000 C 45.615 61.825,46.619 63.473,47.286 64.662 C 48.968 67.656,57.025 81.337,59.742 85.810 C 60.974 87.839,62.551 90.625,63.245 92.000 C 64.555 94.595,67.065 98.695,69.979 103.000 C 70.909 104.375,71.979 106.737,72.355 108.250 C 72.730 109.763,73.473 111.000,74.005 111.000 C 74.536 111.000,75.481 113.025,76.104 115.500 C 76.728 117.975,77.599 120.000,78.041 120.000 C 78.483 120.000,79.340 121.499,79.944 123.332 C 80.549 125.164,81.934 128.409,83.022 130.543 C 84.110 132.677,85.000 134.948,85.000 135.589 C 85.000 136.230,85.646 137.291,86.436 137.947 C 87.225 138.602,88.153 140.420,88.497 141.987 C 88.841 143.554,89.995 145.841,91.061 147.071 C 92.128 148.300,93.000 150.307,93.000 151.531 C 93.000 152.754,93.631 154.279,94.402 154.919 C 95.173 155.558,96.106 157.285,96.475 158.756 C 96.844 160.227,98.013 163.334,99.073 165.660 C 100.133 167.987,101.000 170.608,101.000 171.485 C 101.000 172.362,101.845 174.749,102.878 176.790 C 103.911 178.830,105.062 181.919,105.436 183.652 C 105.810 185.386,106.990 188.519,108.058 190.614 C 109.126 192.709,110.000 195.271,110.000 196.307 C 110.000 197.343,110.639 199.386,111.420 200.846 C 112.851 203.520,115.036 209.694,117.492 218.000 C 118.223 220.475,119.478 224.075,120.279 226.000 C 121.081 227.925,122.028 232.114,122.384 235.309 C 122.740 238.504,123.652 242.104,124.410 243.309 C 125.168 244.514,126.107 248.200,126.497 251.499 C 126.887 254.798,127.774 258.623,128.467 259.999 C 129.161 261.375,130.039 264.933,130.419 267.906 C 130.799 270.880,131.735 274.521,132.499 275.998 C 133.263 277.475,134.183 282.243,134.544 286.592 C 134.905 290.941,135.838 296.744,136.617 299.487 C 137.396 302.229,138.456 309.292,138.972 315.182 C 139.489 321.071,140.580 328.277,141.397 331.195 C 142.217 334.126,143.355 345.227,143.939 356.000 C 144.521 366.725,145.503 383.475,146.123 393.223 C 146.965 406.474,146.958 415.180,146.098 427.723 C 145.465 436.950,144.490 453.050,143.932 463.500 C 143.354 474.330,142.101 486.370,141.017 491.500 C 139.971 496.450,138.854 504.210,138.535 508.745 C 138.215 513.280,137.478 518.230,136.896 519.745 C 136.315 521.260,135.402 526.733,134.867 531.907 C 134.333 537.081,133.256 542.844,132.475 544.715 C 131.693 546.586,130.758 550.453,130.398 553.308 C 130.037 556.164,129.161 559.930,128.452 561.679 C 127.742 563.427,126.837 567.457,126.440 570.634 C 126.043 573.811,124.891 578.231,123.881 580.456 C 122.871 582.680,122.034 585.862,122.022 587.527 C 122.010 589.193,121.313 591.535,120.474 592.733 C 119.635 593.931,118.474 597.477,117.895 600.613 C 117.315 603.748,116.245 607.255,115.516 608.407 C 114.788 609.558,113.868 612.525,113.471 615.000 C 113.074 617.475,112.131 620.388,111.375 621.473 C 110.619 622.557,110.000 624.328,110.000 625.407 C 110.000 626.486,109.154 629.198,108.121 631.434 C 107.087 633.670,105.555 637.525,104.716 640.000 C 100.895 651.266,99.973 653.620,95.607 663.250 C 94.173 666.413,91.835 671.588,90.412 674.750 C 88.988 677.913,87.400 681.175,86.883 682.000 C 86.365 682.825,85.654 684.377,85.303 685.448 C 84.951 686.519,82.714 691.216,80.332 695.885 C 77.949 700.554,76.000 704.904,76.000 705.552 C 76.000 706.200,75.100 707.874,74.000 709.273 C 72.900 710.671,72.000 712.311,72.000 712.916 C 72.000 713.521,69.638 718.063,66.750 723.009 C 63.863 727.955,60.754 733.383,59.843 735.070 C 58.931 736.758,57.555 738.895,56.786 739.819 C 56.016 740.744,54.845 742.625,54.183 744.000 C 53.521 745.375,52.083 747.850,50.987 749.500 C 49.892 751.150,48.348 753.886,47.556 755.580 C 46.764 757.273,45.415 759.241,44.558 759.952 C 43.701 760.663,42.988 761.752,42.974 762.372 C 42.960 762.993,39.581 768.450,35.465 774.500 C 31.350 780.550,25.443 789.253,22.339 793.840 C 19.236 798.426,16.090 802.412,15.348 802.697 C 14.607 802.981,14.000 803.642,14.000 804.166 C 14.000 805.326,7.987 813.188,6.250 814.300 C 4.408 815.478,4.727 819.499,7.000 823.739 C 8.100 825.791,9.000 828.384,9.000 829.500 C 9.000 830.616,9.840 833.098,10.867 835.015 C 11.893 836.932,13.078 840.075,13.500 842.000 C 13.922 843.925,15.107 847.068,16.133 848.985 C 17.160 850.902,18.000 853.389,18.000 854.513 C 18.000 855.636,18.638 857.466,19.417 858.579 C 20.197 859.692,21.148 862.272,21.531 864.312 C 21.913 866.352,23.076 869.687,24.113 871.722 C 25.151 873.758,26.000 876.287,26.000 877.343 C 26.000 878.400,26.852 880.667,27.894 882.382 C 28.936 884.097,30.100 887.410,30.481 889.745 C 30.862 892.079,31.554 894.225,32.019 894.512 C 32.484 894.799,33.427 897.614,34.116 900.767 C 34.804 903.920,35.911 907.400,36.575 908.500 C 37.240 909.600,38.096 912.713,38.478 915.417 C 38.860 918.121,39.786 921.271,40.536 922.417 C 41.285 923.563,42.215 926.525,42.601 929.000 C 42.988 931.475,44.136 935.068,45.152 936.985 C 46.168 938.902,47.000 941.593,47.000 942.966 C 47.000 944.338,47.842 947.720,48.870 950.481 C 52.561 960.385,54.179 965.575,55.011 970.175 C 55.476 972.746,56.514 975.896,57.320 977.175 C 58.125 978.454,59.096 981.713,59.478 984.417 C 59.860 987.121,60.782 990.271,61.527 991.417 C 62.271 992.563,63.194 995.975,63.576 999.000 C 63.959 1002.025,64.833 1005.625,65.518 1007.000 C 66.203 1008.375,67.074 1011.525,67.454 1014.000 C 67.833 1016.475,69.012 1021.089,70.072 1024.254 C 71.132 1027.419,72.000 1031.146,72.000 1032.536 C 72.000 1033.927,72.713 1036.737,73.584 1038.782 C 74.455 1040.827,75.590 1045.390,76.104 1048.922 C 76.619 1052.454,77.494 1055.891,78.049 1056.559 C 78.603 1057.227,79.679 1060.862,80.439 1064.637 C 81.199 1068.412,82.292 1072.850,82.867 1074.500 C 84.591 1079.443,87.042 1089.981,88.494 1098.683 C 89.244 1103.184,90.314 1107.719,90.872 1108.760 C 91.429 1109.802,92.157 1113.094,92.489 1116.077 C 92.821 1119.060,93.940 1125.100,94.975 1129.500 C 96.010 1133.900,97.318 1139.975,97.881 1143.000 C 99.806 1153.339,101.087 1159.500,102.665 1166.000 C 103.532 1169.575,104.772 1176.100,105.420 1180.500 C 106.067 1184.900,107.098 1189.408,107.710 1190.518 C 108.321 1191.628,109.130 1196.353,109.507 1201.018 C 109.883 1205.683,110.796 1211.975,111.535 1215.000 C 112.274 1218.025,113.354 1224.853,113.935 1230.174 C 114.516 1235.495,115.446 1241.044,116.002 1242.505 C 116.557 1243.966,117.414 1249.795,117.906 1255.459 C 118.398 1261.124,119.313 1266.716,119.940 1267.888 C 120.567 1269.059,121.510 1274.920,122.036 1280.912 C 122.562 1286.904,123.634 1294.438,124.419 1297.653 C 125.204 1300.869,126.147 1309.048,126.516 1315.829 C 126.884 1322.610,127.604 1329.585,128.117 1331.329 C 128.630 1333.073,129.500 1340.575,130.050 1348.000 C 130.601 1355.425,131.707 1365.100,132.510 1369.500 C 133.312 1373.900,134.414 1385.375,134.959 1395.000 C 135.503 1404.625,136.399 1415.200,136.949 1418.500 C 137.499 1421.800,138.436 1436.200,139.031 1450.500 C 139.626 1464.800,140.556 1478.750,141.098 1481.500 C 143.962 1496.045,143.953 1700.806,141.087 1715.500 C 140.551 1718.250,139.631 1733.325,139.044 1749.000 C 138.456 1764.675,137.335 1781.550,136.552 1786.500 C 135.770 1791.450,134.846 1801.053,134.499 1807.841 C 134.153 1814.628,133.247 1823.434,132.486 1827.409 C 131.726 1831.384,130.821 1840.005,130.476 1846.568 C 130.131 1853.131,129.228 1862.100,128.469 1866.500 C 127.709 1870.900,126.806 1878.550,126.461 1883.500 C 126.117 1888.450,125.161 1894.943,124.338 1897.928 C 123.514 1900.914,122.461 1908.339,121.998 1914.428 C 121.535 1920.518,120.639 1926.850,120.006 1928.500 C 119.373 1930.150,118.426 1936.789,117.901 1943.254 C 117.377 1949.719,116.523 1956.125,116.003 1957.491 C 115.484 1958.856,114.573 1963.917,113.978 1968.737 C 113.382 1973.557,112.278 1979.750,111.523 1982.500 C 110.768 1985.250,109.847 1990.650,109.476 1994.500 C 109.105 1998.350,108.214 2002.915,107.496 2004.644 C 106.778 2006.374,105.861 2011.324,105.458 2015.644 C 105.056 2019.965,104.110 2025.252,103.356 2027.394 C 102.603 2029.536,101.530 2035.322,100.972 2040.251 C 100.413 2045.180,99.562 2049.953,99.081 2050.857 C 98.600 2051.760,97.663 2056.100,97.000 2060.500 C 96.337 2064.900,95.340 2069.352,94.786 2070.393 C 94.231 2071.434,93.402 2075.272,92.944 2078.922 C 92.485 2082.572,91.413 2086.896,90.561 2088.529 C 89.709 2090.163,89.010 2092.864,89.006 2094.532 C 89.003 2096.200,88.295 2100.025,87.432 2103.032 C 86.570 2106.039,85.249 2111.963,84.496 2116.196 C 83.744 2120.429,82.701 2124.704,82.179 2125.696 C 81.657 2126.688,80.899 2129.975,80.494 2133.000 C 80.089 2136.025,78.912 2140.654,77.879 2143.287 C 76.845 2145.920,75.997 2149.520,75.994 2151.287 C 75.990 2153.054,75.277 2155.850,74.409 2157.500 C 73.541 2159.150,72.394 2163.185,71.859 2166.466 C 71.324 2169.747,70.505 2172.897,70.037 2173.466 C 69.570 2174.035,68.630 2177.425,67.949 2181.000 C 67.267 2184.575,66.100 2188.715,65.355 2190.200 C 64.610 2191.686,63.980 2194.161,63.956 2195.700 C 63.932 2197.240,63.217 2200.300,62.367 2202.500 C 61.517 2204.700,60.183 2209.608,59.403 2213.407 C 58.623 2217.205,57.580 2220.805,57.085 2221.407 C 56.590 2222.008,55.727 2224.975,55.168 2228.000 C 54.609 2231.025,53.445 2234.850,52.582 2236.500 C 51.719 2238.150,51.000 2240.400,50.984 2241.500 C 50.969 2242.600,50.066 2245.462,48.978 2247.859 C 47.890 2250.257,47.000 2253.413,47.000 2254.874 C 47.000 2256.335,46.168 2259.098,45.152 2261.015 C 44.136 2262.932,43.000 2266.444,42.629 2268.820 C 42.258 2271.197,41.334 2274.122,40.576 2275.320 C 39.819 2276.519,38.691 2279.944,38.071 2282.932 C 37.451 2285.919,36.565 2288.844,36.102 2289.432 C 35.639 2290.019,34.958 2292.181,34.588 2294.236 C 34.217 2296.291,33.044 2299.891,31.979 2302.236 C 30.915 2304.581,30.034 2307.632,30.022 2309.015 C 30.010 2310.398,29.100 2313.209,28.000 2315.261 C 26.900 2317.314,25.998 2320.007,25.996 2321.246 C 25.994 2322.486,25.164 2324.859,24.151 2326.520 C 23.138 2328.181,21.977 2331.309,21.572 2333.469 C 21.166 2335.630,20.197 2338.308,19.417 2339.421 C 18.638 2340.534,18.000 2342.364,18.000 2343.487 C 18.000 2344.611,17.160 2347.098,16.133 2349.015 C 15.107 2350.932,13.937 2354.075,13.535 2356.000 C 13.133 2357.925,12.171 2360.500,11.397 2361.722 C 10.624 2362.944,9.512 2366.177,8.927 2368.906 C 8.341 2371.636,7.218 2374.404,6.431 2375.057 C 5.644 2375.710,5.000 2377.285,5.000 2378.557 C 5.000 2382.159,3.206 2386.000,1.525 2386.000 C 0.304 2386.000,0.000 2387.394,0.000 2393.000 L 0.000 2400.000 79.500 2400.000 L 159.000 2400.000 159.000 1200.000 L 159.000 0.000 81.500 0.000 C 20.160 0.000,4.003 0.261,4.012 1.250 " stroke="none" fill="#fbfafa" fill-rule="evenodd"></path><path id="path1" d="M0.000 411.000 C 0.000 772.111,0.169 818.000,1.500 818.000 C 2.325 818.000,3.000 817.145,3.000 816.100 C 3.000 815.055,5.925 810.577,9.500 806.149 C 13.075 801.721,16.000 797.626,16.000 797.049 C 16.000 796.472,16.438 796.000,16.974 796.000 C 17.510 796.000,18.698 794.538,19.614 792.750 C 20.530 790.962,21.707 789.223,22.230 788.885 C 22.753 788.547,23.703 787.356,24.340 786.239 C 26.681 782.140,33.374 772.470,34.566 771.465 C 35.241 770.896,36.514 768.871,37.395 766.965 C 38.275 765.059,39.884 762.150,40.970 760.500 C 42.055 758.850,43.873 755.925,45.009 754.000 C 46.145 752.075,48.166 748.700,49.501 746.500 C 50.835 744.300,52.506 741.373,53.213 739.995 C 54.463 737.563,60.354 728.283,64.135 722.790 C 65.161 721.300,66.000 719.443,66.000 718.663 C 66.000 717.883,66.652 716.704,67.449 716.042 C 68.246 715.381,69.428 713.189,70.075 711.170 C 70.723 709.152,71.818 706.825,72.508 706.000 C 73.199 705.175,74.105 703.375,74.522 702.000 C 74.939 700.625,76.117 697.932,77.140 696.015 C 78.163 694.098,79.000 692.144,79.000 691.673 C 79.000 691.201,79.900 689.671,81.000 688.273 C 82.100 686.874,83.000 684.736,83.000 683.520 C 83.000 682.305,83.900 680.495,85.000 679.500 C 86.100 678.505,87.000 676.695,87.000 675.480 C 87.000 674.264,87.900 672.126,89.000 670.727 C 90.100 669.329,91.000 667.634,91.000 666.960 C 91.000 666.287,91.862 664.333,92.916 662.618 C 93.970 660.903,95.142 657.829,95.521 655.786 C 95.899 653.743,96.802 651.579,97.526 650.978 C 98.251 650.377,99.145 648.102,99.513 645.923 C 99.881 643.743,100.844 641.299,101.652 640.490 C 102.461 639.682,103.389 637.328,103.715 635.260 C 104.041 633.192,105.139 629.932,106.154 628.015 C 107.169 626.098,108.015 623.623,108.034 622.515 C 108.053 621.407,108.937 618.700,110.000 616.500 C 111.063 614.300,111.947 611.405,111.966 610.066 C 111.985 608.727,112.856 605.802,113.903 603.566 C 114.950 601.330,116.097 597.399,116.452 594.832 C 116.807 592.264,117.712 589.654,118.462 589.031 C 119.212 588.409,120.136 585.560,120.516 582.700 C 120.895 579.840,121.787 576.150,122.498 574.500 C 123.209 572.850,124.307 568.148,124.938 564.052 C 125.569 559.955,126.519 556.080,127.049 555.441 C 127.580 554.802,128.458 550.778,129.000 546.500 C 129.542 542.222,130.484 538.122,131.092 537.389 C 131.700 536.656,132.596 530.982,133.083 524.778 C 133.570 518.575,134.610 511.700,135.395 509.500 C 136.180 507.300,137.117 501.087,137.476 495.693 C 137.835 490.299,138.708 484.224,139.416 482.193 C 140.236 479.842,140.963 469.599,141.419 454.000 C 141.812 440.525,142.464 425.225,142.867 420.000 C 143.271 414.775,143.281 406.225,142.891 401.000 C 142.500 395.775,141.850 380.475,141.447 367.000 C 140.979 351.384,140.245 341.161,139.421 338.807 C 138.711 336.776,137.846 330.701,137.501 325.307 C 137.155 319.913,136.219 313.665,135.420 311.423 C 134.621 309.181,133.574 302.087,133.095 295.660 C 132.615 289.232,131.682 283.322,131.023 282.527 C 130.363 281.732,129.437 278.026,128.966 274.291 C 128.494 270.556,127.451 266.150,126.648 264.500 C 125.845 262.850,124.868 259.025,124.476 256.000 C 124.085 252.975,123.201 249.375,122.510 248.000 C 121.820 246.625,120.930 242.832,120.533 239.571 C 120.136 236.310,119.228 232.710,118.514 231.571 C 117.801 230.432,116.904 227.289,116.523 224.586 C 116.141 221.884,114.967 218.065,113.914 216.101 C 112.861 214.137,112.000 211.521,112.000 210.289 C 112.000 209.057,111.102 206.575,110.004 204.774 C 108.906 202.973,108.003 200.600,107.998 199.500 C 107.992 198.400,107.258 196.150,106.365 194.500 C 105.473 192.850,104.350 189.509,103.869 187.076 C 103.389 184.643,102.370 181.943,101.607 181.076 C 100.843 180.209,99.909 177.613,99.531 175.308 C 99.153 173.002,98.226 170.602,97.471 169.976 C 96.716 169.349,95.802 166.863,95.440 164.450 C 95.079 162.038,94.156 159.545,93.391 158.910 C 92.626 158.275,92.000 157.244,92.000 156.620 C 92.000 155.995,90.875 153.371,89.500 150.788 C 88.125 148.205,87.000 145.579,87.000 144.954 C 87.000 144.328,86.100 142.671,85.000 141.273 C 83.900 139.874,83.000 137.952,83.000 137.000 C 83.000 136.048,82.159 134.197,81.130 132.885 C 80.102 131.573,78.948 129.069,78.566 127.319 C 78.184 125.570,77.254 123.626,76.500 123.000 C 75.746 122.374,74.816 120.430,74.434 118.681 C 74.052 116.931,72.898 114.427,71.870 113.115 C 70.841 111.803,70.000 109.666,70.000 108.365 C 70.000 107.064,69.540 106.000,68.979 106.000 C 68.417 106.000,67.408 104.763,66.738 103.250 C 65.677 100.857,63.838 97.805,59.962 92.000 C 58.580 89.931,55.422 84.154,53.540 80.250 C 52.678 78.463,51.573 77.000,51.084 77.000 C 50.596 77.000,49.684 75.762,49.058 74.250 C 48.433 72.737,46.817 69.700,45.468 67.500 C 44.118 65.300,42.362 62.114,41.565 60.420 C 40.768 58.727,39.415 56.759,38.558 56.048 C 37.701 55.337,37.000 54.131,37.000 53.368 C 37.000 52.605,36.100 51.210,35.000 50.268 C 33.900 49.326,33.000 48.035,33.000 47.398 C 33.000 46.761,30.975 43.633,28.500 40.446 C 26.025 37.258,24.000 34.124,24.000 33.480 C 24.000 32.837,23.100 31.495,22.000 30.500 C 20.900 29.505,20.000 28.101,20.000 27.380 C 20.000 26.660,19.130 25.605,18.068 25.036 C 17.005 24.467,15.836 23.057,15.469 21.902 C 15.102 20.747,14.059 18.994,13.151 18.006 C 12.243 17.018,10.600 15.085,9.500 13.710 C 3.118 5.732,1.571 4.000,0.826 4.000 C 0.372 4.000,0.000 187.150,0.000 411.000 " stroke="none" fill="#fc5454" fill-rule="evenodd"></path><path id="path2" d="M0.000 1598.917 C 0.000 2264.117,0.206 2380.000,1.386 2380.000 C 2.262 2380.000,3.021 2378.348,3.446 2375.512 C 3.816 2373.044,4.735 2370.408,5.487 2369.656 C 6.240 2368.903,7.179 2366.535,7.574 2364.394 C 7.970 2362.252,9.127 2358.932,10.147 2357.015 C 11.166 2355.098,12.000 2352.718,12.000 2351.725 C 12.000 2350.732,12.900 2348.156,14.000 2346.000 C 15.100 2343.844,16.003 2341.049,16.007 2339.790 C 16.010 2338.530,16.907 2336.150,18.000 2334.500 C 19.093 2332.850,19.991 2330.375,19.997 2329.000 C 20.003 2327.625,20.836 2325.141,21.849 2323.480 C 22.862 2321.819,24.005 2318.787,24.388 2316.743 C 24.772 2314.700,25.956 2311.109,27.021 2308.764 C 28.085 2306.419,28.966 2303.363,28.978 2301.973 C 28.990 2300.582,29.619 2298.557,30.375 2297.473 C 31.131 2296.388,32.089 2293.477,32.504 2291.005 C 32.919 2288.533,34.100 2284.940,35.129 2283.020 C 36.158 2281.100,37.003 2278.173,37.007 2276.515 C 37.010 2274.857,37.907 2272.150,39.000 2270.500 C 40.093 2268.850,40.993 2266.150,41.000 2264.500 C 41.007 2262.850,41.711 2260.159,42.566 2258.520 C 43.420 2256.882,44.587 2253.282,45.159 2250.520 C 45.731 2247.759,46.759 2244.600,47.443 2243.500 C 48.127 2242.400,49.005 2239.475,49.394 2237.000 C 49.783 2234.525,50.731 2231.537,51.502 2230.360 C 52.272 2229.183,53.201 2225.808,53.566 2222.860 C 53.931 2219.912,54.837 2216.528,55.578 2215.341 C 56.320 2214.153,57.376 2210.396,57.924 2206.991 C 58.472 2203.586,59.349 2200.283,59.873 2199.650 C 60.396 2199.018,61.351 2195.594,61.994 2192.042 C 62.637 2188.491,63.739 2184.441,64.442 2183.042 C 65.145 2181.644,65.985 2178.158,66.308 2175.295 C 66.631 2172.432,67.542 2169.057,68.333 2167.795 C 69.123 2166.533,70.074 2163.025,70.445 2160.000 C 70.816 2156.975,71.729 2153.563,72.473 2152.417 C 73.218 2151.271,74.120 2148.121,74.477 2145.417 C 74.835 2142.713,75.763 2138.925,76.541 2137.000 C 77.318 2135.075,78.373 2130.575,78.885 2127.000 C 79.397 2123.425,80.513 2118.700,81.364 2116.500 C 82.216 2114.300,82.942 2110.700,82.978 2108.500 C 83.014 2106.300,83.934 2102.538,85.022 2100.141 C 86.110 2097.743,87.000 2094.033,87.000 2091.895 C 87.000 2089.757,87.868 2085.419,88.929 2082.254 C 89.990 2079.089,91.167 2074.025,91.546 2071.000 C 91.925 2067.975,92.798 2064.375,93.486 2063.000 C 94.174 2061.625,95.057 2057.125,95.448 2053.000 C 95.838 2048.875,96.767 2044.150,97.512 2042.500 C 98.256 2040.850,99.323 2035.073,99.883 2029.663 C 100.442 2024.252,101.379 2019.249,101.963 2018.544 C 102.548 2017.840,103.433 2012.970,103.929 2007.723 C 104.426 2002.476,105.350 1997.215,105.983 1996.032 C 106.616 1994.850,107.553 1989.830,108.065 1984.878 C 108.577 1979.926,109.492 1974.949,110.098 1973.816 C 110.704 1972.684,111.612 1967.015,112.115 1961.218 C 112.618 1955.420,113.699 1948.709,114.515 1946.304 C 115.332 1943.898,116.014 1939.808,116.031 1937.215 C 116.075 1930.455,117.818 1917.926,118.896 1916.615 C 119.401 1916.002,120.112 1910.775,120.477 1905.000 C 120.841 1899.225,121.774 1892.250,122.550 1889.500 C 123.326 1886.750,124.416 1877.975,124.973 1870.000 C 125.529 1862.025,126.446 1853.925,127.011 1852.000 C 127.577 1850.075,128.467 1840.802,128.989 1831.394 C 129.512 1821.986,130.447 1812.986,131.066 1811.394 C 131.686 1809.802,132.595 1799.500,133.088 1788.500 C 133.580 1777.500,134.646 1763.775,135.456 1758.000 C 136.266 1752.225,137.189 1737.825,137.507 1726.000 C 137.825 1714.175,138.738 1696.175,139.536 1686.000 C 141.205 1664.714,141.574 1557.106,140.058 1533.500 C 139.564 1525.800,138.654 1504.425,138.037 1486.000 C 137.417 1467.495,136.251 1448.248,135.434 1443.000 C 134.619 1437.775,133.581 1422.909,133.127 1409.965 C 132.608 1395.193,131.856 1385.599,131.107 1384.199 C 130.450 1382.973,129.487 1374.530,128.967 1365.439 C 128.447 1356.347,127.591 1348.104,127.064 1347.120 C 126.538 1346.137,125.609 1338.395,124.999 1329.916 C 124.390 1321.437,123.282 1311.800,122.537 1308.500 C 121.793 1305.200,120.905 1297.687,120.564 1291.805 C 120.223 1285.923,119.303 1279.575,118.519 1277.699 C 117.735 1275.823,116.789 1270.061,116.417 1264.894 C 116.045 1259.727,115.111 1253.950,114.340 1252.055 C 113.570 1250.161,112.554 1243.813,112.082 1237.950 C 111.611 1232.087,110.768 1226.435,110.209 1225.391 C 109.650 1224.346,108.680 1218.366,108.054 1212.101 C 107.428 1205.836,106.484 1199.904,105.956 1198.918 C 105.428 1197.932,104.579 1193.160,104.068 1188.313 C 103.557 1183.466,102.481 1178.150,101.677 1176.500 C 100.874 1174.850,99.911 1170.125,99.538 1166.000 C 99.165 1161.875,98.250 1157.555,97.505 1156.400 C 96.760 1155.245,95.823 1150.973,95.422 1146.905 C 95.021 1142.838,94.120 1138.139,93.420 1136.462 C 92.719 1134.786,91.831 1130.508,91.446 1126.957 C 91.062 1123.406,90.124 1118.971,89.363 1117.103 C 88.602 1115.235,87.593 1110.253,87.121 1106.032 C 86.648 1101.811,85.703 1097.313,85.019 1096.036 C 84.336 1094.759,83.390 1090.633,82.917 1086.866 C 82.444 1083.099,81.417 1079.000,80.634 1077.758 C 79.852 1076.516,78.897 1072.832,78.512 1069.571 C 78.126 1066.310,77.230 1062.710,76.521 1061.571 C 75.811 1060.432,74.928 1057.067,74.560 1054.094 C 74.191 1051.120,73.264 1047.478,72.500 1046.000 C 71.736 1044.522,70.788 1040.880,70.394 1037.906 C 70.000 1034.933,68.860 1030.700,67.861 1028.500 C 66.861 1026.300,66.034 1022.790,66.022 1020.700 C 66.010 1018.611,65.344 1015.633,64.543 1014.084 C 63.742 1012.534,62.635 1008.462,62.083 1005.033 C 61.531 1001.605,60.651 998.283,60.127 997.650 C 59.604 997.018,58.655 993.624,58.018 990.108 C 57.381 986.593,56.260 982.768,55.526 981.608 C 54.791 980.449,53.883 977.160,53.508 974.300 C 53.133 971.440,52.212 968.591,51.462 967.969 C 50.712 967.346,49.825 964.736,49.492 962.168 C 49.159 959.601,48.290 956.375,47.560 955.000 C 46.830 953.625,45.758 950.241,45.176 947.480 C 44.595 944.718,43.420 941.118,42.566 939.480 C 41.711 937.841,41.010 934.960,41.006 933.079 C 41.003 931.197,40.312 928.897,39.470 927.967 C 38.629 927.037,37.532 923.766,37.032 920.698 C 36.533 917.630,35.470 914.080,34.671 912.810 C 33.871 911.539,32.925 908.423,32.567 905.885 C 32.210 903.347,31.276 900.422,30.491 899.385 C 29.706 898.348,29.049 896.358,29.032 894.961 C 29.014 893.565,28.104 890.665,27.009 888.518 C 25.914 886.370,24.732 883.012,24.382 881.056 C 24.033 879.100,23.130 876.791,22.376 875.924 C 21.622 875.057,20.623 872.308,20.158 869.815 C 19.692 867.322,18.566 864.218,17.655 862.918 C 16.745 861.619,16.000 859.411,16.000 858.013 C 16.000 856.614,15.100 853.791,14.000 851.739 C 12.900 849.686,12.000 847.211,12.000 846.239 C 12.000 845.266,11.166 842.902,10.147 840.985 C 9.127 839.068,7.964 835.700,7.562 833.500 C 7.160 831.300,6.206 828.802,5.441 827.950 C 4.677 827.097,3.689 824.655,3.246 822.523 C 0.004 806.918,0.000 807.886,0.000 1598.917 " stroke="none" fill="#3c4454" fill-rule="evenodd"></path><path id="path3" d="M3.164 822.235 C 3.688 824.565,4.727 827.152,5.473 827.985 C 6.220 828.818,7.160 831.300,7.562 833.500 C 7.964 835.700,9.127 839.068,10.147 840.985 C 11.166 842.902,12.000 845.266,12.000 846.239 C 12.000 847.211,12.900 849.686,14.000 851.739 C 15.100 853.791,16.000 856.614,16.000 858.013 C 16.000 859.411,16.745 861.619,17.655 862.918 C 18.566 864.218,19.692 867.322,20.158 869.815 C 20.623 872.308,21.622 875.057,22.376 875.924 C 23.130 876.791,24.033 879.100,24.382 881.056 C 24.732 883.012,25.914 886.370,27.009 888.518 C 28.104 890.665,29.014 893.565,29.032 894.961 C 29.049 896.358,29.706 898.348,30.491 899.385 C 31.276 900.422,32.210 903.347,32.567 905.885 C 32.925 908.423,33.871 911.539,34.671 912.810 C 35.470 914.080,36.533 917.630,37.032 920.698 C 37.532 923.766,38.629 927.037,39.470 927.967 C 40.312 928.897,41.003 931.197,41.006 933.079 C 41.010 934.960,41.711 937.841,42.566 939.480 C 43.420 941.118,44.595 944.718,45.176 947.480 C 45.758 950.241,46.830 953.625,47.560 955.000 C 48.290 956.375,49.159 959.601,49.492 962.168 C 49.825 964.736,50.712 967.346,51.462 967.969 C 52.212 968.591,53.133 971.440,53.508 974.300 C 53.883 977.160,54.791 980.449,55.526 981.608 C 56.260 982.768,57.381 986.593,58.018 990.108 C 58.655 993.624,59.604 997.018,60.127 997.650 C 60.651 998.283,61.531 1001.605,62.083 1005.033 C 62.635 1008.462,63.742 1012.534,64.543 1014.084 C 65.344 1015.633,66.010 1018.611,66.022 1020.700 C 66.034 1022.790,66.861 1026.300,67.861 1028.500 C 68.860 1030.700,70.000 1034.933,70.394 1037.906 C 70.788 1040.880,71.736 1044.522,72.500 1046.000 C 73.264 1047.478,74.191 1051.120,74.560 1054.094 C 74.928 1057.067,75.811 1060.432,76.521 1061.571 C 77.230 1062.710,78.126 1066.310,78.512 1069.571 C 78.897 1072.832,79.852 1076.516,80.634 1077.758 C 81.417 1079.000,82.444 1083.099,82.917 1086.866 C 83.390 1090.633,84.336 1094.759,85.019 1096.036 C 85.703 1097.313,86.648 1101.811,87.121 1106.032 C 87.593 1110.253,88.602 1115.235,89.363 1117.103 C 90.124 1118.971,91.062 1123.406,91.446 1126.957 C 91.831 1130.508,92.719 1134.786,93.420 1136.462 C 94.120 1138.139,95.021 1142.838,95.422 1146.905 C 95.823 1150.973,96.760 1155.245,97.505 1156.400 C 98.250 1157.555,99.165 1161.875,99.538 1166.000 C 99.911 1170.125,100.874 1174.850,101.677 1176.500 C 102.481 1178.150,103.557 1183.466,104.068 1188.313 C 104.579 1193.160,105.428 1197.932,105.956 1198.918 C 106.484 1199.904,107.428 1205.836,108.054 1212.101 C 108.680 1218.366,109.650 1224.346,110.209 1225.391 C 110.768 1226.435,111.611 1232.087,112.082 1237.950 C 112.554 1243.813,113.570 1250.161,114.340 1252.055 C 115.111 1253.950,116.045 1259.727,116.417 1264.894 C 116.789 1270.061,117.735 1275.823,118.519 1277.699 C 119.303 1279.575,120.223 1285.923,120.564 1291.805 C 120.905 1297.687,121.793 1305.200,122.537 1308.500 C 123.282 1311.800,124.390 1321.437,124.999 1329.916 C 125.609 1338.395,126.538 1346.137,127.064 1347.120 C 127.591 1348.104,128.447 1356.347,128.967 1365.439 C 129.487 1374.530,130.450 1382.973,131.107 1384.199 C 131.856 1385.599,132.608 1395.193,133.127 1409.965 C 133.581 1422.909,134.619 1437.775,135.434 1443.000 C 136.251 1448.248,137.417 1467.495,138.037 1486.000 C 138.654 1504.425,139.564 1525.800,140.058 1533.500 C 141.574 1557.106,141.205 1664.714,139.536 1686.000 C 138.738 1696.175,137.825 1714.175,137.507 1726.000 C 137.189 1737.825,136.266 1752.225,135.456 1758.000 C 134.646 1763.775,133.580 1777.500,133.088 1788.500 C 132.595 1799.500,131.686 1809.802,131.066 1811.394 C 130.447 1812.986,129.512 1821.986,128.989 1831.394 C 128.467 1840.802,127.577 1850.075,127.011 1852.000 C 126.446 1853.925,125.529 1862.025,124.973 1870.000 C 124.416 1877.975,123.326 1886.750,122.550 1889.500 C 121.774 1892.250,120.841 1899.225,120.477 1905.000 C 120.112 1910.775,119.401 1916.002,118.896 1916.615 C 117.818 1917.926,116.075 1930.455,116.031 1937.215 C 116.014 1939.808,115.332 1943.898,114.515 1946.304 C 113.699 1948.709,112.618 1955.420,112.115 1961.218 C 111.612 1967.015,110.704 1972.684,110.098 1973.816 C 109.492 1974.949,108.577 1979.926,108.065 1984.878 C 107.553 1989.830,106.616 1994.850,105.983 1996.032 C 105.350 1997.215,104.426 2002.476,103.929 2007.723 C 103.433 2012.970,102.548 2017.840,101.963 2018.544 C 101.379 2019.249,100.442 2024.252,99.883 2029.663 C 99.323 2035.073,98.256 2040.850,97.512 2042.500 C 96.767 2044.150,95.838 2048.875,95.448 2053.000 C 95.057 2057.125,94.174 2061.625,93.486 2063.000 C 92.798 2064.375,91.925 2067.975,91.546 2071.000 C 91.167 2074.025,89.990 2079.089,88.929 2082.254 C 87.868 2085.419,87.000 2089.757,87.000 2091.895 C 87.000 2094.033,86.110 2097.743,85.022 2100.141 C 83.934 2102.538,83.014 2106.300,82.978 2108.500 C 82.942 2110.700,82.216 2114.300,81.364 2116.500 C 80.513 2118.700,79.397 2123.425,78.885 2127.000 C 78.373 2130.575,77.318 2135.075,76.541 2137.000 C 75.763 2138.925,74.835 2142.713,74.477 2145.417 C 74.120 2148.121,73.218 2151.271,72.473 2152.417 C 71.729 2153.563,70.816 2156.975,70.445 2160.000 C 70.074 2163.025,69.123 2166.533,68.333 2167.795 C 67.542 2169.057,66.631 2172.432,66.308 2175.295 C 65.985 2178.158,65.145 2181.644,64.442 2183.042 C 63.739 2184.441,62.637 2188.491,61.994 2192.042 C 61.351 2195.594,60.396 2199.018,59.873 2199.650 C 59.349 2200.283,58.472 2203.586,57.924 2206.991 C 57.376 2210.396,56.320 2214.153,55.578 2215.341 C 54.837 2216.528,53.931 2219.912,53.566 2222.860 C 53.201 2225.808,52.272 2229.183,51.502 2230.360 C 50.731 2231.537,49.783 2234.525,49.394 2237.000 C 49.005 2239.475,48.127 2242.400,47.443 2243.500 C 46.759 2244.600,45.731 2247.759,45.159 2250.520 C 44.587 2253.282,43.420 2256.882,42.566 2258.520 C 41.711 2260.159,41.007 2262.850,41.000 2264.500 C 40.993 2266.150,40.093 2268.850,39.000 2270.500 C 37.907 2272.150,37.010 2274.857,37.007 2276.515 C 37.003 2278.173,36.158 2281.100,35.129 2283.020 C 34.100 2284.940,32.919 2288.533,32.504 2291.005 C 32.089 2293.477,31.131 2296.388,30.375 2297.473 C 29.619 2298.557,28.990 2300.582,28.978 2301.973 C 28.966 2303.363,28.085 2306.419,27.021 2308.764 C 25.956 2311.109,24.772 2314.700,24.388 2316.743 C 24.005 2318.787,22.862 2321.819,21.849 2323.480 C 20.836 2325.141,20.003 2327.625,19.997 2329.000 C 19.991 2330.375,19.093 2332.850,18.000 2334.500 C 16.907 2336.150,16.010 2338.530,16.007 2339.790 C 16.003 2341.049,15.100 2343.844,14.000 2346.000 C 12.900 2348.156,12.000 2350.732,12.000 2351.725 C 12.000 2352.718,11.166 2355.098,10.147 2357.015 C 9.127 2358.932,7.970 2362.252,7.574 2364.394 C 7.179 2366.535,6.240 2368.903,5.487 2369.656 C 4.735 2370.408,3.816 2373.044,3.446 2375.512 C 3.021 2378.348,2.262 2380.000,1.386 2380.000 C 0.513 2380.000,0.000 2381.109,0.000 2383.000 C 0.000 2387.637,2.712 2386.796,4.030 2381.750 C 4.641 2379.412,5.947 2375.925,6.932 2374.000 C 7.916 2372.075,9.042 2368.748,9.433 2366.606 C 9.825 2364.465,10.725 2362.132,11.434 2361.423 C 12.143 2360.714,12.999 2358.417,13.337 2356.317 C 13.675 2354.218,14.862 2350.717,15.976 2348.539 C 17.089 2346.360,18.000 2343.756,18.000 2342.753 C 18.000 2341.750,18.631 2339.933,19.402 2338.715 C 20.173 2337.497,21.117 2334.925,21.500 2333.000 C 21.883 2331.075,22.819 2328.516,23.580 2327.313 C 24.341 2326.111,25.446 2322.972,26.036 2320.339 C 26.626 2317.705,27.545 2315.281,28.078 2314.952 C 28.611 2314.622,29.471 2311.751,29.988 2308.571 C 30.506 2305.392,31.362 2302.269,31.891 2301.632 C 32.419 2300.995,33.401 2298.229,34.072 2295.487 C 34.743 2292.744,35.839 2289.375,36.507 2288.000 C 37.175 2286.625,38.020 2283.556,38.384 2281.180 C 38.748 2278.803,39.677 2275.878,40.449 2274.680 C 41.221 2273.481,42.181 2270.705,42.582 2268.510 C 42.984 2266.316,44.132 2262.716,45.134 2260.510 C 46.136 2258.305,46.969 2255.375,46.984 2254.000 C 47.000 2252.625,47.668 2250.243,48.469 2248.708 C 49.270 2247.172,50.227 2244.247,50.596 2242.208 C 50.965 2240.168,51.894 2237.262,52.660 2235.749 C 53.425 2234.237,54.497 2230.637,55.040 2227.749 C 55.583 2224.862,56.645 2221.150,57.399 2219.500 C 58.153 2217.850,59.082 2214.250,59.463 2211.500 C 59.844 2208.750,60.757 2205.563,61.492 2204.417 C 62.226 2203.271,63.147 2200.121,63.537 2197.417 C 63.927 2194.713,64.815 2191.104,65.510 2189.398 C 66.205 2187.692,67.095 2184.400,67.486 2182.081 C 67.878 2179.763,69.054 2175.433,70.099 2172.458 C 71.145 2169.484,72.015 2165.801,72.034 2164.275 C 72.053 2162.749,72.937 2159.700,74.000 2157.500 C 75.063 2155.300,75.947 2151.993,75.966 2150.151 C 75.985 2148.309,76.682 2145.365,77.515 2143.609 C 78.349 2141.852,79.672 2137.059,80.455 2132.958 C 81.873 2125.532,82.369 2123.365,85.481 2111.000 C 86.381 2107.425,87.750 2101.125,88.524 2097.000 C 89.298 2092.875,90.602 2087.700,91.422 2085.500 C 92.241 2083.300,92.932 2079.798,92.956 2077.718 C 92.980 2075.638,93.640 2072.405,94.422 2070.533 C 95.204 2068.662,96.375 2063.614,97.025 2059.315 C 97.674 2055.017,98.600 2050.760,99.081 2049.857 C 99.562 2048.953,100.426 2044.067,101.000 2039.000 C 101.574 2033.933,102.505 2028.924,103.069 2027.870 C 103.634 2026.816,104.533 2022.027,105.069 2017.227 C 105.605 2012.427,106.690 2006.475,107.480 2004.000 C 108.270 2001.525,109.197 1996.575,109.542 1993.000 C 109.886 1989.425,110.774 1984.475,111.516 1982.000 C 112.258 1979.525,113.153 1974.575,113.505 1971.000 C 113.858 1967.425,114.787 1961.800,115.570 1958.500 C 116.353 1955.200,117.418 1947.536,117.938 1941.468 C 118.458 1935.401,119.369 1929.160,119.962 1927.600 C 120.555 1926.040,121.454 1919.694,121.959 1913.498 C 122.464 1907.301,123.545 1899.817,124.361 1896.866 C 125.177 1893.915,126.137 1887.225,126.496 1882.000 C 126.854 1876.775,127.594 1870.475,128.140 1868.000 C 128.687 1865.525,129.545 1857.059,130.047 1849.188 C 130.549 1841.316,131.618 1830.966,132.423 1826.188 C 133.228 1821.409,134.168 1812.325,134.514 1806.000 C 134.860 1799.675,135.768 1790.000,136.533 1784.500 C 137.297 1779.000,138.420 1762.125,139.027 1747.000 C 139.634 1731.875,140.565 1717.025,141.095 1714.000 C 143.825 1698.433,143.757 1497.830,141.017 1483.000 C 140.458 1479.975,139.542 1466.250,138.980 1452.500 C 138.419 1438.750,137.326 1422.550,136.552 1416.500 C 135.778 1410.450,134.880 1399.385,134.555 1391.912 C 134.231 1384.438,133.294 1374.813,132.473 1370.523 C 131.652 1366.233,130.536 1356.823,129.993 1349.612 C 129.450 1342.400,128.583 1334.700,128.067 1332.500 C 127.551 1330.300,126.675 1321.959,126.120 1313.963 C 125.566 1305.968,124.667 1298.255,124.123 1296.823 C 123.578 1295.390,122.642 1288.944,122.042 1282.498 C 121.442 1276.051,120.510 1269.953,119.970 1268.945 C 119.431 1267.937,118.520 1262.539,117.947 1256.950 C 117.373 1251.360,116.285 1244.247,115.529 1241.143 C 114.772 1238.040,113.861 1232.350,113.504 1228.500 C 113.147 1224.650,112.250 1219.025,111.510 1216.000 C 110.771 1212.975,109.851 1206.715,109.465 1202.089 C 109.079 1197.463,108.174 1192.268,107.455 1190.546 C 106.735 1188.823,105.825 1184.508,105.433 1180.957 C 105.041 1177.406,103.883 1171.854,102.860 1168.620 C 101.837 1165.386,101.000 1161.239,101.000 1159.405 C 101.000 1157.571,100.330 1154.096,99.510 1151.683 C 98.691 1149.270,97.528 1143.753,96.926 1139.424 C 96.324 1135.096,95.408 1130.762,94.890 1129.794 C 94.372 1128.827,93.500 1124.458,92.951 1120.085 C 92.403 1115.713,91.347 1110.643,90.604 1108.818 C 89.861 1106.993,88.955 1102.737,88.589 1099.359 C 88.224 1095.982,87.042 1090.706,85.963 1087.634 C 84.883 1084.563,84.000 1080.923,84.000 1079.545 C 84.000 1078.168,83.352 1075.344,82.561 1073.270 C 81.769 1071.197,80.595 1066.800,79.952 1063.500 C 79.309 1060.200,78.391 1057.015,77.912 1056.422 C 77.433 1055.829,76.611 1052.311,76.086 1048.604 C 75.561 1044.896,74.628 1041.257,74.012 1040.515 C 73.397 1039.773,72.420 1036.092,71.842 1032.333 C 71.263 1028.575,70.436 1025.050,70.003 1024.500 C 69.571 1023.950,68.691 1020.800,68.048 1017.500 C 67.405 1014.200,66.285 1009.925,65.558 1008.000 C 64.832 1006.075,63.903 1002.036,63.494 999.024 C 63.085 996.013,62.175 992.638,61.471 991.524 C 60.768 990.411,59.881 987.475,59.500 985.000 C 59.119 982.525,58.212 979.558,57.484 978.407 C 56.755 977.255,55.677 973.706,55.088 970.520 C 54.499 967.333,53.576 964.194,53.037 963.545 C 52.498 962.895,51.542 959.919,50.912 956.932 C 50.282 953.944,49.365 950.999,48.875 950.387 C 48.384 949.775,47.501 946.667,46.912 943.480 C 46.323 940.294,45.245 936.745,44.516 935.593 C 43.788 934.442,42.881 931.475,42.500 929.000 C 42.119 926.525,41.208 923.552,40.475 922.394 C 39.743 921.236,38.691 918.086,38.139 915.394 C 37.190 910.766,35.250 904.212,32.843 897.500 C 32.251 895.850,31.091 892.025,30.265 889.000 C 29.439 885.975,28.141 882.612,27.381 881.527 C 26.622 880.443,26.000 878.636,26.000 877.513 C 26.000 876.389,25.160 873.902,24.133 871.985 C 23.107 870.068,21.937 866.925,21.535 865.000 C 21.133 863.075,20.173 860.503,19.402 859.285 C 18.631 858.067,18.000 856.250,18.000 855.247 C 18.000 854.244,17.104 851.665,16.009 849.518 C 14.914 847.370,13.723 844.012,13.362 842.056 C 13.002 840.100,11.873 836.932,10.853 835.015 C 9.834 833.098,9.000 830.727,9.000 829.746 C 9.000 827.582,4.107 818.000,3.001 818.000 C 2.568 818.000,2.641 819.906,3.164 822.235 " stroke="none" fill="#8c949c" fill-rule="evenodd"></path><path id="path4" d="M-0.000 1.418 C -0.000 2.199,1.688 4.664,3.750 6.897 C 5.813 9.130,8.400 12.145,9.500 13.597 C 10.600 15.049,12.243 17.040,13.151 18.020 C 14.059 19.000,15.102 20.747,15.469 21.902 C 15.836 23.057,17.005 24.467,18.068 25.036 C 19.130 25.605,20.000 26.660,20.000 27.380 C 20.000 28.101,20.900 29.505,22.000 30.500 C 23.100 31.495,24.000 32.837,24.000 33.480 C 24.000 34.124,26.025 37.258,28.500 40.446 C 30.975 43.633,33.000 46.761,33.000 47.398 C 33.000 48.035,33.900 49.326,35.000 50.268 C 36.100 51.210,37.000 52.605,37.000 53.368 C 37.000 54.131,37.701 55.337,38.558 56.048 C 39.415 56.759,40.768 58.727,41.565 60.420 C 42.362 62.114,44.118 65.300,45.468 67.500 C 46.817 69.700,48.433 72.737,49.058 74.250 C 49.684 75.762,50.596 77.000,51.084 77.000 C 51.573 77.000,52.678 78.463,53.540 80.250 C 55.422 84.154,58.580 89.931,59.962 92.000 C 63.838 97.805,65.677 100.857,66.738 103.250 C 67.408 104.763,68.417 106.000,68.979 106.000 C 69.540 106.000,70.000 107.064,70.000 108.365 C 70.000 109.666,70.841 111.803,71.870 113.115 C 72.898 114.427,74.052 116.931,74.434 118.681 C 74.816 120.430,75.746 122.374,76.500 123.000 C 77.254 123.626,78.184 125.570,78.566 127.319 C 78.948 129.069,80.102 131.573,81.130 132.885 C 82.159 134.197,83.000 136.048,83.000 137.000 C 83.000 137.952,83.900 139.874,85.000 141.273 C 86.100 142.671,87.000 144.328,87.000 144.954 C 87.000 145.579,88.125 148.205,89.500 150.788 C 90.875 153.371,92.000 155.995,92.000 156.620 C 92.000 157.244,92.626 158.275,93.391 158.910 C 94.156 159.545,95.079 162.038,95.440 164.450 C 95.802 166.863,96.716 169.349,97.471 169.976 C 98.226 170.602,99.153 173.002,99.531 175.308 C 99.909 177.613,100.843 180.209,101.607 181.076 C 102.370 181.943,103.389 184.643,103.869 187.076 C 104.350 189.509,105.473 192.850,106.365 194.500 C 107.258 196.150,107.992 198.400,107.998 199.500 C 108.003 200.600,108.906 202.973,110.004 204.774 C 111.102 206.575,112.000 209.057,112.000 210.289 C 112.000 211.521,112.861 214.137,113.914 216.101 C 114.967 218.065,116.141 221.884,116.523 224.586 C 116.904 227.289,117.801 230.432,118.514 231.571 C 119.228 232.710,120.136 236.310,120.533 239.571 C 120.930 242.832,121.820 246.625,122.510 248.000 C 123.201 249.375,124.085 252.975,124.476 256.000 C 124.868 259.025,125.845 262.850,126.648 264.500 C 127.451 266.150,128.494 270.556,128.966 274.291 C 129.437 278.026,130.363 281.732,131.023 282.527 C 131.682 283.322,132.615 289.232,133.095 295.660 C 133.574 302.087,134.621 309.181,135.420 311.423 C 136.219 313.665,137.155 319.913,137.501 325.307 C 137.846 330.701,138.711 336.776,139.421 338.807 C 140.246 341.164,140.976 351.362,141.439 367.000 C 141.838 380.475,142.488 395.775,142.883 401.000 C 143.278 406.225,143.274 414.775,142.875 420.000 C 142.476 425.225,141.824 440.525,141.427 454.000 C 140.967 469.578,140.235 479.845,139.416 482.193 C 138.708 484.224,137.835 490.299,137.476 495.693 C 137.117 501.087,136.180 507.300,135.395 509.500 C 134.610 511.700,133.570 518.575,133.083 524.778 C 132.596 530.982,131.700 536.656,131.092 537.389 C 130.484 538.122,129.542 542.222,129.000 546.500 C 128.458 550.778,127.580 554.802,127.049 555.441 C 126.519 556.080,125.569 559.955,124.938 564.052 C 124.307 568.148,123.209 572.850,122.498 574.500 C 121.787 576.150,120.895 579.840,120.516 582.700 C 120.136 585.560,119.212 588.409,118.462 589.031 C 117.712 589.654,116.807 592.264,116.452 594.832 C 116.097 597.399,114.950 601.330,113.903 603.566 C 112.856 605.802,111.985 608.727,111.966 610.066 C 111.947 611.405,111.063 614.300,110.000 616.500 C 108.937 618.700,108.053 621.407,108.034 622.515 C 108.015 623.623,107.169 626.098,106.154 628.015 C 105.139 629.932,104.041 633.192,103.715 635.260 C 103.389 637.328,102.461 639.682,101.652 640.490 C 100.844 641.299,99.881 643.743,99.513 645.923 C 99.145 648.102,98.251 650.377,97.526 650.978 C 96.802 651.579,95.899 653.743,95.521 655.786 C 95.142 657.829,93.970 660.903,92.916 662.618 C 91.862 664.333,91.000 666.287,91.000 666.960 C 91.000 667.634,90.100 669.329,89.000 670.727 C 87.900 672.126,87.000 674.264,87.000 675.480 C 87.000 676.695,86.100 678.505,85.000 679.500 C 83.900 680.495,83.000 682.305,83.000 683.520 C 83.000 684.736,82.100 686.874,81.000 688.273 C 79.900 689.671,79.000 691.201,79.000 691.673 C 79.000 692.144,78.163 694.098,77.140 696.015 C 76.117 697.932,74.939 700.625,74.522 702.000 C 74.105 703.375,73.199 705.175,72.508 706.000 C 71.818 706.825,70.723 709.152,70.075 711.170 C 69.428 713.189,68.246 715.381,67.449 716.042 C 66.652 716.704,66.000 717.883,66.000 718.663 C 66.000 719.443,65.161 721.300,64.135 722.790 C 60.354 728.283,54.463 737.563,53.213 739.995 C 52.506 741.373,50.835 744.300,49.501 746.500 C 48.166 748.700,46.145 752.075,45.009 754.000 C 43.873 755.925,42.055 758.850,40.970 760.500 C 39.884 762.150,38.275 765.059,37.395 766.965 C 36.514 768.871,35.241 770.896,34.566 771.465 C 33.374 772.470,26.681 782.140,24.340 786.239 C 23.703 787.356,22.753 788.547,22.230 788.885 C 21.707 789.223,20.530 790.962,19.614 792.750 C 18.698 794.538,17.510 796.000,16.974 796.000 C 16.438 796.000,16.000 796.472,16.000 797.049 C 16.000 797.626,13.075 801.721,9.500 806.149 C 3.286 813.845,1.815 817.150,4.000 818.500 C 4.550 818.840,5.000 818.214,5.000 817.109 C 5.000 816.004,5.562 814.740,6.250 814.300 C 7.987 813.188,14.000 805.326,14.000 804.166 C 14.000 803.642,14.607 802.981,15.348 802.697 C 16.090 802.412,19.236 798.426,22.339 793.840 C 25.443 789.253,31.350 780.550,35.465 774.500 C 39.581 768.450,42.960 762.993,42.974 762.372 C 42.988 761.752,43.701 760.663,44.558 759.952 C 45.415 759.241,46.764 757.273,47.556 755.580 C 48.348 753.886,49.892 751.150,50.987 749.500 C 52.083 747.850,53.521 745.375,54.183 744.000 C 54.845 742.625,56.016 740.744,56.786 739.819 C 57.555 738.895,58.931 736.758,59.843 735.070 C 60.754 733.383,63.863 727.955,66.750 723.009 C 69.638 718.063,72.000 713.521,72.000 712.916 C 72.000 712.311,72.900 710.671,74.000 709.273 C 75.100 707.874,76.000 706.200,76.000 705.552 C 76.000 704.904,77.949 700.554,80.332 695.885 C 82.714 691.216,84.951 686.519,85.303 685.448 C 85.654 684.377,86.365 682.825,86.883 682.000 C 87.400 681.175,88.988 677.913,90.412 674.750 C 91.835 671.588,94.173 666.413,95.607 663.250 C 99.973 653.620,100.895 651.266,104.716 640.000 C 105.555 637.525,107.087 633.670,108.121 631.434 C 109.154 629.198,110.000 626.486,110.000 625.407 C 110.000 624.328,110.619 622.557,111.375 621.473 C 112.131 620.388,113.074 617.475,113.471 615.000 C 113.868 612.525,114.788 609.558,115.516 608.407 C 116.245 607.255,117.315 603.748,117.895 600.613 C 118.474 597.477,119.635 593.931,120.474 592.733 C 121.313 591.535,122.010 589.193,122.022 587.527 C 122.034 585.862,122.871 582.680,123.881 580.456 C 124.891 578.231,126.043 573.811,126.440 570.634 C 126.837 567.457,127.742 563.427,128.452 561.679 C 129.161 559.930,130.037 556.164,130.398 553.308 C 130.758 550.453,131.693 546.586,132.475 544.715 C 133.256 542.844,134.333 537.081,134.867 531.907 C 135.402 526.733,136.315 521.260,136.896 519.745 C 137.478 518.230,138.215 513.280,138.535 508.745 C 138.854 504.210,139.971 496.450,141.017 491.500 C 142.101 486.370,143.354 474.330,143.932 463.500 C 144.490 453.050,145.465 436.950,146.098 427.723 C 146.958 415.180,146.965 406.474,146.123 393.223 C 145.503 383.475,144.521 366.725,143.939 356.000 C 143.355 345.227,142.217 334.126,141.397 331.195 C 140.580 328.277,139.489 321.071,138.972 315.182 C 138.456 309.292,137.396 302.229,136.617 299.487 C 135.838 296.744,134.905 290.941,134.544 286.592 C 134.183 282.243,133.263 277.475,132.499 275.998 C 131.735 274.521,130.799 270.880,130.419 267.906 C 130.039 264.933,129.161 261.375,128.467 259.999 C 127.774 258.623,126.887 254.798,126.497 251.499 C 126.107 248.200,125.168 244.514,124.410 243.309 C 123.652 242.104,122.740 238.504,122.384 235.309 C 122.028 232.114,121.081 227.925,120.279 226.000 C 119.478 224.075,118.223 220.475,117.492 218.000 C 115.036 209.694,112.851 203.520,111.420 200.846 C 110.639 199.386,110.000 197.343,110.000 196.307 C 110.000 195.271,109.126 192.709,108.058 190.614 C 106.990 188.519,105.810 185.386,105.436 183.652 C 105.062 181.919,103.911 178.830,102.878 176.790 C 101.845 174.749,101.000 172.362,101.000 171.485 C 101.000 170.608,100.133 167.987,99.073 165.660 C 98.013 163.334,96.844 160.227,96.475 158.756 C 96.106 157.285,95.173 155.558,94.402 154.919 C 93.631 154.279,93.000 152.754,93.000 151.531 C 93.000 150.307,92.128 148.300,91.061 147.071 C 89.995 145.841,88.841 143.554,88.497 141.987 C 88.153 140.420,87.225 138.602,86.436 137.947 C 85.646 137.291,85.000 136.230,85.000 135.589 C 85.000 134.948,84.110 132.677,83.022 130.543 C 81.934 128.409,80.549 125.164,79.944 123.332 C 79.340 121.499,78.483 120.000,78.041 120.000 C 77.599 120.000,76.728 117.975,76.104 115.500 C 75.481 113.025,74.536 111.000,74.005 111.000 C 73.473 111.000,72.730 109.763,72.355 108.250 C 71.979 106.737,70.909 104.375,69.979 103.000 C 67.065 98.695,64.555 94.595,63.245 92.000 C 62.551 90.625,60.974 87.839,59.742 85.810 C 57.025 81.337,48.968 67.656,47.286 64.662 C 46.619 63.473,45.615 61.825,45.055 61.000 C 41.048 55.097,39.000 51.831,39.000 51.345 C 39.000 50.189,32.633 41.000,31.832 41.000 C 31.374 41.000,31.000 40.387,31.000 39.638 C 31.000 38.375,27.229 32.855,23.563 28.750 C 22.703 27.788,22.000 26.582,22.000 26.070 C 22.000 25.559,17.956 20.046,13.012 13.820 C 8.069 7.594,4.019 1.938,4.012 1.250 C 4.006 0.563,3.100 0.000,2.000 0.000 C 0.900 0.000,-0.000 0.638,-0.000 1.418 M142.272 1500.000 C 142.272 1502.475,142.467 1503.487,142.706 1502.250 C 142.944 1501.013,142.944 1498.987,142.706 1497.750 C 142.467 1496.513,142.272 1497.525,142.272 1500.000 M143.232 1586.000 C 143.232 1587.925,143.438 1588.713,143.689 1587.750 C 143.941 1586.787,143.941 1585.213,143.689 1584.250 C 143.438 1583.287,143.232 1584.075,143.232 1586.000 M143.328 1628.500 C 143.333 1632.350,143.513 1633.802,143.730 1631.728 C 143.946 1629.653,143.943 1626.503,143.722 1624.728 C 143.501 1622.952,143.324 1624.650,143.328 1628.500 " stroke="none" fill="#fc9c9c" fill-rule="evenodd"></path></g></svg>