<svg id="svg" version="1.1" xmlns="http://www.w3.org/2000/svg" xmlns:xlink="http://www.w3.org/1999/xlink" width="400" height="1109.433962264151" viewBox="0, 0, 400,1109.433962264151"><g id="svgg"><path id="path0" d="M2.647 0.925 C 2.470 1.561,2.322 92.104,2.318 202.132 L 2.312 402.182 12.607 412.560 C 18.269 418.268,23.264 423.077,23.705 423.247 C 24.147 423.416,24.509 423.873,24.509 424.263 C 24.509 424.652,24.716 424.971,24.968 424.971 C 25.535 424.971,26.998 426.419,100.815 500.039 C 133.755 532.890,161.431 560.347,162.318 561.055 C 164.550 562.834,170.766 567.531,171.633 568.092 C 172.026 568.347,173.263 569.177,174.382 569.937 C 175.501 570.697,176.936 571.584,177.572 571.909 C 178.208 572.233,180.185 573.414,181.965 574.532 C 185.101 576.502,191.310 579.714,196.532 582.068 C 197.931 582.699,199.699 583.505,200.462 583.860 C 201.225 584.214,202.786 584.799,203.931 585.159 C 205.075 585.519,207.696 586.427,209.755 587.177 C 211.814 587.927,214.311 588.680,215.304 588.851 C 216.297 589.022,217.838 589.441,218.728 589.782 C 220.927 590.623,229.958 592.249,235.607 592.820 C 238.150 593.077,242.000 593.496,244.162 593.750 C 249.778 594.411,258.985 594.327,265.063 593.560 C 267.937 593.197,271.642 592.774,273.295 592.621 C 277.430 592.237,286.541 590.573,288.786 589.791 C 289.803 589.437,291.572 588.947,292.717 588.704 C 294.986 588.221,299.496 586.700,301.804 585.640 C 302.605 585.272,303.614 584.971,304.045 584.971 C 304.476 584.971,305.381 584.674,306.056 584.312 C 306.731 583.949,308.740 582.990,310.520 582.180 C 316.395 579.507,322.034 576.595,325.318 574.538 C 327.098 573.422,329.075 572.249,329.711 571.930 C 331.141 571.212,336.243 567.752,338.728 565.815 C 339.746 565.022,341.471 563.771,342.563 563.035 C 343.655 562.299,344.696 561.467,344.875 561.187 C 345.055 560.907,345.931 560.085,346.821 559.360 C 351.683 555.399,358.830 547.915,364.092 541.272 C 366.308 538.474,368.324 535.933,368.571 535.624 C 368.819 535.316,369.262 534.536,369.556 533.890 C 369.850 533.245,370.247 532.717,370.439 532.717 C 370.631 532.717,371.538 531.416,372.456 529.827 C 374.244 526.729,374.607 526.121,376.428 523.191 C 377.076 522.149,378.403 519.652,379.377 517.642 C 380.351 515.633,381.299 513.676,381.484 513.295 C 381.669 512.913,382.053 512.185,382.338 511.676 C 382.622 511.168,383.401 509.503,384.068 507.977 C 384.736 506.451,385.557 504.578,385.891 503.815 C 386.226 503.052,387.062 500.555,387.748 498.266 C 388.434 495.977,389.276 493.376,389.618 492.486 C 389.961 491.595,390.381 489.931,390.552 488.786 C 390.722 487.642,391.141 485.977,391.481 485.087 C 391.821 484.197,392.305 482.012,392.555 480.231 C 392.805 478.451,393.316 475.538,393.690 473.757 C 395.719 464.095,395.624 441.001,393.510 430.058 C 393.044 427.642,392.519 424.624,392.343 423.353 C 392.168 422.081,391.769 420.413,391.457 419.645 C 391.144 418.878,390.736 417.214,390.549 415.946 C 390.362 414.679,389.941 413.017,389.613 412.254 C 389.286 411.491,388.762 409.931,388.450 408.786 C 388.137 407.642,387.719 406.497,387.520 406.243 C 387.321 405.988,387.021 405.052,386.852 404.162 C 386.480 402.198,383.754 395.477,382.350 393.064 C 382.128 392.682,381.622 391.642,381.224 390.751 C 379.990 387.987,378.269 384.584,377.205 382.801 C 376.644 381.862,375.468 379.886,374.592 378.408 C 371.168 372.634,365.555 365.228,359.117 357.992 C 356.551 355.107,275.434 273.646,178.859 176.967 C 82.283 80.288,3.199 0.868,3.117 0.478 C 3.024 0.034,2.848 0.201,2.647 0.925 " stroke="none" fill="#fc5454" fill-rule="evenodd"></path><path id="path1" d="M2.600 403.948 C 2.442 404.362,2.312 563.353,2.312 757.263 L 2.312 1109.827 6.474 1109.827 C 9.283 1109.827,10.636 1109.655,10.636 1109.299 C 10.636 1109.009,11.520 1107.897,12.601 1106.829 C 13.682 1105.761,16.023 1103.251,17.803 1101.252 C 19.584 1099.252,22.601 1095.959,24.509 1093.934 C 26.416 1091.909,28.849 1089.298,29.914 1088.132 C 30.979 1086.966,32.242 1085.595,32.719 1085.087 C 33.197 1084.578,35.030 1082.398,36.794 1080.243 C 38.557 1078.087,40.312 1075.988,40.694 1075.578 C 42.915 1073.188,48.329 1066.699,49.711 1064.769 C 50.220 1064.058,50.998 1063.033,51.441 1062.490 C 52.665 1060.990,54.715 1058.263,55.491 1057.103 C 55.873 1056.533,56.547 1055.625,56.990 1055.085 C 57.433 1054.546,58.425 1053.272,59.194 1052.254 C 61.816 1048.787,62.197 1048.300,62.887 1047.539 C 63.267 1047.120,63.787 1046.420,64.043 1045.983 C 64.299 1045.546,65.965 1043.062,67.746 1040.462 C 69.526 1037.863,71.191 1035.395,71.445 1034.978 C 71.700 1034.561,73.365 1032.060,75.145 1029.420 C 76.925 1026.781,78.746 1024.076,79.192 1023.409 C 79.637 1022.742,80.310 1021.534,80.688 1020.725 C 81.065 1019.916,81.588 1019.121,81.850 1018.960 C 82.112 1018.798,82.638 1018.003,83.018 1017.194 C 84.192 1014.698,89.148 1006.024,91.130 1002.997 C 91.550 1002.356,92.053 1001.327,92.249 1000.711 C 92.445 1000.094,93.279 998.630,94.104 997.457 C 94.929 996.283,95.748 994.868,95.924 994.312 C 96.101 993.755,96.492 993.038,96.793 992.717 C 97.532 991.931,101.762 983.488,101.747 982.831 C 101.740 982.544,102.045 982.052,102.424 981.737 C 102.804 981.422,103.332 980.356,103.598 979.368 C 103.864 978.380,104.282 977.572,104.526 977.572 C 104.771 977.572,104.971 977.329,104.971 977.031 C 104.971 976.495,107.404 971.050,108.242 969.711 C 108.481 969.329,108.795 968.705,108.940 968.324 C 109.280 967.431,113.298 959.062,113.825 958.150 C 114.045 957.769,114.353 957.145,114.510 956.763 C 114.666 956.382,115.165 955.237,115.620 954.220 C 116.074 953.202,116.599 951.850,116.785 951.214 C 116.971 950.578,117.511 949.333,117.984 948.446 C 118.457 947.560,118.844 946.571,118.844 946.248 C 118.844 945.925,119.260 944.885,119.769 943.936 C 120.277 942.987,120.694 941.946,120.694 941.624 C 120.694 941.301,121.110 940.261,121.618 939.312 C 122.127 938.362,122.545 937.271,122.546 936.885 C 122.548 936.500,122.963 935.561,123.468 934.798 C 123.974 934.035,124.395 933.098,124.406 932.717 C 124.416 932.335,124.827 931.191,125.318 930.173 C 125.809 929.156,126.226 927.908,126.243 927.399 C 126.260 926.890,126.676 925.642,127.168 924.624 C 127.659 923.607,128.068 922.355,128.077 921.843 C 128.085 921.330,128.509 920.135,129.017 919.186 C 129.526 918.237,129.949 917.095,129.958 916.649 C 129.967 916.203,130.376 915.006,130.867 913.988 C 131.358 912.971,131.775 911.723,131.792 911.214 C 131.809 910.705,132.225 909.457,132.717 908.439 C 133.208 907.422,133.617 906.199,133.626 905.721 C 133.640 904.958,135.081 900.045,136.492 895.954 C 136.755 895.191,137.175 893.534,137.426 892.272 C 137.676 891.010,138.151 889.449,138.481 888.804 C 138.811 888.158,139.226 886.694,139.404 885.549 C 139.581 884.405,140.126 882.368,140.614 881.023 C 141.103 879.678,141.503 877.955,141.503 877.193 C 141.503 876.432,141.817 875.057,142.200 874.140 C 142.584 873.222,143.027 871.304,143.186 869.877 C 143.345 868.450,143.754 866.595,144.095 865.753 C 144.436 864.912,144.843 863.143,144.998 861.823 C 145.154 860.502,145.562 858.486,145.904 857.341 C 146.246 856.197,146.662 854.116,146.827 852.717 C 146.992 851.318,147.527 848.480,148.015 846.411 C 148.503 844.341,148.904 841.948,148.907 841.093 C 148.910 840.237,149.324 837.873,149.827 835.838 C 150.329 833.803,150.747 830.786,150.754 829.133 C 150.761 827.480,151.079 824.671,151.461 822.890 C 151.842 821.110,152.363 817.052,152.619 813.873 C 152.874 810.694,153.291 806.948,153.545 805.549 C 153.799 804.150,154.198 798.844,154.431 793.757 C 155.904 761.626,155.963 759.055,155.449 749.133 C 155.166 743.665,154.812 735.237,154.662 730.405 C 154.513 725.572,154.000 718.289,153.523 714.220 C 153.045 710.150,152.526 704.981,152.369 702.732 C 152.212 700.483,151.890 698.134,151.654 697.512 C 151.417 696.890,151.018 693.679,150.766 690.376 C 150.515 687.073,150.097 683.973,149.836 683.487 C 149.576 683.000,149.156 680.599,148.902 678.150 C 148.648 675.701,148.248 673.338,148.012 672.899 C 147.777 672.459,147.348 670.340,147.058 668.189 C 146.768 666.038,146.248 663.237,145.903 661.965 C 145.557 660.694,145.141 658.657,144.976 657.439 C 144.812 656.221,144.407 654.556,144.076 653.740 C 143.745 652.923,143.345 651.087,143.186 649.660 C 143.027 648.234,142.584 646.316,142.200 645.398 C 141.817 644.480,141.503 643.124,141.503 642.385 C 141.503 641.646,141.167 640.131,140.757 639.018 C 140.347 637.905,139.732 635.850,139.390 634.451 C 138.165 629.435,137.332 626.336,136.841 624.971 C 136.567 624.208,136.040 622.349,135.671 620.839 C 135.302 619.329,134.816 617.873,134.593 617.602 C 134.369 617.331,133.976 616.069,133.719 614.798 C 133.247 612.460,132.344 609.651,130.792 605.695 C 130.325 604.503,129.942 603.202,129.942 602.803 C 129.942 602.404,129.526 601.301,129.017 600.352 C 128.509 599.403,128.092 598.204,128.092 597.688 C 128.092 597.172,127.676 595.973,127.168 595.024 C 126.659 594.075,126.236 592.933,126.227 592.487 C 126.218 592.041,125.809 590.844,125.318 589.827 C 124.827 588.809,124.416 587.561,124.406 587.052 C 124.395 586.543,123.974 585.503,123.468 584.740 C 122.963 583.977,122.548 583.037,122.546 582.652 C 122.545 582.267,122.127 581.175,121.618 580.226 C 121.110 579.277,120.694 578.237,120.694 577.914 C 120.694 577.591,120.277 576.551,119.769 575.602 C 119.260 574.653,118.844 573.612,118.844 573.290 C 118.844 572.967,118.457 571.978,117.984 571.091 C 117.511 570.205,116.971 568.960,116.785 568.324 C 116.599 567.688,116.049 566.283,115.564 565.202 C 115.079 564.121,114.253 562.249,113.728 561.040 C 112.754 558.798,111.843 556.758,110.163 553.064 C 107.963 548.225,101.047 534.315,100.729 534.088 C 100.539 533.952,100.054 533.119,99.652 532.238 C 99.251 531.357,98.421 529.803,97.808 528.786 C 97.196 527.769,96.476 526.416,96.209 525.780 C 95.942 525.145,95.511 524.312,95.251 523.931 C 94.991 523.549,94.461 522.613,94.072 521.850 C 93.683 521.087,92.442 518.798,91.315 516.763 C 90.188 514.728,89.049 512.571,88.785 511.969 C 88.521 511.367,87.893 510.350,87.390 509.710 C 86.886 509.070,86.474 508.279,86.474 507.953 C 86.474 507.627,85.382 505.760,84.046 503.805 C 80.942 499.258,80.203 498.118,79.256 496.416 C 78.831 495.653,78.356 494.925,78.200 494.798 C 78.044 494.671,77.373 493.734,76.708 492.717 C 75.621 491.051,70.842 483.858,69.539 481.926 C 69.254 481.502,67.621 479.008,65.911 476.382 C 64.201 473.756,62.228 470.947,61.527 470.139 C 60.825 469.331,60.169 468.432,60.068 468.140 C 59.967 467.849,59.123 466.704,58.192 465.597 C 55.085 461.901,46.705 451.285,46.705 451.045 C 46.705 450.633,37.360 439.157,35.403 437.166 C 34.371 436.116,31.965 433.566,30.058 431.499 C 28.150 429.431,25.341 426.401,23.815 424.764 C 22.289 423.127,19.692 420.267,18.043 418.408 C 15.098 415.088,5.803 405.654,3.872 404.026 C 2.979 403.273,2.862 403.266,2.600 403.948 " stroke="none" fill="#3c4454" fill-rule="evenodd"></path><path id="path2" d="M4.162 0.488 C 4.162 0.756,83.313 80.195,180.053 177.019 C 276.793 273.844,357.064 354.325,358.434 355.866 C 359.804 357.407,361.653 359.481,362.543 360.474 C 364.040 362.144,365.705 364.195,367.413 366.474 C 370.783 370.969,371.731 372.267,372.835 373.898 C 373.533 374.929,374.104 375.908,374.104 376.074 C 374.104 376.333,374.993 377.763,376.904 380.578 C 378.099 382.339,381.503 388.928,381.503 389.481 C 381.503 389.718,381.919 390.441,382.428 391.088 C 382.936 391.734,383.353 392.624,383.353 393.064 C 383.353 393.504,383.769 394.393,384.277 395.039 C 384.786 395.686,385.202 396.498,385.202 396.843 C 385.202 397.188,385.592 398.197,386.067 399.084 C 386.543 399.972,387.080 401.570,387.260 402.635 C 387.440 403.700,387.860 404.798,388.194 405.075 C 388.528 405.352,388.946 406.543,389.123 407.722 C 389.299 408.901,389.722 410.299,390.062 410.829 C 390.401 411.358,390.827 412.832,391.007 414.104 C 391.187 415.376,391.598 416.937,391.920 417.573 C 392.242 418.209,392.661 419.971,392.851 421.489 C 393.040 423.007,393.466 424.897,393.798 425.690 C 394.129 426.482,394.628 429.506,394.907 432.409 C 395.186 435.312,395.598 438.832,395.823 440.231 C 396.369 443.618,396.360 462.047,395.812 464.971 C 395.573 466.243,395.164 469.572,394.902 472.370 C 394.640 475.168,394.140 478.189,393.791 479.083 C 393.442 479.978,393.005 481.955,392.820 483.477 C 392.635 484.998,392.225 486.763,391.909 487.399 C 391.593 488.035,391.187 489.595,391.007 490.867 C 390.827 492.139,390.401 493.613,390.062 494.142 C 389.722 494.672,389.299 496.070,389.123 497.249 C 388.946 498.428,388.528 499.619,388.194 499.896 C 387.860 500.173,387.444 501.272,387.269 502.339 C 387.094 503.405,386.681 504.590,386.351 504.971 C 386.021 505.353,385.515 506.549,385.228 507.630 C 384.940 508.711,384.537 509.595,384.333 509.595 C 384.129 509.595,383.719 510.403,383.424 511.390 C 383.128 512.377,382.575 513.443,382.194 513.759 C 381.814 514.075,381.503 514.815,381.503 515.405 C 381.503 515.995,381.278 516.616,381.002 516.787 C 380.727 516.957,380.100 517.958,379.608 519.010 C 379.117 520.063,378.208 521.757,377.589 522.775 C 376.970 523.792,376.248 525.098,375.984 525.677 C 375.721 526.256,375.291 526.984,375.029 527.295 C 374.131 528.364,372.254 531.371,372.254 531.742 C 372.254 531.946,371.820 532.613,371.289 533.224 C 370.758 533.835,369.682 535.324,368.899 536.532 C 368.115 537.740,367.301 538.728,367.090 538.728 C 366.878 538.728,366.705 538.963,366.705 539.250 C 366.705 539.537,366.029 540.548,365.202 541.496 C 364.376 542.444,362.659 544.444,361.387 545.940 C 356.262 551.970,342.429 565.058,341.156 565.081 C 340.965 565.084,340.341 565.513,339.769 566.033 C 339.197 566.554,338.416 567.263,338.035 567.609 C 337.653 567.956,336.769 568.500,336.069 568.818 C 335.370 569.137,334.794 569.520,334.789 569.670 C 334.784 569.820,333.736 570.566,332.460 571.329 C 331.183 572.092,328.950 573.491,327.497 574.438 C 326.044 575.384,324.485 576.165,324.032 576.172 C 323.579 576.179,323.094 576.481,322.956 576.843 C 322.817 577.204,321.939 577.830,321.005 578.232 C 320.071 578.635,318.994 579.148,318.613 579.373 C 318.231 579.597,316.671 580.343,315.145 581.030 C 313.618 581.716,312.058 582.469,311.676 582.703 C 311.295 582.936,310.671 583.240,310.289 583.378 C 309.908 583.517,308.826 584.036,307.885 584.532 C 306.945 585.028,305.797 585.434,305.335 585.434 C 304.873 585.434,303.718 585.850,302.769 586.358 C 301.820 586.867,300.572 587.283,299.995 587.283 C 299.418 587.283,298.169 587.699,297.220 588.208 C 296.271 588.717,295.026 589.138,294.453 589.143 C 293.879 589.149,292.569 589.536,291.540 590.003 C 290.511 590.470,288.468 591.003,286.998 591.186 C 285.529 591.370,283.666 591.792,282.857 592.125 C 282.049 592.458,279.410 592.869,276.994 593.038 C 274.578 593.207,271.249 593.677,269.595 594.082 C 265.283 595.139,241.974 595.156,237.919 594.105 C 236.393 593.710,233.064 593.236,230.520 593.053 C 227.977 592.869,225.376 592.457,224.740 592.136 C 224.104 591.815,222.231 591.400,220.578 591.214 C 218.925 591.027,217.045 590.605,216.400 590.275 C 215.756 589.945,214.403 589.522,213.394 589.336 C 212.386 589.150,210.835 588.612,209.949 588.140 C 209.063 587.669,207.912 587.283,207.393 587.283 C 206.874 587.283,206.038 586.998,205.536 586.649 C 205.035 586.300,203.896 585.866,203.006 585.686 C 202.116 585.505,199.618 584.515,197.457 583.485 C 187.955 578.958,184.967 577.431,184.491 576.857 C 184.211 576.520,183.372 576.110,182.627 575.947 C 181.882 575.783,181.272 575.475,181.272 575.261 C 181.272 574.890,179.519 573.838,176.301 572.277 C 175.474 571.876,174.798 571.343,174.798 571.092 C 174.798 570.841,174.538 570.634,174.220 570.631 C 173.902 570.628,171.882 569.276,169.730 567.625 C 167.579 565.975,165.685 564.624,165.520 564.624 C 165.356 564.624,164.702 564.156,164.067 563.584 C 163.431 563.012,161.589 561.399,159.973 560.000 C 158.356 558.601,131.984 532.422,101.367 501.824 C 62.631 463.112,45.465 446.253,44.930 446.394 C 44.248 446.575,44.253 446.604,44.971 446.652 C 45.454 446.684,45.780 447.078,45.780 447.630 C 45.780 448.247,46.089 448.555,46.705 448.555 C 47.316 448.555,47.630 448.863,47.630 449.463 C 47.630 449.963,48.046 450.595,48.555 450.867 C 49.064 451.139,49.480 451.585,49.480 451.857 C 49.480 452.129,50.009 453.006,50.655 453.806 C 51.302 454.606,52.186 455.726,52.621 456.296 C 53.454 457.389,54.580 458.771,56.301 460.810 C 56.873 461.489,57.341 462.288,57.341 462.587 C 57.341 462.886,57.757 463.390,58.266 463.708 C 58.775 464.025,59.191 464.485,59.191 464.728 C 59.191 464.972,59.867 465.857,60.694 466.695 C 62.019 468.040,64.961 472.071,66.399 474.514 C 66.676 474.984,67.224 475.735,67.616 476.182 C 68.009 476.629,68.466 477.443,68.633 477.992 C 68.800 478.541,69.241 479.106,69.613 479.249 C 69.985 479.392,70.289 479.795,70.289 480.145 C 70.289 480.495,70.809 481.386,71.445 482.125 C 72.080 482.864,72.600 483.728,72.601 484.046 C 72.601 484.364,72.814 484.624,73.075 484.624 C 73.336 484.624,73.748 485.148,73.991 485.787 C 74.448 486.990,76.253 489.737,76.900 490.214 C 77.239 490.464,78.072 491.865,79.622 494.791 C 79.957 495.424,80.595 496.308,81.040 496.757 C 81.486 497.205,81.850 497.834,81.850 498.155 C 81.850 498.475,82.266 498.997,82.775 499.315 C 83.283 499.632,83.699 500.170,83.699 500.510 C 83.699 500.850,84.116 501.505,84.624 501.965 C 85.133 502.426,85.549 503.050,85.549 503.354 C 85.549 503.657,85.965 504.385,86.474 504.971 C 86.983 505.558,87.399 506.233,87.399 506.472 C 87.399 506.711,87.815 507.435,88.324 508.082 C 88.832 508.729,89.249 509.652,89.249 510.135 C 89.249 510.617,89.558 511.131,89.937 511.276 C 90.316 511.421,90.838 512.330,91.098 513.295 C 91.358 514.260,91.881 515.168,92.259 515.314 C 92.638 515.459,92.948 516.001,92.948 516.517 C 92.948 517.034,93.371 517.879,93.887 518.396 C 94.404 518.913,94.947 519.940,95.095 520.679 C 95.243 521.417,95.633 522.125,95.962 522.251 C 96.291 522.378,96.697 523.105,96.865 523.867 C 97.032 524.630,97.468 525.502,97.833 525.805 C 98.198 526.108,98.497 526.602,98.497 526.903 C 98.497 527.204,99.017 528.156,99.653 529.017 C 100.289 529.879,100.809 530.856,100.809 531.188 C 100.809 531.520,101.225 532.208,101.734 532.717 C 102.243 533.225,102.659 533.973,102.659 534.378 C 102.659 534.783,103.075 535.643,103.584 536.290 C 104.092 536.937,104.509 537.808,104.509 538.225 C 104.509 538.643,104.925 539.342,105.434 539.777 C 105.942 540.213,106.358 540.987,106.358 541.498 C 106.358 542.010,106.775 542.844,107.283 543.353 C 107.792 543.861,108.208 544.713,108.208 545.245 C 108.208 545.777,108.624 546.742,109.133 547.388 C 109.642 548.035,110.058 548.952,110.058 549.427 C 110.058 549.901,110.474 550.705,110.983 551.214 C 111.491 551.723,111.908 552.478,111.908 552.893 C 111.908 553.308,112.301 554.297,112.782 555.090 C 113.264 555.883,113.797 557.194,113.968 558.003 C 114.139 558.812,114.578 559.722,114.943 560.025 C 115.308 560.328,115.607 561.042,115.607 561.613 C 115.607 562.183,116.006 563.157,116.494 563.777 C 116.982 564.397,117.524 565.667,117.698 566.598 C 117.873 567.529,118.296 568.523,118.638 568.807 C 118.981 569.092,119.397 570.230,119.563 571.336 C 119.729 572.443,120.126 573.448,120.445 573.571 C 120.764 573.693,121.157 574.617,121.318 575.623 C 121.479 576.629,121.908 577.699,122.272 578.001 C 122.636 578.303,123.070 579.359,123.237 580.347 C 123.404 581.335,123.838 582.390,124.202 582.692 C 124.566 582.994,124.992 584.043,125.149 585.022 C 125.305 586.002,125.709 587.032,126.047 587.312 C 126.384 587.592,126.800 588.793,126.970 589.980 C 127.141 591.167,127.585 592.487,127.957 592.912 C 128.329 593.337,128.753 594.586,128.900 595.687 C 129.047 596.787,129.459 597.903,129.816 598.167 C 130.174 598.430,130.587 599.574,130.736 600.710 C 130.884 601.845,131.390 603.271,131.861 603.877 C 132.332 604.484,132.717 605.700,132.717 606.579 C 132.717 607.478,133.122 608.693,133.642 609.354 C 134.213 610.079,134.566 611.230,134.566 612.359 C 134.566 613.489,134.920 614.639,135.491 615.365 C 136.030 616.050,136.416 617.241,136.416 618.219 C 136.416 619.143,136.832 620.675,137.341 621.624 C 137.850 622.573,138.266 624.029,138.266 624.861 C 138.266 625.692,138.682 627.149,139.191 628.098 C 139.699 629.047,140.116 630.628,140.116 631.612 C 140.116 632.655,140.475 633.861,140.978 634.504 C 141.514 635.190,141.968 636.819,142.180 638.815 C 142.367 640.579,142.792 642.452,143.124 642.977 C 143.456 643.501,143.877 645.278,144.060 646.925 C 144.243 648.572,144.657 650.340,144.980 650.855 C 145.304 651.370,145.714 653.249,145.891 655.029 C 146.072 656.843,146.522 658.611,146.914 659.051 C 147.375 659.568,147.699 661.226,147.865 663.906 C 148.005 666.182,148.399 668.413,148.759 668.965 C 149.112 669.508,149.530 671.797,149.686 674.052 C 149.843 676.306,150.261 678.598,150.616 679.145 C 151.016 679.762,151.356 682.045,151.511 685.157 C 151.659 688.118,152.049 690.814,152.463 691.736 C 152.893 692.696,153.296 695.642,153.507 699.366 C 153.695 702.703,154.115 706.058,154.440 706.821 C 154.815 707.701,155.160 711.925,155.384 718.382 C 155.608 724.811,155.968 729.236,156.364 730.405 C 157.282 733.117,157.285 786.887,156.367 789.595 C 155.975 790.752,155.605 795.172,155.378 801.387 C 155.114 808.641,154.815 811.877,154.271 813.353 C 153.808 814.612,153.526 816.832,153.526 819.226 C 153.526 822.976,152.847 827.508,152.145 828.439 C 151.953 828.694,151.688 831.141,151.555 833.878 C 151.399 837.074,151.073 839.225,150.642 839.890 C 150.252 840.491,149.844 842.752,149.667 845.285 C 149.500 847.683,149.083 850.076,148.742 850.603 C 148.400 851.130,147.993 853.408,147.836 855.666 C 147.658 858.235,147.301 860.052,146.883 860.521 C 146.515 860.934,146.065 862.728,145.883 864.509 C 145.702 866.289,145.279 868.266,144.943 868.902 C 144.608 869.538,144.125 871.599,143.870 873.482 C 143.616 875.365,143.212 877.030,142.973 877.181 C 142.734 877.333,142.389 878.957,142.207 880.790 C 141.984 883.035,141.588 884.456,140.995 885.139 C 140.459 885.758,140.116 886.847,140.116 887.934 C 140.116 888.913,139.699 890.491,139.191 891.440 C 138.682 892.389,138.266 893.900,138.266 894.798 C 138.266 895.695,137.850 897.206,137.341 898.155 C 136.832 899.105,136.416 900.682,136.416 901.662 C 136.416 902.779,136.071 903.840,135.491 904.509 C 134.938 905.147,134.565 906.242,134.563 907.238 C 134.562 908.153,134.147 909.526,133.642 910.289 C 133.136 911.052,132.720 912.301,132.717 913.064 C 132.713 913.827,132.297 915.075,131.792 915.838 C 131.287 916.601,130.872 917.902,130.870 918.728 C 130.868 919.568,130.491 920.607,130.015 921.083 C 129.546 921.552,129.025 922.956,128.856 924.205 C 128.687 925.453,128.238 926.705,127.858 926.987 C 127.478 927.270,127.168 928.019,127.168 928.652 C 127.168 930.160,126.267 932.717,125.735 932.717 C 125.506 932.717,125.318 933.313,125.318 934.042 C 125.318 934.770,124.919 935.874,124.431 936.494 C 123.943 937.114,123.401 938.383,123.227 939.314 C 123.052 940.246,122.635 941.235,122.300 941.513 C 121.965 941.791,121.554 942.827,121.387 943.815 C 121.220 944.803,120.804 945.844,120.462 946.127 C 120.121 946.411,119.702 947.467,119.532 948.475 C 119.361 949.483,118.954 950.575,118.627 950.902 C 118.300 951.230,117.875 952.214,117.684 953.090 C 117.493 953.966,116.947 955.178,116.472 955.785 C 115.996 956.391,115.607 957.250,115.607 957.694 C 115.607 958.137,115.308 958.747,114.943 959.050 C 114.578 959.354,114.135 960.263,113.958 961.072 C 113.781 961.881,113.248 963.040,112.772 963.646 C 112.297 964.253,111.908 965.052,111.908 965.423 C 111.908 965.794,111.491 966.626,110.983 967.273 C 110.474 967.919,110.058 968.808,110.058 969.249 C 110.058 969.689,109.642 970.578,109.133 971.224 C 108.624 971.871,108.203 972.784,108.198 973.252 C 108.192 973.721,107.781 974.624,107.283 975.260 C 106.786 975.896,106.374 976.752,106.369 977.163 C 106.363 977.574,105.942 978.439,105.434 979.086 C 104.925 979.732,104.509 980.565,104.509 980.935 C 104.509 981.306,104.120 982.106,103.644 982.712 C 103.169 983.319,102.629 984.505,102.444 985.349 C 102.260 986.193,101.817 986.996,101.459 987.133 C 101.102 987.270,100.809 987.869,100.809 988.465 C 100.809 989.060,100.289 990.109,99.653 990.795 C 99.017 991.481,98.497 992.299,98.497 992.612 C 98.497 992.925,98.198 993.430,97.833 993.733 C 97.468 994.036,97.039 994.876,96.880 995.600 C 96.721 996.324,96.311 997.024,95.969 997.156 C 95.627 997.287,95.207 998.031,95.036 998.810 C 94.865 999.589,94.452 1000.383,94.118 1000.575 C 93.783 1000.768,93.176 1001.653,92.767 1002.543 C 92.359 1003.434,91.612 1004.786,91.106 1005.549 C 90.079 1007.099,89.249 1008.863,89.249 1009.494 C 89.249 1009.722,88.832 1010.132,88.324 1010.405 C 87.815 1010.677,87.399 1011.308,87.399 1011.808 C 87.399 1012.308,86.983 1013.133,86.474 1013.642 C 85.965 1014.150,85.549 1014.851,85.549 1015.198 C 85.549 1015.545,85.177 1016.325,84.721 1016.932 C 84.266 1017.538,83.646 1018.607,83.344 1019.306 C 83.042 1020.006,82.582 1020.578,82.322 1020.578 C 82.062 1020.578,81.850 1020.994,81.850 1021.503 C 81.850 1022.012,81.434 1022.844,80.925 1023.353 C 80.416 1023.861,80.000 1024.404,80.000 1024.560 C 80.000 1025.109,77.064 1029.364,76.685 1029.364 C 76.474 1029.364,76.301 1029.605,76.301 1029.899 C 76.301 1030.192,75.817 1031.077,75.226 1031.864 C 74.635 1032.651,74.017 1033.659,73.853 1034.104 C 73.689 1034.549,73.340 1034.913,73.078 1034.913 C 72.816 1034.913,72.601 1035.209,72.601 1035.571 C 72.601 1035.933,72.081 1036.848,71.445 1037.604 C 70.809 1038.359,70.289 1039.161,70.289 1039.386 C 70.289 1039.611,69.873 1040.151,69.364 1040.586 C 68.855 1041.022,68.439 1041.660,68.439 1042.005 C 68.439 1042.349,68.023 1043.008,67.514 1043.468 C 67.006 1043.929,66.590 1044.516,66.590 1044.773 C 66.590 1045.030,66.287 1045.570,65.917 1045.973 C 65.548 1046.376,64.830 1047.162,64.324 1047.721 C 63.817 1048.280,63.073 1049.372,62.672 1050.149 C 62.270 1050.925,61.739 1051.561,61.491 1051.561 C 61.243 1051.561,61.040 1051.871,61.040 1052.250 C 61.040 1052.630,60.624 1053.200,60.116 1053.518 C 59.607 1053.835,59.191 1054.350,59.191 1054.661 C 59.191 1054.973,58.775 1055.450,58.266 1055.723 C 57.757 1055.995,57.341 1056.512,57.341 1056.871 C 57.341 1057.231,56.873 1058.058,56.301 1058.709 C 55.728 1059.361,54.844 1060.436,54.335 1061.100 C 53.827 1061.764,53.046 1062.698,52.601 1063.176 C 52.156 1063.655,51.789 1064.202,51.786 1064.393 C 51.778 1064.825,50.054 1067.063,48.671 1068.437 C 48.098 1069.005,47.630 1069.692,47.630 1069.964 C 47.630 1070.236,47.214 1070.590,46.705 1070.751 C 46.197 1070.913,45.780 1071.267,45.780 1071.537 C 45.780 1071.808,45.052 1072.716,44.162 1073.556 C 43.272 1074.396,42.543 1075.210,42.543 1075.365 C 42.543 1075.698,38.086 1081.176,37.268 1081.850 C 36.959 1082.104,36.569 1082.676,36.402 1083.121 C 36.235 1083.566,35.780 1083.931,35.390 1083.931 C 35.001 1083.931,34.682 1084.241,34.682 1084.620 C 34.682 1085.000,34.266 1085.570,33.757 1085.888 C 33.249 1086.205,32.832 1086.717,32.832 1087.025 C 32.832 1087.332,32.563 1087.751,32.234 1087.954 C 31.904 1088.157,29.563 1090.612,27.031 1093.408 C 24.499 1096.205,21.231 1099.719,19.769 1101.217 C 18.306 1102.716,17.110 1104.121,17.110 1104.341 C 17.110 1104.560,16.798 1104.740,16.416 1104.740 C 16.035 1104.740,15.721 1105.000,15.718 1105.318 C 15.716 1105.636,14.885 1106.624,13.873 1107.514 C 12.860 1108.405,12.030 1109.289,12.028 1109.480 C 12.025 1109.671,99.318 1109.827,206.012 1109.827 L 400.000 1109.827 400.000 554.913 L 400.000 0.000 202.081 0.000 C 63.632 0.000,4.162 0.147,4.162 0.488 " stroke="none" fill="#fbfbfb" fill-rule="evenodd"></path><path id="path3" d="M0.000 554.913 C 0.000 1017.291,0.103 1109.827,0.617 1109.827 C 1.131 1109.827,1.288 1017.306,1.554 555.965 C 1.761 197.606,2.033 1.944,2.324 1.653 C 3.214 0.763,2.782 0.000,1.387 0.000 L 0.000 0.000 0.000 554.913 M3.237 0.579 C 3.237 0.897,82.260 80.265,178.844 176.952 C 275.428 273.639,356.551 355.107,359.117 357.992 C 365.555 365.228,371.168 372.634,374.592 378.408 C 375.468 379.886,376.644 381.862,377.205 382.801 C 378.269 384.584,379.990 387.987,381.224 390.751 C 381.622 391.642,382.128 392.682,382.350 393.064 C 383.754 395.477,386.480 402.198,386.852 404.162 C 387.021 405.052,387.321 405.988,387.520 406.243 C 387.719 406.497,388.137 407.642,388.450 408.786 C 388.762 409.931,389.286 411.491,389.613 412.254 C 389.941 413.017,390.362 414.679,390.549 415.946 C 390.736 417.214,391.144 418.878,391.457 419.645 C 391.769 420.413,392.168 422.081,392.343 423.353 C 392.519 424.624,393.044 427.642,393.510 430.058 C 395.624 441.001,395.719 464.095,393.690 473.757 C 393.316 475.538,392.805 478.451,392.555 480.231 C 392.305 482.012,391.821 484.197,391.481 485.087 C 391.141 485.977,390.722 487.642,390.552 488.786 C 390.381 489.931,389.961 491.595,389.618 492.486 C 389.276 493.376,388.434 495.977,387.748 498.266 C 387.062 500.555,386.226 503.052,385.891 503.815 C 385.557 504.578,384.736 506.451,384.068 507.977 C 383.401 509.503,382.622 511.168,382.338 511.676 C 382.053 512.185,381.669 512.913,381.484 513.295 C 381.299 513.676,380.351 515.633,379.377 517.642 C 378.403 519.652,377.076 522.149,376.428 523.191 C 374.607 526.121,374.244 526.729,372.456 529.827 C 371.538 531.416,370.631 532.717,370.439 532.717 C 370.247 532.717,369.850 533.245,369.556 533.890 C 369.262 534.536,368.819 535.316,368.571 535.624 C 368.324 535.933,366.308 538.474,364.092 541.272 C 358.830 547.915,351.683 555.399,346.821 559.360 C 345.931 560.085,345.055 560.907,344.875 561.187 C 344.696 561.467,343.655 562.299,342.563 563.035 C 341.471 563.771,339.746 565.022,338.728 565.815 C 336.243 567.752,331.141 571.212,329.711 571.930 C 329.075 572.249,327.098 573.422,325.318 574.538 C 322.034 576.595,316.395 579.507,310.520 582.180 C 308.740 582.990,306.731 583.949,306.056 584.312 C 305.381 584.674,304.476 584.971,304.045 584.971 C 303.614 584.971,302.605 585.272,301.804 585.640 C 299.496 586.700,294.986 588.221,292.717 588.704 C 291.572 588.947,289.803 589.437,288.786 589.791 C 286.541 590.573,277.430 592.237,273.295 592.621 C 271.642 592.774,267.937 593.197,265.063 593.560 C 258.985 594.327,249.778 594.411,244.162 593.750 C 242.000 593.496,238.150 593.077,235.607 592.820 C 229.958 592.249,220.927 590.623,218.728 589.782 C 217.838 589.441,216.297 589.022,215.304 588.851 C 214.311 588.680,211.814 587.927,209.755 587.177 C 207.696 586.427,205.075 585.519,203.931 585.159 C 202.786 584.799,201.225 584.214,200.462 583.860 C 199.699 583.505,197.931 582.699,196.532 582.068 C 191.310 579.714,185.101 576.502,181.965 574.532 C 180.185 573.414,178.208 572.233,177.572 571.909 C 176.936 571.584,175.501 570.697,174.382 569.937 C 173.263 569.177,172.026 568.347,171.633 568.092 C 170.765 567.530,164.547 562.832,162.318 561.055 C 160.943 559.958,44.118 443.714,41.487 440.825 C 40.974 440.261,40.387 439.904,40.182 440.031 C 39.619 440.378,40.238 441.618,40.974 441.618 C 41.329 441.618,41.618 441.915,41.618 442.277 C 41.618 442.639,42.139 443.553,42.775 444.309 C 43.410 445.064,43.931 445.866,43.931 446.091 C 43.931 446.316,44.347 446.856,44.855 447.292 C 45.589 447.920,45.780 447.948,45.780 447.428 C 45.780 447.068,45.416 446.678,44.971 446.562 C 44.222 446.366,44.221 446.346,44.957 446.296 C 45.435 446.264,67.925 468.403,101.393 501.850 C 131.995 532.434,158.356 558.601,159.973 560.000 C 161.589 561.399,163.431 563.012,164.067 563.584 C 164.702 564.156,165.356 564.624,165.520 564.624 C 165.685 564.624,167.579 565.975,169.730 567.625 C 171.882 569.276,173.902 570.628,174.220 570.631 C 174.538 570.634,174.798 570.827,174.798 571.060 C 174.798 571.464,176.477 572.485,179.769 574.081 C 180.595 574.482,181.272 574.999,181.272 575.230 C 181.272 575.460,181.882 575.783,182.627 575.947 C 183.372 576.110,184.211 576.520,184.491 576.857 C 184.967 577.431,187.955 578.958,197.457 583.485 C 199.618 584.515,202.116 585.505,203.006 585.686 C 203.896 585.866,205.035 586.300,205.536 586.649 C 206.038 586.998,206.874 587.283,207.393 587.283 C 207.912 587.283,209.063 587.669,209.949 588.140 C 210.835 588.612,212.386 589.150,213.394 589.336 C 214.403 589.522,215.756 589.945,216.400 590.275 C 217.045 590.605,218.925 591.027,220.578 591.214 C 222.231 591.400,224.104 591.815,224.740 592.136 C 225.376 592.457,227.977 592.869,230.520 593.053 C 233.064 593.236,236.393 593.710,237.919 594.105 C 241.974 595.156,265.283 595.139,269.595 594.082 C 271.249 593.677,274.578 593.207,276.994 593.038 C 279.410 592.869,282.049 592.458,282.857 592.125 C 283.666 591.792,285.529 591.370,286.998 591.186 C 288.468 591.003,290.511 590.470,291.540 590.003 C 292.569 589.536,293.879 589.149,294.453 589.143 C 295.026 589.138,296.271 588.717,297.220 588.208 C 298.169 587.699,299.418 587.283,299.995 587.283 C 300.572 587.283,301.820 586.867,302.769 586.358 C 303.718 585.850,304.873 585.434,305.335 585.434 C 306.053 585.434,307.995 584.576,310.751 583.040 C 311.133 582.827,311.757 582.528,312.139 582.374 C 313.520 581.819,317.936 579.772,318.613 579.373 C 318.994 579.148,320.071 578.635,321.005 578.232 C 321.939 577.830,322.817 577.204,322.956 576.843 C 323.094 576.481,323.579 576.179,324.032 576.172 C 324.485 576.165,326.044 575.384,327.497 574.438 C 328.950 573.491,331.183 572.092,332.460 571.329 C 333.736 570.566,334.784 569.820,334.789 569.670 C 334.794 569.520,335.370 569.137,336.069 568.818 C 336.769 568.500,337.653 567.956,338.035 567.609 C 338.416 567.263,339.197 566.554,339.769 566.033 C 340.341 565.513,340.965 565.084,341.156 565.081 C 342.429 565.058,356.262 551.970,361.387 545.940 C 362.659 544.444,364.376 542.444,365.202 541.496 C 366.029 540.548,366.705 539.537,366.705 539.250 C 366.705 538.963,366.878 538.728,367.090 538.728 C 367.301 538.728,368.115 537.740,368.899 536.532 C 369.682 535.324,370.758 533.835,371.289 533.224 C 371.820 532.613,372.254 531.946,372.254 531.742 C 372.254 531.371,374.131 528.364,375.029 527.295 C 375.291 526.984,375.721 526.256,375.984 525.677 C 376.248 525.098,376.970 523.792,377.589 522.775 C 378.208 521.757,379.117 520.063,379.608 519.010 C 380.100 517.958,380.727 516.957,381.002 516.787 C 381.278 516.616,381.503 515.995,381.503 515.405 C 381.503 514.815,381.814 514.075,382.194 513.759 C 382.575 513.443,383.128 512.377,383.424 511.390 C 383.719 510.403,384.129 509.595,384.333 509.595 C 384.537 509.595,384.940 508.711,385.228 507.630 C 385.515 506.549,386.021 505.353,386.351 504.971 C 386.681 504.590,387.094 503.405,387.269 502.339 C 387.444 501.272,387.860 500.173,388.194 499.896 C 388.528 499.619,388.946 498.428,389.123 497.249 C 389.299 496.070,389.722 494.672,390.062 494.142 C 390.401 493.613,390.827 492.139,391.007 490.867 C 391.187 489.595,391.593 488.035,391.909 487.399 C 392.225 486.763,392.635 484.998,392.820 483.477 C 393.005 481.955,393.442 479.978,393.791 479.083 C 394.140 478.189,394.640 475.168,394.902 472.370 C 395.164 469.572,395.573 466.243,395.812 464.971 C 396.360 462.047,396.369 443.618,395.823 440.231 C 395.598 438.832,395.186 435.312,394.907 432.409 C 394.628 429.506,394.129 426.482,393.798 425.690 C 393.466 424.897,393.040 423.007,392.851 421.489 C 392.661 419.971,392.242 418.209,391.920 417.573 C 391.598 416.937,391.187 415.376,391.007 414.104 C 390.827 412.832,390.401 411.358,390.062 410.829 C 389.722 410.299,389.299 408.901,389.123 407.722 C 388.946 406.543,388.528 405.352,388.194 405.075 C 387.860 404.798,387.440 403.700,387.260 402.635 C 387.080 401.570,386.543 399.972,386.067 399.084 C 385.592 398.197,385.202 397.188,385.202 396.843 C 385.202 396.498,384.786 395.686,384.277 395.039 C 383.769 394.393,383.353 393.504,383.353 393.064 C 383.353 392.624,382.936 391.734,382.428 391.088 C 381.919 390.441,381.503 389.718,381.503 389.481 C 381.503 388.928,378.099 382.339,376.904 380.578 C 374.993 377.763,374.104 376.333,374.104 376.074 C 374.104 375.908,373.533 374.929,372.835 373.898 C 371.731 372.267,370.783 370.969,367.413 366.474 C 365.705 364.195,364.040 362.144,362.543 360.474 C 361.653 359.481,359.804 357.407,358.434 355.866 C 357.064 354.325,276.793 273.844,180.053 177.019 C 83.313 80.195,4.162 0.756,4.162 0.488 C 4.162 0.219,3.954 0.000,3.699 0.000 C 3.445 0.000,3.237 0.260,3.237 0.579 M38.382 438.529 C 38.382 439.392,39.136 439.957,39.501 439.366 C 39.642 439.137,39.449 438.692,39.070 438.377 C 38.510 437.913,38.382 437.941,38.382 438.529 M46.501 449.364 C 46.897 449.809,49.078 452.566,51.348 455.491 C 53.618 458.416,55.791 461.139,56.177 461.542 C 56.563 461.945,56.879 462.481,56.879 462.733 C 56.879 462.985,57.399 463.680,58.035 464.277 C 58.671 464.875,59.191 465.121,59.191 464.824 C 59.191 464.528,58.775 464.025,58.266 463.708 C 57.757 463.390,57.341 462.879,57.341 462.572 C 57.341 462.264,56.873 461.480,56.301 460.828 C 55.728 460.177,54.844 459.109,54.335 458.454 C 53.068 456.824,52.036 455.522,50.652 453.806 C 50.007 453.006,49.480 452.129,49.480 451.857 C 49.480 451.585,49.064 451.139,48.555 450.867 C 48.046 450.595,47.630 449.963,47.630 449.463 C 47.630 448.863,47.316 448.555,46.705 448.555 C 45.858 448.555,45.841 448.623,46.501 449.364 M59.901 466.474 C 61.572 468.377,62.890 470.225,62.890 470.664 C 62.890 470.924,63.084 471.206,63.320 471.291 C 63.857 471.483,69.788 480.320,70.330 481.734 C 70.549 482.306,70.890 482.778,71.087 482.783 C 71.284 482.788,72.069 483.839,72.832 485.118 C 73.595 486.397,74.948 488.468,75.838 489.719 C 76.728 490.970,77.964 492.828,78.584 493.848 C 79.204 494.868,79.807 495.607,79.924 495.490 C 80.041 495.373,79.586 494.482,78.913 493.510 C 78.239 492.537,77.688 491.504,77.688 491.212 C 77.688 490.920,77.428 490.515,77.110 490.312 C 76.323 489.809,74.532 487.210,73.991 485.787 C 73.748 485.148,73.336 484.624,73.075 484.624 C 72.814 484.624,72.601 484.364,72.601 484.046 C 72.600 483.728,72.080 482.864,71.445 482.125 C 70.809 481.386,70.289 480.495,70.289 480.145 C 70.289 479.795,69.985 479.392,69.613 479.249 C 69.241 479.106,68.800 478.541,68.633 477.992 C 68.466 477.443,68.009 476.629,67.616 476.182 C 67.224 475.735,66.676 474.984,66.399 474.514 C 64.293 470.936,60.213 465.665,59.550 465.665 C 59.353 465.665,59.510 466.029,59.901 466.474 M80.788 497.296 C 81.245 497.907,81.687 498.341,81.772 498.260 C 82.060 497.984,80.893 496.185,80.425 496.185 C 80.167 496.185,80.331 496.685,80.788 497.296 M81.850 499.383 C 81.850 499.659,82.024 499.884,82.238 499.884 C 82.710 499.884,86.225 505.267,87.808 508.413 C 88.440 509.670,89.047 510.430,89.157 510.102 C 89.266 509.774,88.945 508.949,88.442 508.270 C 87.940 507.590,87.382 506.570,87.201 506.003 C 87.021 505.435,86.694 504.971,86.474 504.971 C 86.254 504.971,85.931 504.503,85.757 503.931 C 85.582 503.358,85.119 502.525,84.726 502.078 C 84.334 501.631,83.786 500.815,83.509 500.265 C 82.959 499.171,81.850 498.582,81.850 499.383 M90.011 512.362 C 90.893 513.855,91.353 513.900,90.892 512.448 C 90.732 511.943,90.286 511.410,89.902 511.262 C 89.322 511.040,89.341 511.228,90.011 512.362 M91.186 514.527 C 92.423 517.032,93.687 519.410,94.585 520.925 C 95.188 521.942,96.215 523.845,96.868 525.153 C 97.521 526.461,98.543 528.249,99.139 529.128 C 99.735 530.006,100.338 531.017,100.479 531.374 C 100.684 531.891,100.744 531.876,100.773 531.304 C 100.793 530.908,100.289 529.879,99.653 529.017 C 99.017 528.156,98.497 527.204,98.497 526.903 C 98.497 526.602,98.198 526.108,97.833 525.805 C 97.468 525.502,97.032 524.630,96.865 523.867 C 96.697 523.105,96.291 522.378,95.962 522.251 C 95.633 522.125,95.243 521.417,95.095 520.679 C 94.947 519.940,94.404 518.913,93.887 518.396 C 93.371 517.879,92.948 517.087,92.948 516.635 C 92.948 516.182,92.508 515.436,91.971 514.976 C 91.434 514.516,91.081 514.314,91.186 514.527 M102.031 534.524 C 102.638 535.794,103.340 536.959,103.591 537.114 C 103.841 537.269,104.046 537.785,104.046 538.260 C 104.046 538.736,104.360 539.439,104.744 539.823 C 105.128 540.206,105.635 541.002,105.871 541.590 L 106.300 542.659 106.329 541.614 C 106.345 541.039,105.942 540.213,105.434 539.777 C 104.925 539.342,104.509 538.662,104.509 538.266 C 104.509 537.870,104.145 537.032,103.699 536.404 C 103.254 535.775,102.682 534.652,102.428 533.908 C 102.173 533.164,101.731 532.479,101.446 532.386 C 101.160 532.292,101.423 533.255,102.031 534.524 M106.358 543.325 C 106.358 543.565,106.581 543.898,106.853 544.066 C 107.125 544.234,107.528 544.819,107.749 545.365 C 108.086 546.201,108.154 546.225,108.179 545.519 C 108.195 545.057,107.993 544.277,107.729 543.785 C 107.233 542.857,106.358 542.564,106.358 543.325 M108.223 546.880 C 108.215 547.167,108.508 547.650,108.874 547.954 C 109.240 548.258,109.628 548.960,109.736 549.513 L 109.932 550.520 109.995 549.531 C 110.029 548.987,109.649 548.051,109.148 547.450 C 108.648 546.850,108.232 546.593,108.223 546.880 M110.660 552.023 C 112.415 555.432,113.757 558.547,113.757 559.210 C 113.757 559.614,113.980 560.083,114.252 560.251 C 114.524 560.419,114.927 561.004,115.148 561.550 L 115.548 562.543 115.578 561.560 C 115.594 561.018,115.308 560.328,114.943 560.025 C 114.578 559.722,114.136 558.812,113.960 558.003 C 113.785 557.194,113.268 555.803,112.813 554.913 C 112.357 554.023,111.763 552.723,111.493 552.023 C 111.223 551.324,110.778 550.751,110.504 550.751 C 110.185 550.751,110.242 551.211,110.660 552.023 M115.607 563.137 C 115.607 563.405,115.911 564.214,116.282 564.934 C 117.872 568.016,119.306 571.571,119.306 572.430 C 119.306 572.939,119.529 573.493,119.801 573.662 C 120.073 573.830,120.476 574.414,120.697 574.961 C 121.097 575.952,121.098 575.951,121.127 574.899 C 121.143 574.319,120.865 573.732,120.510 573.596 C 120.155 573.460,119.729 572.443,119.563 571.336 C 119.397 570.230,118.981 569.092,118.638 568.807 C 118.296 568.523,117.873 567.529,117.698 566.598 C 117.403 565.024,115.607 562.052,115.607 563.137 M121.185 576.550 C 121.169 576.878,121.572 577.962,122.081 578.960 C 122.590 579.957,123.006 581.112,123.006 581.527 C 123.006 581.942,123.422 582.811,123.931 583.458 C 124.439 584.104,124.857 585.074,124.858 585.611 C 124.860 586.149,125.199 587.214,125.612 587.977 C 126.025 588.740,126.539 589.988,126.756 590.751 C 127.069 591.854,127.100 591.714,126.906 590.070 C 126.771 588.932,126.385 587.683,126.048 587.295 C 125.711 586.907,125.299 585.830,125.133 584.902 C 124.967 583.974,124.541 582.973,124.186 582.679 C 123.831 582.384,123.402 581.324,123.233 580.323 C 123.064 579.321,122.721 578.376,122.471 578.221 C 122.221 578.066,121.836 577.493,121.615 576.947 C 121.395 576.401,121.202 576.222,121.185 576.550 M127.168 592.532 C 127.168 592.731,127.412 593.348,127.710 593.903 C 128.009 594.459,128.421 595.538,128.626 596.301 C 128.932 597.439,128.966 597.324,128.812 595.659 C 128.663 594.033,127.168 591.191,127.168 592.532 M129.017 598.354 C 129.017 598.594,129.222 598.916,129.472 599.071 C 129.723 599.225,130.120 600.018,130.356 600.832 C 130.675 601.938,130.794 602.057,130.825 601.302 C 130.881 599.949,130.081 597.919,129.491 597.919 C 129.231 597.919,129.017 598.115,129.017 598.354 M131.122 603.699 C 131.305 604.208,131.729 605.353,132.065 606.243 L 132.676 607.861 132.696 606.410 C 132.708 605.572,132.309 604.496,131.753 603.866 C 130.917 602.919,130.834 602.897,131.122 603.699 M132.732 608.809 C 132.724 609.076,132.956 609.534,133.248 609.826 C 133.540 610.118,133.933 611.149,134.120 612.115 L 134.460 613.873 134.513 612.190 C 134.547 611.132,134.229 610.102,133.657 609.415 C 133.157 608.815,132.741 608.542,132.732 608.809 M134.582 614.810 C 134.573 615.072,134.858 615.702,135.215 616.211 C 135.571 616.720,135.959 617.650,136.076 618.279 C 136.261 619.263,136.299 619.221,136.353 617.970 C 136.390 617.127,136.035 616.061,135.507 615.427 C 135.007 614.827,134.590 614.549,134.582 614.810 M136.416 620.500 C 136.416 620.831,136.660 621.556,136.959 622.111 C 137.257 622.667,137.652 623.746,137.836 624.509 L 138.171 625.896 138.219 624.623 C 138.245 623.922,137.850 622.573,137.341 621.624 C 136.832 620.675,136.416 620.169,136.416 620.500 M138.266 627.205 C 138.266 627.663,138.510 628.492,138.809 629.048 C 139.107 629.603,139.502 630.682,139.686 631.445 L 140.021 632.832 140.068 631.328 C 140.094 630.500,139.699 629.047,139.191 628.098 C 138.630 627.052,138.266 626.700,138.266 627.205 M140.116 634.054 C 140.116 634.414,140.407 635.124,140.764 635.633 C 141.120 636.142,141.508 637.072,141.626 637.701 C 141.799 638.630,141.851 638.555,141.902 637.298 C 141.940 636.373,141.594 635.281,141.040 634.577 C 140.491 633.878,140.116 633.666,140.116 634.054 M142.039 640.249 C 141.999 641.022,142.374 642.791,142.873 644.180 C 143.647 646.332,143.784 646.498,143.798 645.305 C 143.808 644.535,143.519 643.483,143.157 642.966 C 142.796 642.450,142.413 641.311,142.306 640.436 C 142.118 638.885,142.111 638.881,142.039 640.249 M143.889 648.199 C 143.848 649.020,144.115 650.477,144.481 651.436 C 144.847 652.395,145.239 653.595,145.352 654.104 C 145.467 654.622,145.581 654.310,145.611 653.398 C 145.641 652.501,145.369 651.344,145.007 650.827 C 144.645 650.311,144.262 649.172,144.156 648.297 L 143.963 646.705 143.889 648.199 M145.739 656.547 C 145.698 657.381,145.994 658.838,146.396 659.784 C 146.799 660.729,147.308 662.855,147.529 664.509 L 147.929 667.514 147.763 663.666 C 147.652 661.078,147.368 659.564,146.898 659.042 C 146.514 658.615,146.112 657.538,146.006 656.647 L 145.813 655.029 145.739 656.547 M147.997 668.439 C 147.991 668.694,148.297 669.923,148.676 671.172 C 149.054 672.420,149.395 674.501,149.433 675.796 C 149.480 677.369,149.570 677.690,149.706 676.765 C 150.020 674.633,149.376 669.785,148.653 668.831 C 148.297 668.361,148.002 668.185,147.997 668.439 M149.827 679.013 C 149.827 679.462,150.054 680.254,150.331 680.772 C 150.608 681.291,150.996 683.514,151.191 685.713 C 151.541 689.641,151.548 689.659,151.584 686.705 C 151.629 683.042,151.077 679.447,150.359 678.729 C 149.957 678.327,149.827 678.397,149.827 679.013 M151.676 691.630 C 151.676 692.152,151.883 693.182,152.136 693.919 C 152.389 694.657,152.778 697.029,153.000 699.191 L 153.403 703.121 153.465 699.832 C 153.531 696.257,152.858 691.864,152.132 691.138 C 151.833 690.839,151.676 691.008,151.676 691.630 M153.561 705.665 C 153.545 706.301,153.764 707.653,154.050 708.671 C 154.335 709.688,154.731 713.538,154.931 717.225 L 155.294 723.931 155.158 716.069 C 155.059 710.352,154.827 707.704,154.307 706.358 C 153.712 704.822,153.586 704.704,153.561 705.665 M155.630 729.711 C 157.058 746.655,157.056 771.171,155.624 790.058 L 155.379 793.295 156.169 790.520 C 157.365 786.324,157.361 733.695,156.164 729.480 L 155.377 726.705 155.630 729.711 M154.958 800.462 C 154.923 803.133,154.682 806.671,154.421 808.324 C 154.161 809.977,153.850 812.162,153.730 813.179 L 153.512 815.029 154.262 813.179 C 155.015 811.320,155.776 798.581,155.255 796.532 C 155.126 796.023,154.992 797.792,154.958 800.462 M153.131 818.728 C 153.072 820.000,152.820 821.977,152.571 823.121 C 151.676 827.245,151.516 828.824,152.027 828.509 C 152.772 828.048,153.629 822.322,153.422 819.191 L 153.238 816.416 153.131 818.728 M151.214 832.273 C 151.214 833.745,150.897 836.168,150.509 837.657 C 149.758 840.540,149.864 841.426,150.761 839.751 C 151.344 838.662,152.015 829.595,151.512 829.595 C 151.348 829.595,151.214 830.800,151.214 832.273 M149.407 843.468 C 149.371 844.613,149.124 846.382,148.859 847.399 C 147.864 851.203,147.828 851.669,148.604 850.712 C 149.316 849.834,150.094 843.821,149.697 842.268 C 149.573 841.784,149.442 842.324,149.407 843.468 M147.577 854.218 C 147.543 855.425,147.084 857.657,146.558 859.177 C 146.032 860.698,145.688 862.519,145.795 863.225 C 145.958 864.309,145.999 864.247,146.058 862.831 C 146.096 861.909,146.424 860.907,146.787 860.606 C 147.492 860.021,148.205 855.035,147.853 853.155 C 147.733 852.515,147.613 852.977,147.577 854.218 M145.276 865.493 C 145.236 866.034,144.879 867.251,144.483 868.199 C 144.087 869.146,143.846 870.576,143.946 871.376 L 144.129 872.832 144.203 871.313 C 144.244 870.478,144.604 869.296,145.003 868.687 C 145.433 868.031,145.651 866.954,145.539 866.044 C 145.435 865.200,145.317 864.951,145.276 865.493 M142.791 875.722 C 142.355 877.185,141.868 879.415,141.708 880.677 C 141.548 881.940,141.124 883.391,140.766 883.901 C 139.752 885.349,139.946 886.349,141.004 885.129 C 141.618 884.421,141.991 883.043,142.214 880.665 C 142.391 878.773,142.711 877.225,142.924 877.225 C 143.352 877.225,144.003 874.320,143.746 873.551 C 143.657 873.283,143.227 874.260,142.791 875.722 M139.720 888.092 C 139.680 888.601,139.337 889.613,138.957 890.342 C 138.577 891.070,138.266 892.004,138.266 892.416 C 138.266 892.828,138.694 892.367,139.217 891.391 C 139.749 890.399,140.085 889.077,139.980 888.392 C 139.853 887.565,139.768 887.468,139.720 888.092 M137.873 894.705 C 137.835 895.290,137.479 896.397,137.082 897.164 C 136.685 897.932,136.436 898.789,136.530 899.069 C 136.845 900.015,138.326 896.164,138.133 894.897 C 137.970 893.827,137.932 893.799,137.873 894.705 M135.939 901.387 C 135.931 901.960,135.619 902.832,135.245 903.325 C 134.175 904.740,134.391 905.778,135.491 904.509 C 136.300 903.576,136.838 900.347,136.185 900.347 C 136.058 900.347,135.947 900.815,135.939 901.387 M134.173 907.310 C 134.135 907.961,133.799 908.898,133.425 909.391 C 133.052 909.885,132.743 910.601,132.739 910.983 C 132.735 911.364,133.160 911.009,133.682 910.194 C 134.266 909.281,134.557 908.214,134.437 907.419 C 134.248 906.160,134.241 906.158,134.173 907.310 M132.324 912.860 C 132.286 913.510,131.949 914.447,131.575 914.941 C 131.202 915.434,130.893 916.150,130.890 916.532 C 130.886 916.913,131.310 916.558,131.832 915.743 C 132.417 914.830,132.707 913.763,132.587 912.968 C 132.398 911.710,132.391 911.707,132.324 912.860 M130.405 918.580 C 130.405 919.197,130.068 920.040,129.656 920.451 C 129.244 920.863,129.053 921.346,129.231 921.524 C 129.755 922.048,130.867 920.166,130.867 918.756 C 130.867 918.041,130.763 917.457,130.636 917.457 C 130.509 917.457,130.405 917.962,130.405 918.580 M128.552 923.044 C 128.550 923.659,128.235 924.765,127.850 925.502 C 127.133 926.878,127.209 927.482,128.035 926.972 C 128.583 926.633,129.261 922.633,128.842 922.214 C 128.684 922.056,128.554 922.430,128.552 923.044 M126.765 928.555 C 126.729 929.191,126.389 930.307,126.009 931.036 C 125.199 932.588,125.179 932.717,125.744 932.717 C 126.357 932.717,127.271 929.687,127.033 928.447 C 126.841 927.451,126.828 927.456,126.765 928.555 M124.915 933.873 C 124.879 934.382,124.436 935.422,123.931 936.185 C 123.425 936.948,123.011 937.887,123.009 938.273 C 123.007 938.658,122.590 939.750,122.081 940.699 C 121.572 941.648,121.156 942.688,121.156 943.011 C 121.156 943.334,120.740 944.374,120.231 945.323 C 119.723 946.272,119.306 947.270,119.306 947.541 C 119.306 948.038,117.533 952.179,116.282 954.604 C 115.335 956.440,115.441 957.099,116.472 955.785 C 116.947 955.178,117.493 953.966,117.684 953.090 C 117.875 952.214,118.300 951.230,118.627 950.902 C 118.954 950.575,119.361 949.483,119.532 948.475 C 119.702 947.467,120.121 946.411,120.462 946.127 C 120.804 945.844,121.220 944.803,121.387 943.815 C 121.554 942.827,121.965 941.791,122.300 941.513 C 122.635 941.235,123.050 940.258,123.221 939.342 C 123.393 938.427,123.953 937.110,124.466 936.416 C 125.022 935.664,125.315 934.710,125.190 934.051 C 125.022 933.160,124.969 933.126,124.915 933.873 M114.305 959.130 C 113.749 960.278,113.295 961.438,113.295 961.708 C 113.295 961.978,113.003 962.441,112.647 962.737 C 112.290 963.033,111.858 963.839,111.686 964.528 C 111.514 965.217,111.103 966.092,110.774 966.474 C 110.444 966.855,109.924 967.948,109.618 968.902 C 109.312 969.855,108.869 970.636,108.635 970.636 C 108.400 970.636,108.208 970.973,108.208 971.386 C 108.208 972.713,109.539 971.175,110.058 969.249 C 110.316 968.290,110.838 967.249,111.217 966.934 C 111.597 966.619,111.908 965.998,111.908 965.555 C 111.908 965.112,112.292 964.253,112.762 963.646 C 113.232 963.040,113.768 961.919,113.954 961.156 C 114.140 960.393,114.609 959.417,114.997 958.986 C 115.385 958.556,115.615 957.943,115.508 957.624 C 115.402 957.305,114.861 957.983,114.305 959.130 M107.799 973.007 C 107.770 973.421,107.467 973.991,107.127 974.273 C 106.787 974.556,106.258 975.622,105.952 976.642 C 105.647 977.662,105.197 978.497,104.953 978.497 C 104.708 978.497,104.509 978.778,104.509 979.122 C 104.509 979.466,103.988 980.725,103.353 981.921 C 102.717 983.117,102.197 984.328,102.197 984.612 C 102.197 984.897,101.851 985.511,101.429 985.978 C 101.006 986.445,100.784 986.950,100.935 987.101 C 101.448 987.613,102.124 986.816,102.452 985.313 C 102.632 984.489,103.169 983.319,103.644 982.712 C 104.120 982.106,104.509 981.306,104.509 980.935 C 104.509 980.565,104.925 979.732,105.434 979.086 C 105.942 978.439,106.358 977.606,106.358 977.234 C 106.358 976.863,106.790 975.953,107.317 975.213 C 107.844 974.473,108.180 973.505,108.064 973.061 C 107.885 972.378,107.845 972.369,107.799 973.007 M100.347 988.251 C 100.347 988.529,99.931 989.285,99.422 989.932 C 98.099 991.613,98.277 992.280,99.653 990.795 C 100.656 989.713,101.253 987.746,100.578 987.746 C 100.451 987.746,100.347 987.973,100.347 988.251 M97.686 992.937 C 97.422 993.261,96.874 994.254,96.467 995.145 C 96.061 996.035,95.200 997.595,94.553 998.613 C 93.907 999.630,93.059 1001.087,92.669 1001.850 C 92.279 1002.613,91.459 1004.069,90.846 1005.087 C 90.234 1006.104,89.505 1007.456,89.227 1008.092 C 88.949 1008.727,88.372 1009.642,87.945 1010.124 C 87.200 1010.965,87.211 1010.979,88.208 1010.456 C 88.780 1010.155,89.249 1009.722,89.249 1009.494 C 89.249 1008.863,90.079 1007.099,91.106 1005.549 C 91.612 1004.786,92.359 1003.434,92.767 1002.543 C 93.176 1001.653,93.783 1000.768,94.118 1000.575 C 94.452 1000.383,94.865 999.589,95.036 998.810 C 95.207 998.031,95.621 997.289,95.956 997.161 C 96.290 997.032,96.703 996.370,96.873 995.689 C 97.043 995.008,97.511 994.085,97.914 993.639 C 98.316 993.192,98.538 992.719,98.406 992.587 C 98.274 992.455,97.950 992.613,97.686 992.937 M86.973 1011.755 C 86.953 1012.117,86.592 1012.793,86.171 1013.258 C 85.740 1013.735,85.632 1014.104,85.924 1014.104 C 86.596 1014.104,87.525 1012.365,87.234 1011.651 C 87.086 1011.286,86.997 1011.321,86.973 1011.755 M84.763 1015.599 C 84.461 1016.176,83.887 1017.324,83.488 1018.150 C 83.089 1018.977,82.557 1019.653,82.306 1019.653 C 82.055 1019.653,81.850 1019.861,81.850 1020.116 C 81.850 1021.060,82.838 1020.536,83.377 1019.306 C 83.683 1018.607,84.317 1017.469,84.785 1016.778 C 85.253 1016.087,85.563 1015.303,85.474 1015.036 C 85.385 1014.769,85.065 1015.023,84.763 1015.599 M81.197 1021.850 C 81.013 1022.422,80.689 1022.890,80.477 1022.890 C 80.264 1022.890,79.873 1023.514,79.607 1024.277 C 79.341 1025.040,78.904 1025.665,78.637 1025.665 C 78.369 1025.665,78.150 1025.948,78.150 1026.295 C 78.150 1026.822,76.860 1028.741,74.968 1031.026 C 74.738 1031.304,74.209 1032.137,73.792 1032.876 C 72.376 1035.390,66.617 1043.949,64.292 1046.994 C 63.394 1048.170,62.243 1049.717,61.734 1050.431 C 61.225 1051.145,59.953 1052.788,58.906 1054.081 C 57.859 1055.375,56.402 1057.287,55.669 1058.330 C 53.306 1061.692,47.770 1068.860,46.409 1070.319 C 45.682 1071.098,44.306 1072.658,43.351 1073.787 C 42.396 1074.915,41.341 1076.150,41.005 1076.532 C 40.670 1076.913,39.683 1078.152,38.811 1079.284 C 37.939 1080.416,36.646 1081.925,35.938 1082.637 C 35.008 1083.571,34.851 1083.931,35.374 1083.931 C 35.773 1083.931,36.235 1083.566,36.402 1083.121 C 36.569 1082.676,36.959 1082.104,37.268 1081.850 C 38.086 1081.176,42.543 1075.698,42.543 1075.365 C 42.543 1075.210,43.272 1074.396,44.162 1073.556 C 45.052 1072.716,45.780 1071.808,45.780 1071.537 C 45.780 1071.267,46.197 1070.913,46.705 1070.751 C 47.214 1070.590,47.630 1070.236,47.630 1069.964 C 47.630 1069.692,48.098 1069.005,48.671 1068.437 C 50.054 1067.063,51.778 1064.825,51.786 1064.393 C 51.789 1064.202,52.156 1063.655,52.601 1063.176 C 53.046 1062.698,53.827 1061.764,54.335 1061.100 C 54.844 1060.436,55.728 1059.361,56.301 1058.709 C 56.873 1058.058,57.341 1057.231,57.341 1056.871 C 57.341 1056.512,57.757 1055.995,58.266 1055.723 C 58.775 1055.450,59.191 1054.973,59.191 1054.661 C 59.191 1054.350,59.607 1053.835,60.116 1053.518 C 60.624 1053.200,61.040 1052.630,61.040 1052.250 C 61.040 1051.871,61.243 1051.561,61.491 1051.561 C 61.739 1051.561,62.270 1050.925,62.672 1050.149 C 63.073 1049.372,63.817 1048.280,64.324 1047.721 C 64.830 1047.162,65.548 1046.376,65.917 1045.973 C 66.287 1045.570,66.590 1045.030,66.590 1044.773 C 66.590 1044.516,67.006 1043.929,67.514 1043.468 C 68.023 1043.008,68.439 1042.349,68.439 1042.005 C 68.439 1041.660,68.855 1041.022,69.364 1040.586 C 69.873 1040.151,70.289 1039.611,70.289 1039.386 C 70.289 1039.161,70.809 1038.359,71.445 1037.604 C 72.081 1036.848,72.601 1035.933,72.601 1035.571 C 72.601 1035.209,72.816 1034.913,73.078 1034.913 C 73.340 1034.913,73.689 1034.549,73.853 1034.104 C 74.017 1033.659,74.635 1032.651,75.226 1031.864 C 75.817 1031.077,76.301 1030.192,76.301 1029.899 C 76.301 1029.605,76.474 1029.364,76.685 1029.364 C 77.156 1029.364,80.000 1025.043,80.000 1024.328 C 80.000 1024.046,80.201 1023.815,80.446 1023.815 C 81.044 1023.815,81.958 1022.055,81.721 1021.362 C 81.617 1021.058,81.381 1021.277,81.197 1021.850 M32.313 1086.784 C 31.200 1088.120,29.758 1089.741,29.108 1090.387 C 28.459 1091.032,26.497 1093.121,24.749 1095.029 C 23.001 1096.936,19.370 1100.852,16.681 1103.730 C 11.584 1109.186,9.922 1111.384,13.593 1107.817 C 14.764 1106.679,15.723 1105.521,15.723 1105.244 C 15.723 1104.967,16.035 1104.740,16.416 1104.740 C 16.798 1104.740,17.110 1104.560,17.110 1104.341 C 17.110 1104.121,18.306 1102.716,19.769 1101.217 C 21.231 1099.719,24.499 1096.205,27.031 1093.408 C 29.563 1090.612,31.904 1088.157,32.234 1087.954 C 32.563 1087.751,32.832 1087.368,32.832 1087.103 C 32.832 1086.839,33.301 1086.243,33.873 1085.779 C 34.445 1085.315,34.784 1084.805,34.625 1084.646 C 34.466 1084.486,33.426 1085.449,32.313 1086.784 " stroke="none" fill="#cdcccc" fill-rule="evenodd"></path><path id="path4" d="M1.734 301.464 C 1.233 734.560,1.287 1109.827,1.850 1109.827 C 2.158 1109.827,2.315 991.941,2.319 757.110 C 2.324 541.159,2.493 404.130,2.755 403.715 C 3.020 403.297,3.017 402.836,2.749 402.512 C 2.478 402.186,2.269 326.128,2.197 201.803 L 2.081 1.618 1.734 301.464 M20.809 421.459 C 20.809 421.562,22.110 423.017,23.699 424.693 C 25.289 426.369,28.150 429.431,30.058 431.499 C 31.965 433.566,34.371 436.116,35.403 437.166 C 37.360 439.157,46.705 450.633,46.705 451.045 C 46.705 451.285,55.085 461.901,58.192 465.597 C 59.123 466.704,59.967 467.849,60.068 468.140 C 60.169 468.432,60.825 469.331,61.527 470.139 C 62.228 470.947,64.201 473.756,65.911 476.382 C 67.621 479.008,69.254 481.502,69.539 481.926 C 70.842 483.858,75.621 491.051,76.708 492.717 C 77.373 493.734,78.044 494.671,78.200 494.798 C 78.356 494.925,78.831 495.653,79.256 496.416 C 80.203 498.118,80.942 499.258,84.046 503.805 C 85.382 505.760,86.474 507.627,86.474 507.953 C 86.474 508.279,86.886 509.070,87.390 509.710 C 87.893 510.350,88.521 511.367,88.785 511.969 C 89.049 512.571,90.188 514.728,91.315 516.763 C 92.442 518.798,93.683 521.087,94.072 521.850 C 94.461 522.613,94.991 523.549,95.251 523.931 C 95.511 524.312,95.942 525.145,96.209 525.780 C 96.476 526.416,97.196 527.769,97.808 528.786 C 98.421 529.803,99.251 531.357,99.652 532.238 C 100.054 533.119,100.539 533.952,100.729 534.088 C 101.057 534.322,108.278 548.865,110.036 552.832 C 110.487 553.850,111.288 555.618,111.815 556.763 C 112.343 557.908,113.204 559.832,113.728 561.040 C 114.253 562.249,115.079 564.121,115.564 565.202 C 116.049 566.283,116.599 567.688,116.785 568.324 C 116.971 568.960,117.511 570.205,117.984 571.091 C 118.457 571.978,118.844 572.967,118.844 573.290 C 118.844 573.612,119.260 574.653,119.769 575.602 C 120.277 576.551,120.694 577.591,120.694 577.914 C 120.694 578.237,121.110 579.277,121.618 580.226 C 122.127 581.175,122.545 582.267,122.546 582.652 C 122.548 583.037,122.963 583.977,123.468 584.740 C 123.974 585.503,124.395 586.543,124.406 587.052 C 124.416 587.561,124.827 588.809,125.318 589.827 C 125.809 590.844,126.218 592.041,126.227 592.487 C 126.236 592.933,126.659 594.075,127.168 595.024 C 127.676 595.973,128.092 597.172,128.092 597.688 C 128.092 598.204,128.509 599.403,129.017 600.352 C 129.526 601.301,129.942 602.404,129.942 602.803 C 129.942 603.202,130.325 604.503,130.792 605.695 C 132.344 609.651,133.247 612.460,133.719 614.798 C 133.976 616.069,134.369 617.331,134.593 617.602 C 134.816 617.873,135.302 619.329,135.671 620.839 C 136.040 622.349,136.567 624.208,136.841 624.971 C 137.332 626.336,138.165 629.435,139.390 634.451 C 139.732 635.850,140.347 637.905,140.757 639.018 C 141.167 640.131,141.503 641.646,141.503 642.385 C 141.503 643.124,141.817 644.480,142.200 645.398 C 142.584 646.316,143.027 648.234,143.186 649.660 C 143.345 651.087,143.745 652.923,144.076 653.740 C 144.407 654.556,144.812 656.221,144.976 657.439 C 145.141 658.657,145.557 660.694,145.903 661.965 C 146.248 663.237,146.768 666.038,147.058 668.189 C 147.348 670.340,147.777 672.459,148.012 672.899 C 148.248 673.338,148.648 675.701,148.902 678.150 C 149.156 680.599,149.576 683.000,149.836 683.487 C 150.097 683.973,150.515 687.073,150.766 690.376 C 151.018 693.679,151.417 696.890,151.654 697.512 C 151.890 698.134,152.212 700.483,152.369 702.732 C 152.526 704.981,153.045 710.150,153.523 714.220 C 154.000 718.289,154.513 725.572,154.662 730.405 C 154.812 735.237,155.166 743.665,155.449 749.133 C 155.963 759.055,155.904 761.626,154.431 793.757 C 154.198 798.844,153.799 804.150,153.545 805.549 C 153.291 806.948,152.874 810.694,152.619 813.873 C 152.363 817.052,151.842 821.110,151.461 822.890 C 151.079 824.671,150.761 827.480,150.754 829.133 C 150.747 830.786,150.329 833.803,149.827 835.838 C 149.324 837.873,148.910 840.237,148.907 841.093 C 148.904 841.948,148.503 844.341,148.015 846.411 C 147.527 848.480,146.992 851.318,146.827 852.717 C 146.662 854.116,146.246 856.197,145.904 857.341 C 145.562 858.486,145.154 860.502,144.998 861.823 C 144.843 863.143,144.436 864.912,144.095 865.753 C 143.754 866.595,143.345 868.450,143.186 869.877 C 143.027 871.304,142.584 873.222,142.200 874.140 C 141.817 875.057,141.503 876.432,141.503 877.193 C 141.503 877.955,141.103 879.678,140.614 881.023 C 140.126 882.368,139.581 884.405,139.404 885.549 C 139.226 886.694,138.811 888.158,138.481 888.804 C 138.151 889.449,137.676 891.010,137.426 892.272 C 137.175 893.534,136.755 895.191,136.492 895.954 C 135.081 900.045,133.640 904.958,133.626 905.721 C 133.617 906.199,133.208 907.422,132.717 908.439 C 132.225 909.457,131.809 910.705,131.792 911.214 C 131.775 911.723,131.358 912.971,130.867 913.988 C 130.376 915.006,129.967 916.203,129.958 916.649 C 129.949 917.095,129.526 918.237,129.017 919.186 C 128.509 920.135,128.085 921.330,128.077 921.843 C 128.068 922.355,127.659 923.607,127.168 924.624 C 126.676 925.642,126.260 926.890,126.243 927.399 C 126.226 927.908,125.809 929.156,125.318 930.173 C 124.827 931.191,124.416 932.335,124.406 932.717 C 124.395 933.098,123.974 934.035,123.468 934.798 C 122.963 935.561,122.548 936.500,122.546 936.885 C 122.545 937.271,122.127 938.362,121.618 939.312 C 121.110 940.261,120.694 941.301,120.694 941.624 C 120.694 941.946,120.277 942.987,119.769 943.936 C 119.260 944.885,118.844 945.925,118.844 946.248 C 118.844 946.571,118.457 947.560,117.984 948.446 C 117.511 949.333,116.971 950.578,116.785 951.214 C 116.387 952.574,114.804 956.232,114.184 957.225 C 113.946 957.607,113.635 958.231,113.493 958.613 C 113.159 959.510,109.141 967.879,108.609 968.786 C 108.385 969.168,108.074 969.792,107.917 970.173 C 107.760 970.555,107.033 972.132,106.301 973.678 C 105.570 975.224,104.971 976.733,104.971 977.031 C 104.971 977.329,104.771 977.572,104.526 977.572 C 104.282 977.572,103.864 978.380,103.598 979.368 C 103.332 980.356,102.804 981.422,102.424 981.737 C 102.045 982.052,101.740 982.544,101.747 982.831 C 101.762 983.488,97.532 991.931,96.793 992.717 C 96.492 993.038,96.101 993.755,95.924 994.312 C 95.748 994.868,94.929 996.283,94.104 997.457 C 93.279 998.630,92.445 1000.094,92.249 1000.711 C 92.053 1001.327,91.550 1002.356,91.130 1002.997 C 89.148 1006.024,84.192 1014.698,83.018 1017.194 C 82.638 1018.003,82.112 1018.798,81.850 1018.960 C 81.588 1019.121,81.065 1019.916,80.688 1020.725 C 80.310 1021.534,79.637 1022.742,79.192 1023.409 C 78.746 1024.076,76.925 1026.781,75.145 1029.420 C 73.365 1032.060,71.700 1034.561,71.445 1034.978 C 71.191 1035.395,69.526 1037.863,67.746 1040.462 C 65.965 1043.062,64.299 1045.546,64.043 1045.983 C 63.787 1046.420,63.267 1047.120,62.887 1047.539 C 62.197 1048.300,61.816 1048.787,59.194 1052.254 C 58.425 1053.272,57.433 1054.546,56.990 1055.085 C 56.547 1055.625,55.873 1056.533,55.491 1057.103 C 54.715 1058.263,52.665 1060.990,51.441 1062.490 C 50.998 1063.033,50.220 1064.058,49.711 1064.769 C 48.329 1066.699,42.915 1073.188,40.694 1075.578 C 40.312 1075.988,38.557 1078.087,36.794 1080.243 C 35.030 1082.398,33.197 1084.578,32.719 1085.087 C 32.242 1085.595,30.979 1086.966,29.914 1088.132 C 28.849 1089.298,26.416 1091.909,24.509 1093.934 C 22.601 1095.959,19.584 1099.252,17.803 1101.252 C 16.023 1103.251,13.682 1105.761,12.601 1106.829 C 10.728 1108.680,10.139 1109.827,11.060 1109.827 C 11.293 1109.827,11.553 1109.632,11.638 1109.395 C 11.723 1109.157,13.992 1106.608,16.681 1103.730 C 19.370 1100.852,23.001 1096.936,24.749 1095.029 C 26.497 1093.121,28.459 1091.029,29.108 1090.379 C 29.758 1089.729,31.329 1087.962,32.601 1086.451 C 33.873 1084.941,35.434 1083.174,36.069 1082.524 C 36.705 1081.874,37.939 1080.416,38.811 1079.284 C 39.683 1078.152,40.670 1076.913,41.005 1076.532 C 41.341 1076.150,42.396 1074.915,43.351 1073.787 C 44.306 1072.658,45.682 1071.098,46.409 1070.319 C 47.770 1068.860,53.306 1061.692,55.669 1058.330 C 56.402 1057.287,57.859 1055.375,58.906 1054.081 C 59.953 1052.788,61.225 1051.145,61.734 1050.431 C 62.243 1049.717,63.394 1048.170,64.292 1046.994 C 66.617 1043.949,72.376 1035.390,73.792 1032.876 C 74.209 1032.137,74.738 1031.304,74.968 1031.026 C 76.860 1028.741,78.150 1026.822,78.150 1026.295 C 78.150 1025.948,78.369 1025.665,78.637 1025.665 C 78.904 1025.665,79.341 1025.040,79.607 1024.277 C 79.873 1023.514,80.265 1022.890,80.478 1022.890 C 80.691 1022.890,81.128 1022.162,81.450 1021.272 C 81.772 1020.382,82.199 1019.653,82.399 1019.653 C 82.599 1019.653,83.079 1018.977,83.465 1018.150 C 83.852 1017.324,84.673 1015.815,85.289 1014.798 C 85.906 1013.780,86.744 1012.324,87.152 1011.561 C 87.560 1010.798,88.398 1009.341,89.015 1008.324 C 89.631 1007.306,90.456 1005.850,90.848 1005.087 C 91.652 1003.522,93.230 1000.789,94.719 998.382 C 95.269 997.491,96.140 995.931,96.653 994.913 C 97.166 993.896,98.092 992.231,98.711 991.214 C 99.330 990.197,100.055 988.844,100.323 988.208 C 100.590 987.572,101.018 986.740,101.274 986.358 C 101.530 985.977,101.861 985.353,102.009 984.971 C 102.157 984.590,102.780 983.234,103.393 981.959 C 104.007 980.683,104.509 979.383,104.509 979.069 C 104.509 978.754,104.701 978.497,104.935 978.497 C 105.170 978.497,105.612 977.717,105.919 976.763 C 106.225 975.809,106.759 974.703,107.105 974.305 C 107.451 973.907,107.867 972.918,108.029 972.108 C 108.191 971.298,108.490 970.636,108.692 970.636 C 108.895 970.636,109.312 969.855,109.618 968.902 C 109.924 967.948,110.444 966.855,110.774 966.474 C 111.103 966.092,111.514 965.217,111.686 964.528 C 111.858 963.839,112.290 963.033,112.647 962.737 C 113.003 962.441,113.295 961.967,113.295 961.684 C 113.295 961.401,113.843 960.022,114.514 958.619 C 115.184 957.217,116.005 955.445,116.339 954.682 C 116.672 953.919,117.477 952.111,118.126 950.664 C 118.775 949.218,119.306 947.812,119.306 947.541 C 119.306 947.270,119.723 946.272,120.231 945.323 C 120.740 944.374,121.156 943.334,121.156 943.011 C 121.156 942.688,121.572 941.648,122.081 940.699 C 122.590 939.750,123.007 938.658,123.009 938.273 C 123.011 937.887,123.425 936.948,123.931 936.185 C 124.436 935.422,124.858 934.486,124.868 934.104 C 124.878 933.723,125.289 932.578,125.780 931.561 C 126.272 930.543,126.682 929.295,126.692 928.786 C 126.703 928.277,127.030 927.250,127.419 926.503 C 127.809 925.756,128.333 924.227,128.584 923.105 C 128.836 921.984,129.319 920.788,129.659 920.448 C 129.999 920.109,130.414 918.970,130.582 917.918 C 130.751 916.865,131.172 915.551,131.519 914.996 C 131.867 914.442,132.293 913.178,132.467 912.187 C 132.641 911.196,133.061 909.947,133.400 909.412 C 133.738 908.877,134.159 907.503,134.335 906.358 C 134.511 905.214,134.921 903.857,135.246 903.343 C 135.571 902.828,135.992 901.476,136.181 900.337 C 136.371 899.198,136.793 897.743,137.120 897.104 C 137.447 896.465,137.864 894.904,138.048 893.636 C 138.232 892.367,138.570 891.093,138.800 890.804 C 139.029 890.515,139.508 888.890,139.862 887.194 C 140.217 885.498,140.718 883.857,140.976 883.546 C 141.233 883.236,141.579 881.843,141.746 880.451 C 141.912 879.058,142.445 876.722,142.931 875.258 C 143.417 873.795,143.815 871.967,143.815 871.197 C 143.815 870.427,144.129 869.046,144.512 868.128 C 144.896 867.210,145.339 865.292,145.498 863.866 C 145.657 862.439,146.085 860.543,146.450 859.653 C 146.815 858.763,147.325 856.169,147.582 853.890 C 147.839 851.610,148.237 849.395,148.466 848.968 C 148.694 848.541,149.095 846.308,149.356 844.006 C 149.616 841.704,150.050 839.241,150.319 838.533 C 150.589 837.824,151.012 834.847,151.259 831.917 C 151.506 828.987,151.909 825.965,152.153 825.202 C 152.397 824.438,152.902 821.005,153.275 817.572 C 153.648 814.138,154.161 809.561,154.415 807.399 C 154.846 803.723,155.481 794.178,156.307 778.960 C 156.758 770.665,156.757 749.476,156.307 740.809 C 155.582 726.877,154.860 715.936,154.415 712.139 C 154.161 709.977,153.655 705.399,153.290 701.965 C 152.925 698.532,152.409 694.890,152.144 693.873 C 151.879 692.855,151.466 689.684,151.225 686.825 C 150.985 683.966,150.564 681.207,150.290 680.695 C 150.016 680.183,149.672 678.360,149.526 676.645 C 149.380 674.929,148.868 671.978,148.388 670.086 C 147.907 668.194,147.514 665.854,147.514 664.886 C 147.514 663.917,147.117 661.928,146.631 660.464 C 146.145 659.001,145.619 656.723,145.462 655.403 C 145.306 654.082,144.871 652.268,144.496 651.371 C 144.122 650.474,143.815 649.111,143.815 648.340 C 143.815 647.570,143.417 645.743,142.931 644.279 C 142.445 642.816,141.915 640.503,141.753 639.140 C 141.590 637.777,141.176 636.216,140.831 635.672 C 140.486 635.127,140.056 633.746,139.874 632.601 C 139.692 631.457,139.283 630.000,138.965 629.364 C 138.647 628.728,138.235 627.170,138.050 625.902 C 137.865 624.634,137.447 623.073,137.120 622.434 C 136.793 621.795,136.371 620.340,136.181 619.201 C 135.992 618.062,135.562 616.709,135.225 616.195 C 134.889 615.681,134.471 614.324,134.296 613.179 C 134.122 612.035,133.712 610.578,133.385 609.942 C 132.757 608.722,131.702 605.637,130.646 601.939 C 130.298 600.717,129.799 599.460,129.539 599.146 C 129.279 598.833,128.861 597.752,128.610 596.745 C 128.002 594.297,126.760 590.719,125.711 588.389 C 125.241 587.343,124.855 586.071,124.855 585.561 C 124.855 585.051,124.439 584.104,123.931 583.458 C 123.422 582.811,123.006 581.942,123.006 581.527 C 123.006 581.112,122.615 580.000,122.137 579.057 C 121.660 578.113,121.126 576.679,120.952 575.870 C 120.777 575.061,120.335 574.151,119.970 573.848 C 119.605 573.545,119.306 572.894,119.306 572.400 C 119.306 571.606,118.385 569.300,116.292 564.855 C 115.933 564.092,115.507 562.904,115.346 562.215 C 115.185 561.527,114.762 560.721,114.405 560.425 C 114.049 560.129,113.757 559.569,113.757 559.180 C 113.757 558.524,112.486 555.614,110.451 551.613 C 109.980 550.689,109.595 549.622,109.595 549.242 C 109.595 548.863,109.297 548.305,108.931 548.002 C 108.566 547.698,108.137 546.855,107.977 546.127 C 107.817 545.399,107.401 544.567,107.052 544.277 C 106.703 543.988,106.288 543.158,106.129 542.434 C 105.969 541.709,105.436 540.651,104.943 540.083 C 104.450 539.514,104.046 538.677,104.046 538.222 C 104.046 537.768,103.848 537.273,103.606 537.124 C 103.364 536.974,102.483 535.453,101.649 533.744 C 100.814 532.034,99.664 529.937,99.093 529.083 C 98.522 528.229,97.521 526.461,96.868 525.153 C 96.215 523.845,95.193 521.942,94.597 520.925 C 94.000 519.908,92.762 517.618,91.845 515.838 C 87.504 507.411,82.972 499.884,82.238 499.884 C 82.024 499.884,81.845 499.624,81.839 499.306 C 81.829 498.785,79.774 495.502,75.833 489.711 C 75.054 488.566,73.756 486.590,72.948 485.318 C 72.141 484.046,71.212 482.839,70.885 482.636 C 70.557 482.433,70.289 482.043,70.289 481.771 C 70.289 481.092,63.706 471.214,63.253 471.214 C 63.054 471.214,62.890 470.987,62.890 470.709 C 62.890 470.106,61.518 468.268,58.852 465.300 C 57.775 464.102,56.891 462.931,56.886 462.698 C 56.882 462.465,56.563 461.945,56.177 461.542 C 55.570 460.908,48.754 452.245,46.372 449.080 C 45.919 448.479,45.185 447.653,44.740 447.243 C 44.295 446.834,43.931 446.316,43.931 446.091 C 43.931 445.866,43.395 445.046,42.740 444.268 C 42.086 443.490,41.643 442.498,41.757 442.064 C 41.910 441.477,41.740 441.332,41.097 441.500 C 40.621 441.624,40.205 441.494,40.173 441.210 C 40.008 439.734,39.912 439.547,39.379 439.660 C 39.061 439.728,38.586 439.168,38.325 438.417 C 38.038 437.596,37.608 437.143,37.247 437.281 C 36.887 437.419,36.529 437.045,36.353 436.344 C 36.155 435.557,35.836 435.263,35.371 435.442 C 34.985 435.590,34.682 435.449,34.682 435.121 C 34.682 434.800,33.756 433.581,32.624 432.413 C 31.492 431.245,29.429 429.092,28.039 427.630 C 26.650 426.168,25.288 424.971,25.011 424.971 C 24.735 424.971,24.509 424.654,24.509 424.266 C 24.509 423.878,24.017 423.374,23.416 423.145 C 22.815 422.917,22.197 422.402,22.043 422.001 C 21.801 421.370,20.809 420.935,20.809 421.459 " stroke="none" fill="#b8b9c0" fill-rule="evenodd"></path></g></svg>