<svg id="svg" version="1.1" xmlns="http://www.w3.org/2000/svg" xmlns:xlink="http://www.w3.org/1999/xlink" width="400" height="647.2727272727274" viewBox="0, 0, 400,647.2727272727274"><g id="svgg"><path id="path0" d="M285.149 356.571 C 188.094 453.662,195.457 446.186,195.960 447.125 C 196.202 447.578,196.401 448.274,196.402 448.674 C 196.404 449.073,196.657 449.883,196.965 450.473 C 197.273 451.063,197.652 452.143,197.808 452.873 C 197.965 453.603,198.231 454.380,198.400 454.600 C 198.569 454.820,198.839 455.630,199.000 456.400 C 199.161 457.170,199.431 457.980,199.600 458.200 C 199.769 458.420,200.041 459.224,200.205 459.987 C 200.368 460.750,200.638 461.650,200.804 461.987 C 200.970 462.324,201.506 463.680,201.995 465.000 C 202.483 466.320,203.135 467.967,203.442 468.660 C 203.749 469.354,204.000 470.121,204.000 470.366 C 204.000 470.611,204.174 471.123,204.386 471.505 C 205.058 472.714,206.400 475.940,206.400 476.346 C 206.400 476.560,206.663 477.245,206.984 477.868 C 207.529 478.924,208.200 480.409,210.384 485.400 C 211.643 488.277,213.611 492.500,214.017 493.200 C 214.209 493.530,215.367 495.780,216.591 498.200 C 217.815 500.620,219.438 503.680,220.198 505.000 C 220.958 506.320,221.767 507.760,221.996 508.200 C 222.225 508.640,222.767 509.540,223.200 510.200 C 223.633 510.860,224.157 511.779,224.362 512.243 C 224.568 512.706,225.424 514.146,226.264 515.443 C 228.072 518.234,228.669 519.202,229.053 519.967 C 229.817 521.492,237.745 533.167,239.546 535.419 C 239.730 535.650,240.539 536.776,241.344 537.921 C 242.149 539.066,243.153 540.407,243.574 540.901 C 243.996 541.396,246.187 544.140,248.444 547.000 C 250.701 549.860,252.670 552.290,252.818 552.400 C 252.967 552.510,254.394 554.130,255.991 556.000 C 261.153 562.048,274.770 575.662,281.397 581.400 C 282.922 582.720,284.469 584.093,284.835 584.450 C 285.992 585.581,292.501 590.968,295.077 592.928 C 296.440 593.964,297.790 595.048,298.078 595.335 C 298.366 595.623,299.861 596.731,301.401 597.796 C 302.940 598.862,304.843 600.233,305.628 600.843 C 308.024 602.705,318.408 609.600,318.816 609.600 C 319.027 609.600,319.200 609.735,319.200 609.900 C 319.201 610.065,320.056 610.700,321.100 611.310 C 322.145 611.921,323.270 612.595,323.600 612.808 C 324.650 613.487,332.176 617.844,332.800 618.134 C 333.130 618.288,334.570 619.059,336.000 619.848 C 340.572 622.370,351.023 627.523,357.800 630.597 C 359.304 631.279,361.279 632.091,363.600 632.983 C 364.590 633.363,365.940 633.921,366.600 634.223 C 367.260 634.525,368.297 634.889,368.904 635.031 C 369.511 635.172,370.106 635.449,370.227 635.644 C 370.348 635.840,370.752 636.001,371.124 636.002 C 371.496 636.004,372.250 636.237,372.800 636.521 C 373.350 636.805,374.970 637.464,376.400 637.984 C 377.830 638.504,379.180 639.060,379.400 639.219 C 379.620 639.378,380.424 639.641,381.187 639.805 C 381.950 639.968,382.850 640.233,383.187 640.393 C 383.824 640.696,387.262 641.790,391.400 643.006 C 392.720 643.394,394.160 643.851,394.600 644.020 C 395.676 644.435,399.494 645.600,399.775 645.600 C 399.899 645.600,400.000 610.500,400.000 567.600 C 400.000 523.324,399.849 489.600,399.650 489.600 C 399.187 489.600,391.046 484.215,388.959 482.527 C 388.056 481.797,387.126 481.200,386.892 481.200 C 386.658 481.200,386.407 481.065,386.333 480.900 C 386.260 480.735,385.300 479.881,384.200 479.002 C 377.167 473.383,365.847 462.240,361.698 456.852 C 361.422 456.493,359.726 454.220,357.928 451.800 C 356.130 449.380,354.544 447.310,354.403 447.200 C 354.261 447.090,352.907 444.930,351.393 442.400 C 349.879 439.870,348.406 437.562,348.120 437.271 C 347.834 436.981,347.600 436.501,347.600 436.205 C 347.600 435.909,347.446 435.607,347.258 435.533 C 347.070 435.460,346.064 433.600,345.024 431.400 C 343.983 429.200,342.247 425.626,341.166 423.459 C 340.085 421.291,339.194 419.221,339.187 418.859 C 339.180 418.496,338.910 417.851,338.587 417.424 C 338.264 416.996,338.000 416.177,338.000 415.604 C 338.000 415.030,337.806 414.366,337.569 414.129 C 337.332 413.892,336.986 413.091,336.800 412.349 C 336.615 411.607,336.017 409.740,335.472 408.200 C 334.927 406.660,334.217 404.410,333.893 403.200 C 333.570 401.990,333.088 400.190,332.823 399.200 C 332.558 398.210,332.201 396.590,332.029 395.600 C 331.857 394.610,331.510 393.293,331.258 392.674 C 331.006 392.055,330.800 390.830,330.800 389.953 C 330.800 389.076,330.539 387.152,330.219 385.679 C 328.143 376.104,328.053 351.012,330.065 342.800 C 330.307 341.810,330.634 339.740,330.790 338.200 C 331.102 335.136,331.409 333.791,333.825 324.900 C 335.663 318.138,336.361 316.002,337.432 313.868 C 337.744 313.245,338.000 312.424,338.000 312.044 C 338.000 311.664,338.264 311.004,338.587 310.576 C 338.910 310.149,339.180 309.468,339.187 309.062 C 339.194 308.656,339.445 307.846,339.744 307.262 C 340.044 306.678,340.867 304.940,341.573 303.400 C 342.279 301.860,343.106 300.105,343.410 299.500 C 343.714 298.895,343.813 298.400,343.630 298.400 C 343.447 298.400,317.130 324.577,285.149 356.571 " stroke="none" fill="#3c4454" fill-rule="evenodd"></path><path id="path1" d="M299.690 104.225 C 244.850 159.101,199.805 204.000,199.590 204.000 C 199.376 204.000,199.200 204.270,199.200 204.600 C 199.200 204.930,198.930 205.200,198.600 205.200 C 198.270 205.200,198.000 205.470,198.000 205.800 C 198.000 206.130,197.730 206.400,197.400 206.400 C 197.070 206.400,196.800 206.670,196.800 207.000 C 196.800 207.330,196.530 207.600,196.200 207.600 C 195.870 207.600,195.600 207.870,195.600 208.200 C 195.600 208.530,195.330 208.800,195.000 208.800 C 194.670 208.800,194.400 208.946,194.400 209.124 C 194.400 209.548,167.148 236.800,166.724 236.800 C 166.546 236.800,166.400 237.070,166.400 237.400 C 166.400 237.730,166.220 238.000,166.000 238.000 C 165.481 238.000,164.000 239.481,164.000 240.000 C 164.000 240.220,163.730 240.400,163.400 240.400 C 163.070 240.400,162.800 240.670,162.800 241.000 C 162.800 241.330,162.530 241.600,162.200 241.600 C 161.870 241.600,161.600 241.780,161.600 242.000 C 161.600 242.519,160.119 244.000,159.600 244.000 C 159.380 244.000,159.200 244.270,159.200 244.600 C 159.200 244.930,158.930 245.200,158.600 245.200 C 158.270 245.200,158.000 245.470,158.000 245.800 C 158.000 246.130,157.820 246.400,157.600 246.400 C 157.081 246.400,155.600 247.881,155.600 248.400 C 155.600 248.620,155.330 248.800,155.000 248.800 C 154.670 248.800,154.400 249.070,154.400 249.400 C 154.400 249.730,154.130 250.000,153.800 250.000 C 153.470 250.000,153.200 250.144,153.200 250.319 C 153.200 250.495,147.314 256.525,140.119 263.719 C 132.925 270.914,126.895 276.800,126.719 276.800 C 126.544 276.800,126.400 277.070,126.400 277.400 C 126.400 277.730,126.226 278.000,126.013 278.000 C 125.801 278.000,124.991 278.636,124.213 279.413 C 123.436 280.191,122.800 281.001,122.800 281.213 C 122.800 281.426,122.530 281.600,122.200 281.600 C 121.870 281.600,121.600 281.870,121.600 282.200 C 121.600 282.530,121.330 282.800,121.000 282.800 C 120.670 282.800,120.400 283.070,120.400 283.400 C 120.400 283.730,120.130 284.000,119.800 284.000 C 119.470 284.000,119.200 284.270,119.200 284.600 C 119.200 284.930,118.930 285.200,118.600 285.200 C 118.270 285.200,118.000 285.470,118.000 285.800 C 118.000 286.130,117.820 286.400,117.600 286.400 C 117.081 286.400,115.600 287.881,115.600 288.400 C 115.600 288.620,115.330 288.800,115.000 288.800 C 114.670 288.800,114.400 289.070,114.400 289.400 C 114.400 289.730,114.130 290.000,113.800 290.000 C 113.470 290.000,113.200 290.144,113.200 290.319 C 113.200 290.736,87.136 316.800,86.719 316.800 C 86.544 316.800,86.400 317.070,86.400 317.400 C 86.400 317.730,86.226 318.000,86.013 318.000 C 85.510 318.000,82.800 320.710,82.800 321.213 C 82.800 321.426,82.530 321.600,82.200 321.600 C 81.870 321.600,81.600 321.870,81.600 322.200 C 81.600 322.530,81.330 322.800,81.000 322.800 C 80.670 322.800,80.400 323.070,80.400 323.400 C 80.400 323.730,80.130 324.000,79.800 324.000 C 79.470 324.000,79.200 324.270,79.200 324.600 C 79.200 324.930,78.930 325.200,78.600 325.200 C 78.270 325.200,78.000 325.470,78.000 325.800 C 78.000 326.130,77.826 326.400,77.613 326.400 C 77.110 326.400,74.400 329.110,74.400 329.613 C 74.400 329.826,74.130 330.000,73.800 330.000 C 73.470 330.000,73.200 330.180,73.200 330.400 C 73.200 330.621,72.435 331.536,71.500 332.435 C 59.562 343.910,24.460 379.307,22.200 382.151 C 21.540 382.981,20.716 383.962,20.368 384.330 C 19.698 385.040,15.148 391.815,14.672 392.811 C 14.518 393.135,14.043 393.940,13.617 394.600 C 13.192 395.260,12.452 396.610,11.974 397.600 C 11.496 398.590,10.945 399.670,10.750 400.000 C 10.555 400.330,10.289 400.870,10.159 401.200 C 9.752 402.235,8.701 404.555,8.139 405.662 C 7.843 406.246,7.594 407.056,7.587 407.462 C 7.580 407.868,7.310 408.549,6.987 408.976 C 6.664 409.404,6.400 410.224,6.400 410.800 C 6.400 411.376,6.136 412.196,5.813 412.624 C 5.490 413.051,5.220 413.904,5.213 414.520 C 5.206 415.136,4.955 416.126,4.656 416.720 C 4.356 417.314,4.003 419.014,3.871 420.498 C 3.739 421.982,3.422 423.586,3.166 424.063 C 2.516 425.278,2.516 447.522,3.166 448.737 C 3.422 449.214,3.743 450.810,3.881 452.282 C 4.018 453.755,4.370 455.419,4.663 455.980 C 4.956 456.541,5.202 457.630,5.210 458.400 C 5.219 459.170,5.490 460.149,5.813 460.576 C 6.136 461.004,6.400 461.836,6.400 462.427 C 6.400 463.018,6.670 463.726,7.000 464.000 C 7.330 464.274,7.600 464.830,7.600 465.235 C 7.600 465.641,7.896 466.654,8.258 467.486 C 8.620 468.319,9.186 469.630,9.517 470.400 C 9.847 471.170,10.272 472.070,10.461 472.400 C 10.650 472.730,10.916 473.270,11.051 473.600 C 11.813 475.461,12.883 477.565,13.123 477.674 C 13.275 477.743,13.760 478.510,14.200 479.379 C 14.640 480.247,15.810 482.078,16.800 483.448 C 17.790 484.817,18.870 486.334,19.200 486.818 C 19.530 487.302,19.980 487.901,20.200 488.150 C 20.420 488.398,21.257 489.411,22.060 490.401 C 24.115 492.934,28.173 497.012,31.215 499.600 C 35.216 503.005,35.385 503.140,37.200 504.373 C 37.970 504.896,38.780 505.521,39.001 505.762 C 39.222 506.003,40.032 506.543,40.801 506.961 C 41.570 507.380,42.974 508.235,43.920 508.861 C 44.866 509.488,45.789 510.000,45.971 510.000 C 46.153 510.000,46.526 510.270,46.800 510.600 C 47.074 510.930,47.704 511.200,48.200 511.200 C 48.696 511.200,49.326 511.470,49.600 511.800 C 49.874 512.130,50.504 512.400,51.000 512.400 C 51.496 512.400,52.126 512.670,52.400 513.000 C 52.674 513.330,53.286 513.600,53.760 513.600 C 54.234 513.600,54.977 513.844,55.411 514.142 C 55.845 514.440,56.650 514.782,57.200 514.901 C 58.563 515.198,60.779 515.997,62.062 516.655 C 62.646 516.955,63.726 517.206,64.462 517.214 C 65.198 517.222,66.250 517.486,66.800 517.800 C 67.350 518.114,68.649 518.378,69.686 518.386 C 70.723 518.394,72.433 518.696,73.486 519.059 C 76.297 520.026,95.686 520.023,98.514 519.055 C 99.567 518.695,101.277 518.394,102.314 518.386 C 103.351 518.378,104.650 518.114,105.200 517.800 C 105.750 517.486,106.839 517.222,107.620 517.214 C 108.401 517.206,109.234 517.006,109.471 516.769 C 109.708 516.532,110.509 516.188,111.251 516.004 C 113.080 515.552,115.179 514.802,116.462 514.145 C 117.046 513.845,117.879 513.600,118.313 513.600 C 118.747 513.600,119.326 513.330,119.600 513.000 C 119.874 512.670,120.504 512.400,121.000 512.400 C 121.496 512.400,122.126 512.130,122.400 511.800 C 122.674 511.470,123.326 511.200,123.849 511.200 C 124.372 511.200,124.800 511.032,124.800 510.827 C 124.800 510.622,125.179 510.334,125.641 510.187 C 126.104 510.040,127.139 509.470,127.941 508.920 C 128.744 508.370,129.760 507.750,130.200 507.543 C 131.620 506.873,132.902 506.081,133.154 505.718 C 133.289 505.522,134.570 504.484,136.000 503.409 C 137.430 502.334,138.870 501.219,139.200 500.930 C 139.530 500.641,140.782 499.549,141.981 498.502 C 143.181 497.456,155.479 485.305,169.310 471.500 C 183.141 457.695,194.674 446.400,194.940 446.400 C 195.206 446.400,202.439 439.367,211.012 430.771 C 273.970 367.647,343.356 298.400,343.648 298.400 C 343.842 298.400,344.000 298.206,344.000 297.970 C 344.000 296.450,397.811 242.000,399.313 242.000 C 399.961 242.000,400.000 235.197,400.000 123.200 C 400.000 57.860,399.865 4.411,399.700 4.425 C 399.535 4.439,354.531 49.349,299.690 104.225 " stroke="none" fill="#fb5454" fill-rule="evenodd"></path><path id="path2" d="M0.000 323.600 L 0.000 647.200 200.000 647.200 C 333.067 647.200,400.000 647.066,400.000 646.800 C 400.000 646.580,399.685 646.399,399.300 646.398 C 398.915 646.396,398.084 646.126,397.454 645.798 C 396.824 645.469,395.924 645.194,395.454 645.186 C 394.984 645.178,394.150 644.914,393.600 644.600 C 393.050 644.286,392.240 644.021,391.800 644.012 C 391.360 644.003,390.484 643.726,389.854 643.398 C 389.224 643.069,388.351 642.800,387.915 642.800 C 387.478 642.800,386.554 642.555,385.860 642.256 C 385.167 641.957,383.250 641.302,381.600 640.799 C 379.950 640.297,378.429 639.731,378.220 639.543 C 378.011 639.354,377.588 639.200,377.280 639.200 C 376.707 639.200,374.680 638.398,372.668 637.376 C 372.045 637.059,371.325 636.794,371.068 636.786 C 370.810 636.779,369.880 636.425,369.000 636.000 C 368.120 635.575,367.121 635.221,366.780 635.214 C 366.439 635.206,365.989 635.050,365.780 634.866 C 365.571 634.682,364.500 634.208,363.400 633.812 C 360.952 632.931,358.612 631.930,355.200 630.305 C 353.770 629.624,351.520 628.569,350.200 627.961 C 345.977 626.014,341.868 623.967,339.400 622.580 C 338.080 621.839,336.730 621.122,336.400 620.987 C 336.070 620.852,335.530 620.585,335.200 620.393 C 334.870 620.200,333.790 619.605,332.800 619.070 C 331.810 618.534,330.370 617.717,329.600 617.253 C 328.830 616.789,327.840 616.246,327.400 616.045 C 326.960 615.844,325.970 615.248,325.200 614.721 C 324.430 614.193,323.530 613.633,323.200 613.476 C 322.870 613.319,322.060 612.835,321.400 612.400 C 320.740 611.965,319.795 611.398,319.300 611.140 C 318.805 610.882,318.400 610.540,318.400 610.379 C 318.400 610.218,317.950 609.974,317.400 609.836 C 316.850 609.698,316.400 609.408,316.400 609.192 C 316.400 608.977,316.124 608.800,315.787 608.800 C 315.451 608.800,315.078 608.546,314.959 608.236 C 314.839 607.926,314.305 607.563,313.771 607.428 C 313.237 607.294,312.800 607.008,312.800 606.792 C 312.800 606.577,312.524 606.400,312.187 606.400 C 311.851 606.400,311.471 606.130,311.345 605.800 C 311.218 605.470,310.891 605.200,310.618 605.200 C 310.182 605.200,309.633 604.823,307.717 603.207 C 307.451 602.983,307.128 602.800,306.999 602.800 C 306.870 602.800,305.623 601.945,304.228 600.900 C 302.832 599.855,301.288 598.730,300.796 598.400 C 300.304 598.070,299.699 597.614,299.451 597.388 C 299.203 597.161,297.920 596.145,296.600 595.132 C 295.280 594.118,293.750 592.912,293.200 592.452 C 292.650 591.991,292.018 591.476,291.796 591.307 C 290.525 590.341,287.318 587.712,286.785 587.200 C 286.441 586.870,285.099 585.700,283.802 584.600 C 279.810 581.214,277.973 579.537,274.164 575.800 C 272.145 573.820,269.528 571.268,268.347 570.129 C 263.133 565.098,257.680 559.298,253.338 554.165 C 252.423 553.084,251.099 551.570,250.395 550.800 C 249.691 550.030,248.819 548.950,248.458 548.400 C 247.795 547.393,246.873 546.239,245.400 544.575 C 244.960 544.077,244.330 543.265,244.000 542.769 C 243.670 542.274,243.085 541.538,242.700 541.134 C 242.315 540.730,242.000 540.297,242.000 540.171 C 242.000 540.046,241.775 539.708,241.500 539.420 C 241.225 539.133,240.730 538.496,240.400 538.004 C 240.070 537.512,238.945 535.968,237.900 534.572 C 236.855 533.177,236.000 531.867,236.000 531.661 C 236.000 531.454,235.730 531.182,235.400 531.055 C 235.070 530.929,234.800 530.564,234.800 530.246 C 234.800 529.927,234.665 529.607,234.500 529.533 C 234.005 529.313,231.200 525.032,231.200 524.497 C 231.200 524.223,231.016 524.000,230.790 524.000 C 230.565 524.000,230.202 523.595,229.984 523.100 C 229.766 522.605,229.233 521.660,228.798 521.000 C 228.364 520.340,227.798 519.395,227.540 518.900 C 227.282 518.405,226.941 518.000,226.782 518.000 C 226.623 518.000,226.384 517.685,226.251 517.300 C 226.118 516.915,225.653 516.060,225.217 515.400 C 224.782 514.740,224.151 513.660,223.816 513.000 C 223.481 512.340,222.667 510.900,222.007 509.800 C 221.347 508.700,220.617 507.440,220.386 507.000 C 220.154 506.560,219.361 505.120,218.622 503.800 C 217.884 502.480,216.079 498.970,214.612 496.000 C 213.145 493.030,211.776 490.330,211.570 490.000 C 211.364 489.670,211.095 489.130,210.972 488.800 C 210.849 488.470,210.503 487.660,210.202 487.000 C 209.902 486.340,209.002 484.360,208.203 482.600 C 207.405 480.840,206.582 479.087,206.376 478.705 C 206.169 478.323,206.000 477.819,206.000 477.583 C 206.000 477.148,204.686 473.964,203.986 472.705 C 203.774 472.323,203.600 471.781,203.600 471.500 C 203.600 471.218,203.240 470.316,202.800 469.496 C 202.360 468.675,201.994 467.687,201.987 467.301 C 201.980 466.916,201.710 466.251,201.387 465.824 C 201.064 465.396,200.800 464.742,200.800 464.369 C 200.800 463.996,200.531 463.176,200.202 462.546 C 199.874 461.916,199.604 461.106,199.602 460.746 C 199.601 460.386,199.331 459.576,199.002 458.946 C 198.674 458.316,198.398 457.440,198.390 457.000 C 198.381 456.560,198.110 455.851,197.787 455.424 C 197.464 454.996,197.200 454.342,197.200 453.969 C 197.200 453.596,196.931 452.776,196.602 452.146 C 196.274 451.516,196.004 450.533,196.002 449.962 C 196.001 449.391,195.663 448.619,195.251 448.246 C 194.532 447.596,193.427 448.639,168.250 473.727 C 149.726 492.186,140.851 500.748,138.099 502.813 C 135.955 504.423,134.000 505.979,133.756 506.270 C 133.512 506.562,133.206 506.800,133.076 506.800 C 132.946 506.800,132.066 507.321,131.120 507.957 C 130.174 508.594,128.680 509.503,127.800 509.978 C 126.920 510.453,125.930 511.008,125.600 511.212 C 125.076 511.536,123.281 512.351,118.086 514.625 C 117.364 514.941,116.492 515.200,116.148 515.200 C 115.805 515.200,115.046 515.453,114.462 515.762 C 109.931 518.163,93.926 521.200,85.810 521.200 C 78.006 521.200,61.987 518.119,57.538 515.762 C 56.954 515.453,56.195 515.200,55.852 515.200 C 55.212 515.200,54.581 514.948,49.899 512.825 C 48.413 512.151,47.122 511.600,47.029 511.600 C 46.937 511.600,45.311 510.655,43.416 509.500 C 41.521 508.345,39.659 507.220,39.279 507.000 C 37.706 506.091,34.800 503.841,34.800 503.532 C 34.800 503.349,34.618 503.200,34.397 503.200 C 34.175 503.200,33.415 502.705,32.708 502.100 C 30.685 500.367,26.700 496.698,25.649 495.600 C 22.431 492.239,20.345 489.885,19.723 488.913 C 19.331 488.301,18.777 487.556,18.491 487.257 C 17.583 486.308,14.211 481.291,13.211 479.400 C 12.979 478.960,12.433 478.060,11.998 477.400 C 11.564 476.740,11.095 475.930,10.956 475.600 C 10.816 475.270,9.976 473.470,9.089 471.600 C 8.201 469.730,7.339 467.660,7.172 467.000 C 7.005 466.340,6.476 464.810,5.996 463.600 C 5.516 462.390,4.990 460.770,4.829 460.000 C 4.667 459.230,4.336 457.970,4.093 457.200 C 2.919 453.475,2.056 447.710,1.365 438.979 C 0.957 433.813,2.474 420.838,4.100 415.600 C 4.339 414.830,4.667 413.570,4.829 412.800 C 4.990 412.030,5.514 410.410,5.991 409.200 C 6.469 407.990,7.018 406.491,7.211 405.868 C 7.404 405.245,8.291 403.231,9.181 401.391 C 10.072 399.552,10.800 397.963,10.800 397.861 C 10.800 397.460,15.768 389.318,16.852 387.942 C 17.483 387.141,18.000 386.280,18.000 386.030 C 18.000 385.780,18.270 385.471,18.600 385.345 C 18.930 385.218,19.200 384.928,19.200 384.700 C 19.200 384.473,20.044 383.277,21.077 382.043 C 23.577 379.055,399.130 3.600,399.619 3.600 C 399.829 3.600,400.000 2.790,400.000 1.800 L 400.000 0.000 200.000 0.000 L 0.000 0.000 0.000 323.600 M372.578 269.323 L 346.157 295.800 343.478 301.221 C 342.005 304.202,340.800 306.937,340.800 307.297 C 340.800 307.658,340.634 308.055,340.431 308.181 C 340.228 308.306,339.941 308.959,339.793 309.632 C 339.645 310.304,339.273 311.337,338.965 311.927 C 338.657 312.517,338.398 313.270,338.390 313.600 C 338.381 313.930,338.110 314.549,337.787 314.976 C 337.464 315.404,337.200 316.058,337.200 316.431 C 337.200 316.804,336.931 317.624,336.602 318.254 C 336.274 318.884,335.997 319.760,335.988 320.200 C 335.979 320.640,335.714 321.450,335.400 322.000 C 335.086 322.550,334.822 323.597,334.814 324.326 C 334.806 325.056,334.585 326.046,334.323 326.526 C 334.061 327.007,333.721 328.210,333.569 329.200 C 333.417 330.190,333.105 331.540,332.876 332.200 C 332.243 334.028,331.530 337.864,331.204 341.200 C 331.043 342.850,330.716 345.010,330.479 346.000 C 329.192 351.364,329.313 377.482,330.650 382.784 C 330.952 383.985,331.198 385.785,331.197 386.784 C 331.193 388.557,332.061 392.999,332.879 395.400 C 333.104 396.060,333.430 397.522,333.603 398.649 C 333.776 399.776,334.116 401.069,334.359 401.523 C 334.601 401.976,334.800 402.979,334.800 403.750 C 334.800 404.522,334.958 405.250,335.151 405.370 C 335.344 405.489,335.998 407.164,336.605 409.093 C 337.212 411.022,337.840 412.780,338.001 413.000 C 338.161 413.220,338.389 413.850,338.506 414.400 C 338.995 416.693,340.370 420.039,342.900 425.086 C 343.945 427.171,344.800 429.115,344.800 429.405 C 344.800 429.696,344.935 429.993,345.100 430.067 C 345.470 430.231,347.200 433.728,347.200 434.310 C 347.200 434.543,347.344 434.793,347.521 434.867 C 347.962 435.050,350.800 439.798,350.800 440.352 C 350.800 440.599,350.984 440.800,351.210 440.800 C 351.435 440.800,351.795 441.205,352.009 441.700 C 352.421 442.653,352.699 443.117,354.583 445.993 C 355.998 448.153,356.381 448.649,357.300 449.517 C 357.685 449.880,358.000 450.389,358.000 450.646 C 358.000 450.904,358.270 451.218,358.600 451.345 C 358.930 451.471,359.200 451.851,359.200 452.187 C 359.200 452.524,359.359 452.800,359.553 452.800 C 359.747 452.800,360.425 453.599,361.061 454.576 C 363.570 458.433,374.941 470.177,381.433 475.616 C 383.615 477.444,385.460 479.088,385.533 479.270 C 385.607 479.451,385.862 479.600,386.100 479.600 C 386.338 479.600,386.818 479.874,387.166 480.208 C 387.515 480.542,389.060 481.704,390.600 482.788 C 392.140 483.873,393.617 484.950,393.883 485.180 C 394.149 485.411,394.451 485.600,394.555 485.600 C 394.659 485.600,395.827 486.320,397.152 487.200 C 398.477 488.080,399.660 488.800,399.781 488.800 C 399.901 488.800,400.000 433.450,400.000 365.800 C 400.000 267.655,399.899 242.805,399.500 242.823 C 399.225 242.835,387.110 254.760,372.578 269.323 " stroke="none" fill="#fbfbfb" fill-rule="evenodd"></path><path id="path3" d="M344.530 297.300 C 344.328 297.575,343.871 298.430,343.515 299.200 C 343.159 299.970,342.287 301.860,341.578 303.400 C 340.869 304.940,340.044 306.678,339.744 307.262 C 339.445 307.846,339.194 308.656,339.187 309.062 C 339.180 309.468,338.910 310.149,338.587 310.576 C 338.264 311.004,338.000 311.664,338.000 312.044 C 338.000 312.424,337.744 313.245,337.432 313.868 C 336.361 316.002,335.663 318.138,333.825 324.900 C 331.409 333.791,331.102 335.136,330.790 338.200 C 330.634 339.740,330.307 341.810,330.065 342.800 C 328.053 351.012,328.143 376.104,330.219 385.679 C 330.539 387.152,330.800 389.076,330.800 389.953 C 330.800 390.830,331.006 392.055,331.258 392.674 C 331.510 393.293,331.857 394.610,332.029 395.600 C 332.201 396.590,332.558 398.210,332.823 399.200 C 333.088 400.190,333.570 401.990,333.893 403.200 C 334.217 404.410,334.927 406.660,335.472 408.200 C 336.017 409.740,336.615 411.607,336.800 412.349 C 336.986 413.091,337.332 413.892,337.569 414.129 C 337.806 414.366,338.000 415.030,338.000 415.604 C 338.000 416.177,338.264 416.996,338.587 417.424 C 338.910 417.851,339.180 418.496,339.187 418.859 C 339.194 419.221,340.085 421.291,341.166 423.459 C 342.247 425.626,343.983 429.200,345.024 431.400 C 346.064 433.600,347.070 435.460,347.258 435.533 C 347.446 435.607,347.600 435.909,347.600 436.205 C 347.600 436.501,347.834 436.981,348.120 437.271 C 348.406 437.562,349.879 439.870,351.393 442.400 C 352.907 444.930,354.261 447.090,354.403 447.200 C 354.544 447.310,356.130 449.380,357.928 451.800 C 359.726 454.220,361.422 456.493,361.698 456.852 C 365.847 462.240,377.167 473.383,384.200 479.002 C 385.300 479.881,386.260 480.735,386.333 480.900 C 386.407 481.065,386.658 481.200,386.892 481.200 C 387.126 481.200,388.056 481.797,388.959 482.527 C 391.046 484.215,399.187 489.600,399.650 489.600 C 400.675 489.600,396.819 486.565,394.618 485.639 C 394.408 485.551,394.048 485.317,393.818 485.120 C 393.588 484.922,392.140 483.873,390.600 482.788 C 389.060 481.704,387.515 480.542,387.166 480.208 C 386.818 479.874,386.338 479.600,386.100 479.600 C 385.862 479.600,385.607 479.451,385.533 479.270 C 385.460 479.088,383.615 477.444,381.433 475.616 C 374.941 470.177,363.570 458.433,361.061 454.576 C 360.425 453.599,359.747 452.800,359.553 452.800 C 359.359 452.800,359.200 452.524,359.200 452.187 C 359.200 451.851,358.930 451.471,358.600 451.345 C 358.270 451.218,358.000 450.904,358.000 450.646 C 358.000 450.389,357.685 449.880,357.300 449.517 C 356.381 448.649,355.998 448.153,354.583 445.993 C 352.699 443.117,352.421 442.653,352.009 441.700 C 351.795 441.205,351.435 440.800,351.210 440.800 C 350.984 440.800,350.800 440.599,350.800 440.352 C 350.800 439.798,347.962 435.050,347.521 434.867 C 347.344 434.793,347.200 434.543,347.200 434.310 C 347.200 433.728,345.470 430.231,345.100 430.067 C 344.935 429.993,344.800 429.696,344.800 429.405 C 344.800 429.115,343.945 427.171,342.900 425.086 C 340.370 420.039,338.995 416.693,338.506 414.400 C 338.389 413.850,338.161 413.220,338.001 413.000 C 337.840 412.780,337.212 411.022,336.605 409.093 C 335.998 407.164,335.344 405.489,335.151 405.370 C 334.958 405.250,334.800 404.522,334.800 403.750 C 334.800 402.979,334.601 401.976,334.359 401.523 C 334.116 401.069,333.776 399.776,333.603 398.649 C 333.430 397.522,333.104 396.060,332.879 395.400 C 332.061 392.999,331.193 388.557,331.197 386.784 C 331.198 385.785,330.952 383.985,330.650 382.784 C 329.313 377.482,329.192 351.364,330.479 346.000 C 330.716 345.010,331.043 342.850,331.204 341.200 C 331.530 337.864,332.243 334.028,332.876 332.200 C 333.105 331.540,333.417 330.190,333.569 329.200 C 333.721 328.210,334.061 327.007,334.323 326.526 C 334.585 326.046,334.806 325.056,334.814 324.326 C 334.822 323.597,335.086 322.550,335.400 322.000 C 335.714 321.450,335.979 320.640,335.988 320.200 C 335.997 319.760,336.274 318.884,336.602 318.254 C 336.931 317.624,337.200 316.804,337.200 316.431 C 337.200 316.058,337.464 315.404,337.787 314.976 C 338.110 314.549,338.381 313.930,338.390 313.600 C 338.398 313.270,338.657 312.517,338.965 311.927 C 339.273 311.337,339.645 310.304,339.793 309.632 C 339.941 308.959,340.228 308.306,340.431 308.181 C 340.634 308.055,340.800 307.646,340.800 307.271 C 340.800 306.897,341.880 304.434,343.200 301.800 C 344.520 299.166,345.600 296.963,345.600 296.905 C 345.600 296.592,344.846 296.871,344.530 297.300 M195.055 447.002 C 194.893 447.424,195.029 447.991,195.390 448.389 C 195.726 448.760,196.001 449.499,196.002 450.031 C 196.004 450.564,196.274 451.516,196.602 452.146 C 196.931 452.776,197.200 453.596,197.200 453.969 C 197.200 454.342,197.464 454.996,197.787 455.424 C 198.110 455.851,198.381 456.560,198.390 457.000 C 198.398 457.440,198.674 458.316,199.002 458.946 C 199.331 459.576,199.601 460.386,199.602 460.746 C 199.604 461.106,199.874 461.916,200.202 462.546 C 200.531 463.176,200.800 463.996,200.800 464.369 C 200.800 464.742,201.064 465.396,201.387 465.824 C 201.710 466.251,201.980 466.916,201.987 467.301 C 201.994 467.687,202.360 468.675,202.800 469.496 C 203.240 470.316,203.600 471.218,203.600 471.500 C 203.600 471.781,203.774 472.323,203.986 472.705 C 204.686 473.964,206.000 477.148,206.000 477.583 C 206.000 477.819,206.169 478.323,206.376 478.705 C 206.702 479.309,208.073 482.288,210.286 487.200 C 210.633 487.970,211.072 488.870,211.261 489.200 C 211.450 489.530,211.716 490.070,211.852 490.400 C 212.394 491.715,217.362 501.547,218.622 503.800 C 219.361 505.120,220.154 506.560,220.386 507.000 C 220.617 507.440,221.347 508.700,222.007 509.800 C 222.667 510.900,223.481 512.340,223.816 513.000 C 224.151 513.660,224.782 514.740,225.217 515.400 C 225.653 516.060,226.118 516.915,226.251 517.300 C 226.384 517.685,226.623 518.000,226.782 518.000 C 226.941 518.000,227.282 518.405,227.540 518.900 C 227.798 519.395,228.364 520.340,228.798 521.000 C 229.233 521.660,229.766 522.605,229.984 523.100 C 230.202 523.595,230.565 524.000,230.790 524.000 C 231.016 524.000,231.200 524.223,231.200 524.497 C 231.200 525.032,234.005 529.313,234.500 529.533 C 234.665 529.607,234.800 529.927,234.800 530.246 C 234.800 530.564,235.070 530.929,235.400 531.055 C 235.730 531.182,236.000 531.454,236.000 531.661 C 236.000 531.867,236.855 533.177,237.900 534.572 C 238.945 535.968,240.070 537.512,240.400 538.004 C 240.730 538.496,241.225 539.133,241.500 539.420 C 241.775 539.708,242.000 540.046,242.000 540.171 C 242.000 540.297,242.315 540.730,242.700 541.134 C 243.085 541.538,243.670 542.274,244.000 542.769 C 244.330 543.265,244.960 544.077,245.400 544.575 C 246.873 546.239,247.795 547.393,248.458 548.400 C 248.819 548.950,249.691 550.030,250.395 550.800 C 251.099 551.570,252.423 553.084,253.338 554.165 C 257.680 559.298,263.133 565.098,268.347 570.129 C 269.528 571.268,272.145 573.820,274.164 575.800 C 277.973 579.537,279.810 581.214,283.802 584.600 C 285.099 585.700,286.441 586.870,286.785 587.200 C 287.318 587.712,290.525 590.341,291.796 591.307 C 292.018 591.476,292.650 591.991,293.200 592.452 C 293.750 592.912,295.280 594.118,296.600 595.132 C 297.920 596.145,299.203 597.161,299.451 597.388 C 299.699 597.614,300.304 598.070,300.796 598.400 C 301.288 598.730,302.832 599.855,304.228 600.900 C 305.623 601.945,306.870 602.800,306.999 602.800 C 307.128 602.800,307.451 602.983,307.717 603.207 C 309.633 604.823,310.182 605.200,310.618 605.200 C 310.891 605.200,311.218 605.470,311.345 605.800 C 311.471 606.130,311.851 606.400,312.187 606.400 C 312.524 606.400,312.800 606.577,312.800 606.792 C 312.800 607.008,313.237 607.294,313.771 607.428 C 314.305 607.563,314.839 607.926,314.959 608.236 C 315.078 608.546,315.451 608.800,315.787 608.800 C 316.124 608.800,316.400 608.977,316.400 609.192 C 316.400 609.408,316.850 609.698,317.400 609.836 C 317.950 609.974,318.400 610.218,318.400 610.379 C 318.400 610.540,318.805 610.882,319.300 611.140 C 319.795 611.398,320.740 611.965,321.400 612.400 C 322.060 612.835,322.870 613.319,323.200 613.476 C 323.530 613.633,324.430 614.193,325.200 614.721 C 325.970 615.248,326.960 615.844,327.400 616.045 C 327.840 616.246,328.830 616.789,329.600 617.253 C 330.370 617.717,331.810 618.534,332.800 619.070 C 333.790 619.605,334.870 620.200,335.200 620.393 C 335.530 620.585,336.070 620.852,336.400 620.987 C 336.730 621.122,338.080 621.839,339.400 622.580 C 341.868 623.967,345.977 626.014,350.200 627.961 C 351.520 628.569,353.770 629.624,355.200 630.305 C 358.612 631.930,360.952 632.931,363.400 633.812 C 364.500 634.208,365.571 634.682,365.780 634.866 C 365.989 635.050,366.439 635.206,366.780 635.214 C 367.121 635.221,368.120 635.575,369.000 636.000 C 369.880 636.425,370.810 636.779,371.068 636.786 C 371.325 636.794,372.045 637.059,372.668 637.376 C 374.680 638.398,376.707 639.200,377.280 639.200 C 377.588 639.200,378.011 639.354,378.220 639.543 C 378.429 639.731,379.950 640.297,381.600 640.799 C 383.250 641.302,385.167 641.957,385.860 642.256 C 386.554 642.555,387.478 642.800,387.915 642.800 C 388.351 642.800,389.224 643.069,389.854 643.398 C 390.484 643.726,391.360 644.003,391.800 644.012 C 392.240 644.021,393.050 644.286,393.600 644.600 C 394.150 644.914,394.984 645.178,395.454 645.186 C 395.924 645.194,396.824 645.469,397.454 645.798 C 398.723 646.459,400.000 646.588,400.000 646.055 C 400.000 645.865,398.965 645.401,397.700 645.024 C 396.435 644.647,395.040 644.198,394.600 644.025 C 394.160 643.853,392.720 643.394,391.400 643.006 C 387.262 641.790,383.824 640.696,383.187 640.393 C 382.850 640.233,381.950 639.968,381.187 639.805 C 380.424 639.641,379.620 639.378,379.400 639.219 C 379.180 639.060,377.830 638.504,376.400 637.984 C 374.970 637.464,373.350 636.805,372.800 636.521 C 372.250 636.237,371.496 636.004,371.124 636.002 C 370.752 636.001,370.348 635.840,370.227 635.644 C 370.106 635.449,369.511 635.172,368.904 635.031 C 368.297 634.889,367.260 634.525,366.600 634.223 C 365.940 633.921,364.590 633.363,363.600 632.983 C 361.279 632.091,359.304 631.279,357.800 630.597 C 351.023 627.523,340.572 622.370,336.000 619.848 C 334.570 619.059,333.130 618.288,332.800 618.134 C 332.176 617.844,324.650 613.487,323.600 612.808 C 323.270 612.595,322.145 611.921,321.100 611.310 C 320.056 610.700,319.201 610.065,319.200 609.900 C 319.200 609.735,319.027 609.600,318.816 609.600 C 318.408 609.600,308.024 602.705,305.628 600.843 C 304.843 600.233,302.940 598.862,301.401 597.796 C 299.861 596.731,298.366 595.623,298.078 595.335 C 297.790 595.048,296.440 593.964,295.077 592.928 C 292.501 590.968,285.992 585.581,284.835 584.450 C 284.469 584.093,282.922 582.720,281.397 581.400 C 274.770 575.662,261.153 562.048,255.991 556.000 C 254.394 554.130,252.967 552.510,252.818 552.400 C 252.670 552.290,250.701 549.860,248.444 547.000 C 246.187 544.140,243.996 541.396,243.574 540.901 C 243.153 540.407,242.149 539.066,241.344 537.921 C 240.539 536.776,239.730 535.650,239.546 535.419 C 237.745 533.167,229.817 521.492,229.053 519.967 C 228.669 519.202,228.072 518.234,226.264 515.443 C 225.424 514.146,224.568 512.706,224.362 512.243 C 224.157 511.779,223.633 510.860,223.200 510.200 C 222.767 509.540,222.225 508.640,221.996 508.200 C 221.767 507.760,220.958 506.320,220.198 505.000 C 219.438 503.680,217.815 500.620,216.591 498.200 C 215.367 495.780,214.209 493.530,214.017 493.200 C 213.611 492.500,211.643 488.277,210.384 485.400 C 208.200 480.409,207.529 478.924,206.984 477.868 C 206.663 477.245,206.400 476.560,206.400 476.346 C 206.400 475.940,205.058 472.714,204.386 471.505 C 204.174 471.123,204.000 470.611,204.000 470.366 C 204.000 470.121,203.749 469.354,203.442 468.660 C 203.135 467.967,202.483 466.320,201.995 465.000 C 201.506 463.680,200.970 462.324,200.804 461.987 C 200.638 461.650,200.368 460.750,200.205 459.987 C 200.041 459.224,199.769 458.420,199.600 458.200 C 199.431 457.980,199.161 457.170,199.000 456.400 C 198.839 455.630,198.569 454.820,198.400 454.600 C 198.231 454.380,197.965 453.603,197.808 452.873 C 197.652 452.143,197.273 451.063,196.965 450.473 C 196.657 449.883,196.404 449.029,196.402 448.576 C 196.398 447.242,195.407 446.084,195.055 447.002 " stroke="none" fill="#b2b5bc" fill-rule="evenodd"></path><path id="path4" d="M211.752 190.940 C 33.514 369.189,19.210 383.579,19.203 384.657 C 19.201 384.909,18.930 385.218,18.600 385.345 C 18.270 385.471,18.000 385.780,18.000 386.030 C 18.000 386.280,17.483 387.141,16.852 387.942 C 15.768 389.318,10.800 397.460,10.800 397.861 C 10.800 397.963,10.072 399.552,9.181 401.391 C 8.291 403.231,7.404 405.245,7.211 405.868 C 7.018 406.491,6.469 407.990,5.991 409.200 C 5.514 410.410,4.990 412.030,4.829 412.800 C 4.667 413.570,4.339 414.830,4.100 415.600 C 2.474 420.838,0.957 433.813,1.365 438.979 C 2.056 447.710,2.919 453.475,4.093 457.200 C 4.336 457.970,4.667 459.230,4.829 460.000 C 4.990 460.770,5.516 462.390,5.996 463.600 C 6.476 464.810,7.005 466.340,7.172 467.000 C 7.339 467.660,8.201 469.730,9.089 471.600 C 9.976 473.470,10.816 475.270,10.956 475.600 C 11.095 475.930,11.564 476.740,11.998 477.400 C 12.433 478.060,12.979 478.960,13.211 479.400 C 14.211 481.291,17.583 486.308,18.491 487.257 C 18.777 487.556,19.331 488.301,19.723 488.913 C 20.345 489.885,22.431 492.239,25.649 495.600 C 26.700 496.698,30.685 500.367,32.708 502.100 C 33.415 502.705,34.175 503.200,34.397 503.200 C 34.618 503.200,34.800 503.349,34.800 503.532 C 34.800 503.841,37.706 506.091,39.279 507.000 C 39.659 507.220,41.521 508.345,43.416 509.500 C 45.311 510.655,46.937 511.600,47.029 511.600 C 47.122 511.600,48.413 512.151,49.899 512.825 C 54.581 514.948,55.212 515.200,55.852 515.200 C 56.195 515.200,56.954 515.453,57.538 515.762 C 61.987 518.119,78.006 521.200,85.810 521.200 C 93.926 521.200,109.931 518.163,114.462 515.762 C 115.046 515.453,115.805 515.200,116.148 515.200 C 116.492 515.200,117.364 514.941,118.086 514.625 C 123.281 512.351,125.076 511.536,125.600 511.212 C 125.930 511.008,126.920 510.453,127.800 509.978 C 128.680 509.503,130.174 508.594,131.120 507.957 C 132.066 507.321,132.946 506.800,133.076 506.800 C 133.206 506.800,133.512 506.562,133.756 506.270 C 134.000 505.979,135.951 504.426,138.092 502.819 C 141.531 500.238,195.200 447.442,195.200 446.640 C 195.200 445.783,191.903 448.949,169.310 471.500 C 155.479 485.305,143.181 497.456,141.981 498.502 C 140.782 499.549,139.530 500.641,139.200 500.930 C 138.870 501.219,137.430 502.334,136.000 503.409 C 134.570 504.484,133.289 505.522,133.154 505.718 C 132.902 506.081,131.620 506.873,130.200 507.543 C 129.760 507.750,128.744 508.370,127.941 508.920 C 127.139 509.470,126.104 510.040,125.641 510.187 C 125.179 510.334,124.800 510.622,124.800 510.827 C 124.800 511.032,124.372 511.200,123.849 511.200 C 123.326 511.200,122.674 511.470,122.400 511.800 C 122.126 512.130,121.496 512.400,121.000 512.400 C 120.504 512.400,119.874 512.670,119.600 513.000 C 119.326 513.330,118.747 513.600,118.313 513.600 C 117.879 513.600,117.046 513.845,116.462 514.145 C 115.179 514.802,113.080 515.552,111.251 516.004 C 110.509 516.188,109.708 516.532,109.471 516.769 C 109.234 517.006,108.401 517.206,107.620 517.214 C 106.839 517.222,105.750 517.486,105.200 517.800 C 104.650 518.114,103.351 518.378,102.314 518.386 C 101.277 518.394,99.567 518.695,98.514 519.055 C 95.686 520.023,76.297 520.026,73.486 519.059 C 72.433 518.696,70.723 518.394,69.686 518.386 C 68.649 518.378,67.350 518.114,66.800 517.800 C 66.250 517.486,65.165 517.222,64.389 517.214 C 63.613 517.206,62.623 516.956,62.189 516.658 C 61.755 516.360,60.950 516.018,60.400 515.899 C 59.037 515.602,56.821 514.803,55.538 514.145 C 54.954 513.845,54.121 513.600,53.687 513.600 C 53.253 513.600,52.674 513.330,52.400 513.000 C 52.126 512.670,51.496 512.400,51.000 512.400 C 50.504 512.400,49.874 512.130,49.600 511.800 C 49.326 511.470,48.696 511.200,48.200 511.200 C 47.704 511.200,47.074 510.930,46.800 510.600 C 46.526 510.270,46.153 510.000,45.971 510.000 C 45.789 510.000,44.866 509.488,43.920 508.861 C 42.974 508.235,41.570 507.380,40.801 506.961 C 40.032 506.543,39.222 506.003,39.001 505.762 C 38.780 505.521,37.970 504.897,37.200 504.375 C 36.430 503.853,35.581 503.240,35.314 503.013 C 35.047 502.786,34.596 502.420,34.312 502.200 C 30.473 499.224,24.733 493.695,22.060 490.401 C 21.257 489.411,20.420 488.398,20.200 488.150 C 19.980 487.901,19.530 487.302,19.200 486.818 C 18.870 486.334,17.790 484.817,16.800 483.448 C 15.810 482.078,14.640 480.247,14.200 479.379 C 13.760 478.510,13.275 477.743,13.123 477.674 C 12.971 477.605,12.463 476.705,11.995 475.674 C 11.527 474.643,10.975 473.530,10.769 473.200 C 10.563 472.870,10.295 472.330,10.172 472.000 C 9.951 471.406,9.532 470.417,8.258 467.486 C 7.896 466.654,7.600 465.641,7.600 465.235 C 7.600 464.830,7.330 464.274,7.000 464.000 C 6.670 463.726,6.400 463.018,6.400 462.427 C 6.400 461.836,6.136 461.004,5.813 460.576 C 5.490 460.149,5.219 459.170,5.210 458.400 C 5.202 457.630,4.956 456.541,4.663 455.980 C 4.370 455.419,4.018 453.755,3.881 452.282 C 3.743 450.810,3.422 449.214,3.166 448.737 C 2.516 447.522,2.516 425.278,3.166 424.063 C 3.422 423.586,3.739 421.982,3.871 420.498 C 4.003 419.014,4.356 417.314,4.656 416.720 C 4.955 416.126,5.206 415.136,5.213 414.520 C 5.220 413.904,5.490 413.051,5.813 412.624 C 6.136 412.196,6.400 411.376,6.400 410.800 C 6.400 410.224,6.664 409.404,6.987 408.976 C 7.310 408.549,7.580 407.868,7.587 407.462 C 7.594 407.056,7.843 406.246,8.139 405.662 C 8.436 405.078,8.996 403.880,9.383 403.000 C 9.771 402.120,10.249 401.130,10.447 400.800 C 10.644 400.470,10.908 399.930,11.035 399.600 C 11.474 398.454,12.848 395.793,13.617 394.600 C 14.043 393.940,14.518 393.135,14.672 392.811 C 15.148 391.815,19.698 385.040,20.368 384.330 C 20.716 383.962,21.540 382.981,22.200 382.151 C 24.460 379.307,59.562 343.910,71.500 332.435 C 72.435 331.536,73.200 330.621,73.200 330.400 C 73.200 330.180,73.470 330.000,73.800 330.000 C 74.130 330.000,74.400 329.826,74.400 329.613 C 74.400 329.110,77.110 326.400,77.613 326.400 C 77.826 326.400,78.000 326.130,78.000 325.800 C 78.000 325.470,78.270 325.200,78.600 325.200 C 78.930 325.200,79.200 324.930,79.200 324.600 C 79.200 324.270,79.470 324.000,79.800 324.000 C 80.130 324.000,80.400 323.730,80.400 323.400 C 80.400 323.070,80.670 322.800,81.000 322.800 C 81.330 322.800,81.600 322.530,81.600 322.200 C 81.600 321.870,81.870 321.600,82.200 321.600 C 82.530 321.600,82.800 321.426,82.800 321.213 C 82.800 320.710,85.510 318.000,86.013 318.000 C 86.226 318.000,86.400 317.730,86.400 317.400 C 86.400 317.070,86.544 316.800,86.719 316.800 C 87.136 316.800,113.200 290.736,113.200 290.319 C 113.200 290.144,113.470 290.000,113.800 290.000 C 114.130 290.000,114.400 289.730,114.400 289.400 C 114.400 289.070,114.670 288.800,115.000 288.800 C 115.330 288.800,115.600 288.620,115.600 288.400 C 115.600 288.180,115.960 287.640,116.400 287.200 C 116.840 286.760,117.380 286.400,117.600 286.400 C 117.820 286.400,118.000 286.130,118.000 285.800 C 118.000 285.470,118.270 285.200,118.600 285.200 C 118.930 285.200,119.200 284.930,119.200 284.600 C 119.200 284.270,119.470 284.000,119.800 284.000 C 120.130 284.000,120.400 283.730,120.400 283.400 C 120.400 283.070,120.670 282.800,121.000 282.800 C 121.330 282.800,121.600 282.530,121.600 282.200 C 121.600 281.870,121.870 281.600,122.200 281.600 C 122.530 281.600,122.800 281.426,122.800 281.213 C 122.800 280.710,125.510 278.000,126.013 278.000 C 126.226 278.000,126.400 277.730,126.400 277.400 C 126.400 277.070,126.544 276.800,126.719 276.800 C 126.895 276.800,132.925 270.914,140.119 263.719 C 147.314 256.525,153.200 250.495,153.200 250.319 C 153.200 250.144,153.470 250.000,153.800 250.000 C 154.130 250.000,154.400 249.730,154.400 249.400 C 154.400 249.070,154.670 248.800,155.000 248.800 C 155.330 248.800,155.600 248.620,155.600 248.400 C 155.600 247.881,157.081 246.400,157.600 246.400 C 157.820 246.400,158.000 246.130,158.000 245.800 C 158.000 245.470,158.270 245.200,158.600 245.200 C 158.930 245.200,159.200 244.930,159.200 244.600 C 159.200 244.270,159.380 244.000,159.600 244.000 C 160.119 244.000,161.600 242.519,161.600 242.000 C 161.600 241.780,161.870 241.600,162.200 241.600 C 162.530 241.600,162.800 241.330,162.800 241.000 C 162.800 240.670,163.070 240.400,163.400 240.400 C 163.730 240.400,164.000 240.220,164.000 240.000 C 164.000 239.481,165.481 238.000,166.000 238.000 C 166.220 238.000,166.400 237.730,166.400 237.400 C 166.400 237.070,166.546 236.800,166.724 236.800 C 167.148 236.800,194.400 209.548,194.400 209.124 C 194.400 208.946,194.670 208.800,195.000 208.800 C 195.330 208.800,195.600 208.530,195.600 208.200 C 195.600 207.870,195.870 207.600,196.200 207.600 C 196.530 207.600,196.800 207.330,196.800 207.000 C 196.800 206.670,197.070 206.400,197.400 206.400 C 197.730 206.400,198.000 206.130,198.000 205.800 C 198.000 205.470,198.270 205.200,198.600 205.200 C 198.930 205.200,199.200 204.930,199.200 204.600 C 199.200 204.270,199.375 204.000,199.590 204.000 C 199.960 204.000,400.000 4.146,400.000 3.776 C 400.000 2.825,375.136 27.545,211.752 190.940 M373.080 267.500 C 351.843 288.699,340.786 300.222,344.584 297.200 C 344.998 296.870,357.442 284.495,372.236 269.700 C 387.031 254.905,399.330 242.800,399.568 242.800 C 399.805 242.800,400.000 242.620,400.000 242.400 C 400.000 240.904,395.828 244.794,373.080 267.500 " stroke="none" fill="#fc8c8c" fill-rule="evenodd"></path></g></svg>