<svg xmlns="http://www.w3.org/2000/svg" width="56" height="56" viewBox="0 0 56 56">
  <path id="slack" d="M24.394,56h0a5.017,5.017,0,0,1-4.679-3.248l-1.671-5.191-5.195,1.688a4.995,4.995,0,0,1-3.083-9.492l5.167-1.688L11.517,27.56,6.333,29.248a5,5,0,0,1-3.083-9.493L8.442,18.07,6.805,13.037a4.993,4.993,0,1,1,9.5-3.085l1.633,5.023,10.509-3.416L26.809,6.536a4.993,4.993,0,1,1,9.5-3.086l1.639,5.03,5.031-1.636a4.993,4.993,0,1,1,3.086,9.5l-5.03,1.635,3.415,10.508,5.009-1.635a4.984,4.984,0,1,1,3.1,9.475L47.522,37.96l1.688,5.191a5,5,0,0,1-9.493,3.086L38.029,41.07,27.52,44.485l1.688,5.184A5,5,0,0,1,24.394,56Zm7.137-34.938-10.51,3.416,3.416,10.508,10.51-3.416Z" fill="#fd5353"/>
</svg>
