<svg xmlns="http://www.w3.org/2000/svg" xmlns:xlink="http://www.w3.org/1999/xlink" width="784" height="881.4" viewBox="0 0 784 881.4">
  <defs>
    <filter id="cardBg" x="0" y="0" width="784" height="881.4" filterUnits="userSpaceOnUse">
      <feOffset dy="100" input="SourceAlpha"/>
      <feGaussianBlur stdDeviation="49.5" result="blur"/>
      <feFlood flood-color="#1f485d" flood-opacity="0.259"/>
      <feComposite operator="in" in2="blur"/>
      <feComposite in="SourceGraphic"/>
    </filter>
    <clipPath id="clip-path">
      <circle id="Mask" cx="33.394" cy="33.394" r="33.394" fill="#bcd0e7"/>
    </clipPath>
    <clipPath id="clip-path-3">
      <circle id="Mask-3" data-name="Mask" cx="33.394" cy="33.394" r="33.394" fill="#ffd7ab"/>
    </clipPath>
    <clipPath id="clip-path-4">
      <circle id="Mask-4" data-name="Mask" cx="33.394" cy="33.394" r="33.394" fill="#ffabab"/>
    </clipPath>
  </defs>
  <g id="Top_Earners" data-name="Top Earners" transform="translate(148.5 48.5)">
    <g transform="matrix(1, 0, 0, 1, -148.5, -48.5)" filter="url(#cardBg)">
      <rect id="cardBg-2" data-name="cardBg" width="487" height="584.4" rx="8" transform="translate(148.5 48.5)" fill="#fff"/>
    </g>
    <path id="Line_2_Copy" data-name="Line 2 Copy" d="M0,.5,420.211.5" transform="translate(33.394 192.212)" fill="none" stroke="#e6ebf0" stroke-linecap="square" stroke-miterlimit="10" stroke-width="1"/>
    <path id="Line_2_Copy-2" data-name="Line 2 Copy" d="M0,.5,420.211.5" transform="translate(33.394 314.658)" fill="none" stroke="#e6ebf0" stroke-linecap="square" stroke-miterlimit="10" stroke-width="1"/>
    <path id="Line_2_Copy-3" data-name="Line 2 Copy" d="M0,.5,420.211.5" transform="translate(33.394 437.104)" fill="none" stroke="#e6ebf0" stroke-linecap="square" stroke-miterlimit="10" stroke-width="1"/>
    <text id="_1." data-name="1." transform="translate(33.394 143.097)" fill="#42505c" font-size="27" font-family="SegoeUI, Segoe UI"><tspan x="0" y="0">1.</tspan></text>
    <text id="_2." data-name="2." transform="translate(33.394 265.543)" fill="#42505c" font-size="27" font-family="SegoeUI, Segoe UI"><tspan x="0" y="0">2.</tspan></text>
    <text id="_4." data-name="4." transform="translate(33.394 510.434)" fill="#42505c" font-size="27" font-family="SegoeUI, Segoe UI"><tspan x="0" y="0">4.</tspan></text>
    <text id="_3." data-name="3." transform="translate(33.394 387.989)" fill="#42505c" font-size="27" font-family="SegoeUI, Segoe UI"><tspan x="0" y="0">3.</tspan></text>
    <g id="profilePicMask" transform="translate(72.354 98.791)">
      <circle id="Mask-5" data-name="Mask" cx="33.394" cy="33.394" r="33.394" fill="#ffb653"/>
    </g>
    <g id="profilePicMask-3" data-name="profilePicMask" transform="translate(72.354 221.237)">
      <circle id="Mask-6" data-name="Mask" cx="33.394" cy="33.394" r="33.394" fill="#ffb653"/>
    </g>
    <g id="profilePicMask-5" data-name="profilePicMask" transform="translate(72.354 343.683)">
      <circle id="Mask-7" data-name="Mask" cx="33.394" cy="33.394" r="33.394" fill="#ffd7ab"/>
    </g>
    <g id="profilePicMask-7" data-name="profilePicMask" transform="translate(72.354 466.129)">
      <circle id="Mask-8" data-name="Mask" cx="33.394" cy="33.394" r="33.394" fill="#ffabab"/>
    </g>
    <rect id="Rectangle_524" data-name="Rectangle 524" width="148.883" height="19.48" rx="7" transform="translate(32.003 36.177)" fill="#b9c0e9"/>
    <rect id="Rectangle_527" data-name="Rectangle 527" width="148.883" height="13.914" rx="6.957" transform="translate(175.32 105.749)" fill="#b9c0e9"/>
    <rect id="Rectangle_530" data-name="Rectangle 530" width="148.883" height="13.914" rx="6.957" transform="translate(175.32 232.369)" fill="#ff5353"/>
    <rect id="Rectangle_532" data-name="Rectangle 532" width="148.883" height="13.914" rx="6.957" transform="translate(175.32 354.814)" fill="#ff5353"/>
    <rect id="Rectangle_534" data-name="Rectangle 534" width="148.883" height="13.914" rx="6.957" transform="translate(175.32 478.651)" fill="#ff5353"/>
    <rect id="Rectangle_528" data-name="Rectangle 528" width="90.443" height="13.914" rx="6.957" transform="translate(175.32 133.577)" fill="#ff5353" opacity="0.47"/>
    <rect id="Rectangle_529" data-name="Rectangle 529" width="90.443" height="13.914" rx="6.957" transform="translate(175.32 260.197)" fill="#ff5353" opacity="0.47"/>
    <rect id="Rectangle_531" data-name="Rectangle 531" width="90.443" height="13.914" rx="6.957" transform="translate(175.32 382.643)" fill="#ff5353" opacity="0.47"/>
    <rect id="Rectangle_533" data-name="Rectangle 533" width="90.443" height="13.914" rx="6.957" transform="translate(175.32 506.48)" fill="#ff5353" opacity="0.47"/>
    <rect id="Rectangle_525" data-name="Rectangle 525" width="54.266" height="13.914" rx="6.957" transform="translate(339.509 38.96)" fill="#b9c0e9" opacity="0.49"/>
    <rect id="Rectangle_526" data-name="Rectangle 526" width="54.266" height="13.914" rx="6.957" transform="translate(406.297 38.96)" fill="#b9c0e9"/>
  </g>
</svg>
